<?xml version="1.0" encoding="UTF-8"?>
<svg xmlns="http://www.w3.org/2000/svg" version="1.1" viewBox="0 0 3000 2531">
  <!-- Generator: Adobe Illustrator 30.2.1, SVG Export Plug-In . SVG Version: 2.1.1 Build 1)  -->
  <defs>
    <style>
      .st0, .st1, .st2 {
        stroke-linecap: round;
        stroke-width: 20px;
      }

      .st0, .st1, .st2, .st3 {
        fill: none;
        stroke: #1c75bc;
      }

      .st0, .st2 {
        stroke-linejoin: round;
      }

      .st4, .st2 {
        fill-rule: evenodd;
      }

      .st1, .st3 {
        stroke-miterlimit: 10;
      }

      .st3 {
        stroke-width: 5px;
      }

      .st5 {
        display: none;
      }

      .st6 {
        fill: #1c75bc;
      }
    </style>
  </defs>
  <g id="Layer_1" class="st5">
    <path class="st4" d="M-2137.4,0c129.5-.9,260.9-2.9,370,19l51,6c96.7,21.8,188.6,49.1,273,82,48.6,18.9,97.7,32.1,144,52,32.2,13.9,63.2,37.5,92,55,17.6,10.7,37,15.4,54,26,46,28.7,85.2,66.2,127,99,29.3,24.7,58.7,49.3,88,74,21.1,16.7,45.2,34.2,62,55,58.2,72.3,113.9,142.2,163,225,63.4,106.9,100.5,236.5,126,381,20,113.4,5.6,248.4-29,329-87.8,204.5-258.8,323.1-434,440-94,62.7-197.1,117.3-266,205-54,68.7-148.7,221.6-109,354,12.1,40.5,31.3,54.2,49,84-1.3,2.7-2.7,5.3-4,8-2.3-.3-4.7-.7-7-1-42.4-20.4-71.7-130.4-58-201,28.1-145.3,98.5-230.2,177-323,26.1-30.9,64.7-54.2,98-78,23.3-18.3,46.7-36.7,70-55,35.7-28.7,71.3-57.3,107-86l51-54c57.9-46.8,112.7-105,153-169,26.5-42,48.3-89.6,62-144,22.9-91,11.9-219.6-7-305-15.4-69.3-28.9-133.8-54-193-9.1-21.3-22-41.3-32-61-28.1-55.4-49.2-108-83-156-35-49.6-76.1-94.6-114-142-62.8-78.5-155.2-133.4-244-186-95.6-56.7-203-110.6-318-145-93.3-27.9-195.4-33.1-298-52-61.5-11.3-131.8-15-205-15-24.7.3-49.3.7-74,1-42.7,6.9-86.1-.5-126,6-78.9,12.9-156.8,7-232,22-33.7,6.3-67.3,12.7-101,19-63,17.5-126.3,38.1-186,57-104.5,33-201.6,64.4-286,117-20.3,12.6-36.4,29.7-55,43-39.9,28.5-82.1,52.8-111,92-45.2,61.3-75.1,137.8-98,222-2.3,18.7-4.7,37.3-7,56-6.1,33.6-18.7,88.8-12,130,14.6,89.6,26.6,179.8,46,266,.3,15,.7,30,1,45,7.1,44.3,3.8,91,12,131-20.6,2.2-28.7-33.7-33-51-12.9-52.5-37.2-94.2-55-145-26.1-74.6-48.3-143.8-65-228-38.3-192.7,35.3-379.4,107-493,12.4-19.7,35.9-38.6,54-53,40.7-32.4,78.5-65.4,123-95,37-24.6,74.4-51,114-73,26-10.7,52-21.3,78-32,83.5-36.5,170.8-71.3,266-98,59.5-16.7,124-23,188-35,65-7.3,130-14.7,195-22,24.3-1.7,48.7-3.3,73-5,43-1.7,86-3.3,129-5Z"/>
    <path class="st4" d="M-2227.4,224c212.1-2,402.3,14.4,568,60,57,15.7,151.5,38.5,182,77l15-15c16.7-7.7,29.7-18,52-22,97.7-17.5,144.8,102.3,92,170-68.9,88.3-219.7,10-170-116-11.3-7.7-22.7-15.3-34-23-26.3-15.7-58.7-27.2-90-37-349.2-109.8-906.1-96.1-1201,48,52.9,82.8-27.2,198.8-128,157-33.3-13.8-56.9-42.8-65-82-13.5-65.6,51.1-134.7,119-122,24.2,4.5,39.9,14,56,26,1.7,1.3,3.3,2.7,5,4,12.7-6.3,25.3-12.7,38-19,26.7-10.3,53.3-20.7,80-31,67.3-26.4,143.9-37,221-53,54.4-11.3,112.8-7.9,170-18,30-1.3,60-2.7,90-4Z"/>
    <path class="st4" d="M-1403.4,340c-40.1,15.3-60.5,16-76,57-22.3,58.9,30,127.6,94,116,103.7-18.8,97.4-174.4-18-173Z"/>
    <path class="st4" d="M-2485.4,752c17,.3,34,.7,51,1,1.7,2.7,3.3,5.3,5,8-2.5,18.1-36,12.8-56,12v248h197c23.4,0,64.3-5.4,79,3,1.4,5.3,2.8,12.8,1,19h-224c-16.1,0-67.5,3.4-73-5-5.9-9-2-56.8-2-72v-193c-12.8.5-33.8,2.7-39-5-.7-3-1.3-6-2-9,1.3-2,2.7-4,4-6,12.3-.3,24.7-.7,37-1,.3-78.3.7-156.7,1-235,2.9-3.7,5.3-5,10-7,5.1,2,7.7,3.1,10,8,.3,78,.7,156,1,234Z"/>
    <path class="st4" d="M-2173.4,510c2,.3,4,.7,6,1,4.2,1.7,5.2,2.9,7,7,.3,44.7.7,89.3,1,134v190c0,27.9,3.8,63.7-2,88-6.5,4.6-9.2,5-17,2-10-22.3-3-88.7-3-119,.3-99.3.7-198.7,1-298,2.3-1.7,4.7-3.3,7-5Z"/>
    <path class="st4" d="M-2012.4,535c2.7.3,5.3.7,8,1,16.5,18.5,24.1,46,37,68,16.7,31.3,33.3,62.7,50,94,.3-.7.7-1.3,1-2,24.7-42.3,49.3-84.7,74-127,6.5-10.9,10.2-23.5,19-32,2.3.3,4.7.7,7,1l6,6c.3,96.7.7,193.3,1,290,0,23.7,5.2,80.3-4,95-3,.7-6,1.3-9,2-2.3-2.3-4.7-4.7-7-7-.7-111-1.3-222-2-333v2c-24.3,42.3-48.7,84.7-73,127,44.4,13.2,35,98.8-24,86-26.5-5.8-47.8-40.2-29-69,6.3-9.7,16.3-13.5,27-19-22.7-43-45.3-86-68-129h-1c-.3,112.3-.7,224.7-1,337-2,1.3-4,2.7-6,4h-8c-10.8-8.8-6-74.3-6-96,.3-98,.7-196,1-294,2.3-1.7,4.7-3.3,7-5Z"/>
    <path class="st4" d="M-1343.4,541c2.3.3,4.7.7,7,1l6,6v367c-6.6,5.2-11.4,5.9-19,1-2.4-9.2-3.1-26.4-1-37h-1c-21.3,66.7-124.3,48.1-135-27-6.2-43.6,44.8-86.1,91-72,23.3,7.1,30.5,22.7,45,38-.3-69.7-.7-139.3-1-209,0-22.6-5-57.7,8-68Z"/>
    <path class="st4" d="M-3220.4,558c30.7-.6,46.5,14.4,55,36,66.7,3.3,133.3,6.7,200,10,11.2,3.1,22.7,11.7,29,20,49.6,66,65.5,246-7,300-48.7,36.3-145.7,27.4-215,17-14.3,56.8-111.1,42-101-19,10.1-60.9,90.3-62.6,103-3,61.4,18.6,178.3,19.2,211-23,47.3-61.2,33.8-205.3-9-260-12.3-15.7-35-9.2-60-13-49.7-2.3-99.3-4.7-149-7-3.3,38-51.8,59-84,34-21-16.4-25-59.4-3-78,8.8-7.4,18.1-9.1,30-14Z"/>
    <path class="st4" d="M-3146.4,653c22.2,1.1,15,31.2,15,53v115c0,18.8,1.9,42.5-2,58-1.7,1.3-3.3,2.7-5,4-2.7-.3-5.3-.7-8-1l-6-6c-.3-56.3-.7-112.7-1-169,0-20-3.1-44,7-54Z"/>
    <path class="st4" d="M-1088.4,1035c-.4-61.5,88.7-63.4,101-8,8.3,37.3-28.3,72.4-67,59-16.8-5.8-21.2-18.6-32-30h-315c-52.7,0-109.6,3.9-130-29-27.6-44.5-9.1-128.5-19-190-5.2-32.1,8.6-68.9-18-79-32.2-12.5-70.8,73.2-92,86,5.5,20,3.6,63.4-1,82-2.7,1.7-5.3,3.3-8,5-17.3-2.8-12-25.1-12-44,.3-46,.7-92,1-138,6.6-5.2,11.4-5.9,19-1,3.7,15.9,4.3,46.5,1,64,.7-.3,1.3-.7,2-1,11-27.1,67.3-99.3,109-68,46.4,34.9,2.4,220.9,37,274,17.4,26.8,73.3,10.9,112,17,104,.3,208,.7,312,1Z"/>
    <path class="st4" d="M-2847.4,736c2.3.7,4.7,1.3,7,2,6.3,9.9,4,32,4,48,0,33.8,6.4,102.8-2,130-3.7,1-7.3,2-11,3-3.2-1.6-4.2-1.8-6-5-5.5-9.1-2-33.9-2-47,.3-42,.7-84,1-126,3-1.7,6-3.3,9-5Z"/>
    <path class="st4" d="M-1219.4,741c33.1-.9,57.3,7.4,73,24-.3,2.7-.7,5.3-1,8-2.3,5-5.3,6.5-12,7-10.8-8.1-24.1-14.1-40-17-26.5-4.8-76.2,15.2-67,38,11.2,22,46.1,6.9,74,12,31.3,5.8,60.4,33.9,47,76-19.4,61-151.1,68-129-13,5.1-4.1,13.6-8.3,18,0,9.2,13-7.9,26,17,36,39.4,15.8,89-17.2,72-58-13.9-33.4-77.7-9.1-106-28-7.9-5.3-12.4-13.1-15-24-10-42.1,42.1-49.7,69-61Z"/>
    <path class="st4" d="M-1739.4,744c7,0,9.4.9,12,5,5.4,9,2,33.1,2,46-.3,41.3-.7,82.7-1,124-5.8,3.9-16.5,7.7-20-2v-46c0-34.2-7.2-95.5,2-124,1.7-1,3.3-2,5-3Z"/>
    <path class="st4" d="M-2599.4,776c4,.7,8,1.3,12,2,9.3,20.1,3,81.2,3,109s2.7,30.1-5,35c-2.4,1.6-3.6,1.8-8,2-2.7-2-5.3-4-8-6-5.6-15.7,1.3-137.2,6-142Z"/>
    <path class="st4" d="M-2734.4,778c29.8-.8,43,8.8,59,21-2-6.6,0-12,2-17,3.5-1.8,7.3-4,12-2l6,6c.3,67.3.7,134.7,1,202,0,16.4,4.9,56.2-4,62-37.3.3-74.7.7-112,1h-266c-39.5,0-94.2-6.3-124,6-89.3,36.9-19.7,267.9-52,368-18.8,58.2-68.3,94-112,128-53.6,41.7-103.9,88.9-157,131-21.8,17.3-93.7,59.7-83,103,9.8,39.9,119.6,21.6,165,30,28.1,5.2,55.5,11.3,68,32,8.8,14.5,7.8,126.2,3,152-1.7,1.3-3.3,2.7-5,4-1.7-.3-3.3-.7-5-1-2-1.7-4-3.3-6-5v-139c-3.5-9.2-16.7-16.7-26-20-57.8-20.4-195.4,13.8-210-49-12.6-54.4,63.1-101.1,90-122,54-44.7,108-89.3,162-134,41.3-32.2,85-64.8,102-121,6.8-22.5,4-49.5,4-77v-152c0-31.3-2.2-65.5,6-89,7.2-20.5,21.5-38.6,39-49,32.8-19.5,102.2-12,153-12h349v-136c-10.5,8-20.8,16.6-36,20-58.4,13-102.7-46.8-80-99,11.2-25.8,30.5-30.7,57-42Z"/>
    <path class="st4" d="M-2329.4,793c17.5.7,40.2,13.7,46,7h1c6.4.4,6.4,1.5,10,4,14.7,29.7,29.3,59.3,44,89,4.3,8,17.8,22.8,15,33-1.7,2-3.3,4-5,6-1.7-.3-3.3-.7-5-1-8.1-4.5-28.5-45.2-32-56h-1c-2,55.6-87.2,81.2-122,38-29.5-36.5-20.5-87.9,16-110,9.8-5.9,20.9-5.4,33-10Z"/>
    <path class="st4" d="M-1418.4,794c-23.4,8.9-39.1,12.3-48,35-15.3,38.9,17.7,81.6,59,74,64.9-12,61.4-108.4-11-109Z"/>
    <path class="st4" d="M-2736.4,795c-19.3,9.5-35.3,15.4-42,37-12.9,41.4,23.4,82.2,67,70,56.2-15.8,50.4-109.1-25-107Z"/>
    <path class="st4" d="M-2333.4,810c-21.5,9.5-37.8,14.7-45,38-11.5,37.4,19.6,77.8,58,71,67.9-12,65-111-13-109Z"/>
    <path class="st4" d="M-1600.4,847c46-1.9,51.3,50.5,17,64v234c154.7,179,309.3,358,464,537,35.1-13.1,56.9,36.2,32,56-21.5,17.1-50.6,3.1-55-21-1.7-9.6,3.2-16.1,5-23-155.7-180-311.3-360-467-540-.7-81.3-1.3-162.7-2-244-28-23-24.6-45.5,6-63Z"/>
    <path class="st4" d="M-1037.4,901c99.4-1.4,174.9,94,132,194-21.5,50-87.1,105-164,75-28.9-11.3-43-30.6-63-50h-138c-21.9,0-49.5,2.4-68-2-1.7-2.7-3.3-5.3-5-8,1.3-3.3,2.7-6.7,4-10,14.2-3.8,36.5-2,54-2h110c18.2,0,47.4-3.6,59,4,8.8,37.1,79.8,66,128,47,41.5-16.3,64-50.7,72-101,3.6-22.6-4.9-43.9-11-58-32.3-74.9-139.9-93.8-187-19h-25v-1c.7-.7,1.3-1.3,2-2,9.4-26.2,40.3-48.9,66-59,11.3-2.7,22.7-5.3,34-8Z"/>
    <path class="st4" d="M-2851.4,938c62-.6,65.7,81.7,11,92-32.3,6.1-61.3-26-51-59,6.4-20.5,20.5-25,40-33Z"/>
    <path class="st4" d="M-2598.4,942c61-.8,63.6,81.1,7,90-28.8,4.5-55.4-26.4-47-56,6.1-21.6,19.9-25.9,40-34Z"/>
    <path class="st4" d="M-1738.4,943c66.1-.6,70.5,90.7,13,102-37.5,7.4-69.5-27-59-64,6.9-24.2,23.2-29.1,46-38Z"/>
    <path class="st4" d="M-3055.4,1085c146.5-2.7,151.8,184.5,23,206-67.9,11.3-130.5-62.7-110-131,9.2-30.7,31.8-56.4,60-68,9-2.3,18-4.7,27-7Z"/>
    <path class="st4" d="M-3049.4,1101c-37.3,14.6-58.9,17-74,54-24.4,59.7,27.2,130.8,93,119,103.6-18.5,97.5-174.4-19-173Z"/>
    <path class="st4" d="M-1448.4,1121c30-.5,45.1,12.8,51,36,4.1,16.1-9.9,27.3-3,34,92.7,114.3,185.3,228.7,278,343l66,81c9.1,11.7,27.6,24,30,41l-3,6c-3.3,1-6.7,2-10,3-13.2-7.1-21.1-22.5-30-34-25-30.7-50-61.3-75-92-91.3-112-182.7-224-274-336-9.8,2.1-21.1,7.8-34,4-29.9-8.8-44.5-55.6-16-77,6.7-3,13.3-6,20-9Z"/>
    <path class="st4" d="M-1308.4,1159c2.7.3,5.3.7,8,1,87.7,105,175.3,210,263,315,15.6,19.9,86.1,90.7,89,111-1.3,2.3-2.7,4.7-4,7-3,.7-6,1.3-9,2-21.1-11.3-67-76.3-84-98-63.7-76.3-127.3-152.7-191-229-20.3-24.3-40.7-48.7-61-73-5.4-6.9-20.2-16.5-18-27,1.5-5.6,3.4-5.9,7-9Z"/>
    <path class="st4" d="M-1108.4,1236c17.2,4.9,41.9,44.6,53,59,41.7,50.7,83.3,101.3,125,152,37.9-9.2,58.4,39.3,29,59-31.1,20.8-61.4-16.4-46-46-43.3-53.3-86.7-106.7-130-160-9.2-11.8-42.1-41.2-40-57,3-2.3,6-4.7,9-7Z"/>
    <path class="st4" d="M-999.4,1236c16.1,6.3,24.3,25.1,34,38,25.3,32.7,50.7,65.3,76,98,10.4,13.7,32,29.7,35,49-2.7,3-5.3,6-8,9-2.7-.3-5.3-.7-8-1-35.3-45.3-70.7-90.7-106-136-9.9-13.2-32-29-33-49,1.3-2,2.7-4,4-6,2-.7,4-1.3,6-2Z"/>
    <path class="st4" d="M-900.4,1238c2.7.3,5.3.7,8,1,9.9,4.9,15.5,17.5,22,26,19.3,24,38.7,48,58,72,.4,10.7-3.2,14.6-13,15-12-9.2-80.5-92.6-82-106,2.3-2.7,4.7-5.3,7-8Z"/>
    <path class="st4" d="M-813.4,1254c7.3,0,10.3,1.3,15,3,2.2,3.8,5.5,8.4,4,13-.7,5.9-2.5,7.3-5,11-4,1.3-10.2,3.2-15,1-6.5-2.8-9.2-7.4-9-17,2.8-5.6,5.5-7.3,10-11Z"/>
    <path class="st4" d="M-1950.4,1275c17,2.1,31.9,26.7,41,38,27.3,29.3,54.7,58.7,82,88l366,393c34.3,36.7,68.7,73.3,103,110,7.6,7.8,35.5,28.2,31,42-2,2.3-4,4.7-6,7-18.6-1.1-32.6-25.4-42-37-36.3-39-72.7-78-109-117-112.7-121-225.3-242-338-363-31.7-34-63.3-68-95-102-12.7-15.7-33.4-27.7-42-47,.3-1.7.7-3.3,1-5,2.7-2.3,5.3-4.7,8-7Z"/>
    <path class="st4" d="M-1447.4,1430c27.4-1.2,44.6,20.4,32,45,62.3,71.7,124.7,143.3,187,215,13.5,16.9,62.6,58.3,65,79-2,4.1-2.9,6-7,8-2,.3-4,.7-6,1-20.3-10.9-61.9-66.9-78-87-59.3-67.7-118.7-135.3-178-203-38.8,12-51.6-37.8-15-58Z"/>
    <path class="st4" d="M-1549.4,1450c2.3.3,4.7.7,7,1,80,91.3,160,182.7,240,274,18.7,21.3,37.3,42.7,56,64,5.6,6.9,21.7,14.9,17,28l-6,6c-2,.3-4,.7-6,1-31.2-24.1-68.7-74.3-94-106-74-84.3-148-168.7-222-253,.3-2.7.7-5.3,1-8l7-7Z"/>
    <path class="st4" d="M-1672.4,1451c15.3,3.2,83,83.9,96,100,87.3,96,174.7,192,262,288,32.9-4.7,59.1,28.8,32,51-27.9,22.9-54.2-7.1-47-37-90.7-99.7-181.3-199.3-272-299-26.7-29.3-53.3-58.7-80-88-1.8-6.1,2.3-10.1,4-13,1.7-.7,3.3-1.3,5-2Z"/>
    <path class="st4" d="M-2119.4,1488c19.9.7,32,24,43,35,34,34.3,68,68.7,102,103l366,372c29.7,30,59.3,60,89,90,10.1,10.1,31,22.2,33,39-29.1,38.8-70.6,158.7-58,234,7.5,44.6,16.2,81.8,35,114,5.1,8.8,12.7,20,1,26-18-8.9-27-44.9-34-65-26.6-75.8-17-179.5,10-249,8-19.3,16-38.7,24-58l-360-366c-69.7-70.7-139.3-141.3-209-212-15.7-17.7-35.3-31.3-49-51,1.1-6.7,3.2-8.4,7-12Z"/>
    <path class="st4" d="M-892.4,1502c10.8,1.2,16.4,6.5,16,19-4.8,10.6-13.3,12.7-25,8-1.7-3.3-3.3-6.7-5-10,1.1-11.4,5.8-12.8,14-17Z"/>
    <path class="st4" d="M-1838.4,1675c16,1.3,23.1,17.1,32,26,25.7,26.3,51.3,52.7,77,79,98.7,100.7,197.3,201.3,296,302,.4,10.7-3.2,14.6-13,15-32.9-25.1-62.6-60.1-90-91-72.3-73.7-144.7-147.3-217-221-24-24.7-48-49.3-72-74-6.4-6.4-24.1-16.4-20-29l7-7Z"/>
    <path class="st4" d="M-1711.4,1677c16,1.7,63.1,58.5,74,72l174,183c13.3,14,26.7,28,40,42,4.3-.3,8.7-.7,13-1,12.3,2.5,22.3,12,25,24,11.2,50.6-79.7,40.1-55-10-93-98.3-186-196.7-279-295,.3-2.7.7-5.3,1-8l7-7Z"/>
    <path class="st4" d="M-2303.4,1831c3,.3,6,.7,9,1-.2,21.1,2.3,43.5,4,59-10,3.5-6.8,12.9-15,17-1.3-7.7-6.3-10.5-8-16v-57c3.3-1.3,6.7-2.7,10-4Z"/>
    <path class="st4" d="M-2288.4,1831h19c-.5,58.9,48.3,71.5,74,105,.3,53.7.7,107.3,1,161,2.7,1.7,5.3,3.3,8,5v22c-8.3,4.1-15.3,8.1-27,9l-1-1c0-45.2.8-94,2-136l-47-47c6-4.7,12-9.3,18-14,3,2.7,6,5.3,9,8-.6,9.8,2,13.8,10,15,4.9-4.4,7.8-5.5,8-15-8.7-3.4-15.4-12.2-24-14,1-50.8-16-37.3-50-50v-48Z"/>
    <path class="st4" d="M-2263.4,1831c6.3.3,12.7.7,19,1-.3,21.3,37.3,66.8,51,70,7.3,1.7,15-1.1,22,1,.3.7.7,1.3,1,2v50c-6.7,5.4-9,12.7-19,15,.3-10.8,3.4-31.1,0-36-9.5-19.7-56.7-57.8-74-76v-27Z"/>
    <path class="st4" d="M-2238.4,1831c16,3,45.7,11.6,56,22-1.1,8-5.2,11.8-5,19l2,2c5,1.6,7.4,2.2,12,0,.7-1.7,1.3-3.3,2-5,1,.7,2,1.3,3,2,4,9.4,23.7,56.7,4,66,.3-13,.7-26,1-39-.7-1.3-1.3-2.7-2-4-8,.7-16,1.3-24,2-16.3-17-32.7-34-49-51v-14Z"/>
    <path class="st4" d="M-2321.4,1835c9.7,13.9-3.4,45.9,2,64,2.5,8.4,11.8,11,16,17,1.7,6.7,3.3,13.3,5,20,7.3,11,16.3,5.7,29,12,1.3.6,46.7,45.9,48,48,4.6,7.2,2,26.2,2,37-.3,34.7-.7,69.3-1,104-8.7,1.3-17.3,2.7-26,4,3.3-5.7,6.7-11.3,10-17,2.1-10.4-2.1-32.1-2-46,0-14.2,5.9-18.5,8-29,2.6-13.1-6-19.9-8-28-1.9-7.6,3.8-9.6,0-16l-15-12c-17.3-17.1-79.9-71.3-85-92v-58c5.7-2.7,11.3-5.3,17-8Z"/>
    <path class="st4" d="M-2828.4,1980h16v31c-14.3.3-28.7.7-43,1-2-12.4-8.1-50.2-4-61,1.9-5,5.5-4.5,6-14-1-.7-2-1.3-3-2-2-.7-4-1.3-6-2-1.3,1.3-2.7,2.7-4,4,0,0,.8,67.2,1,80,34.4,0,57.3,4,90,4v67h-18c4.1-12.3,15-35.4,6-51-30.9-6.7-77.5,5.2-105-2-1.7-4.6-2.9-6.8-3-14h8v-89c-2.7,1.7-5.3,3.3-8,5v-7c7.1-27,0-68.6,8-93,6.3.3,12.7.7,19,1v58c13.3,13.3,26.7,26.7,40,40v44Z"/>
    <path class="st4" d="M-2863.4,1838c6.3.3,12.7.7,19,1-.8,35.2,8.6,53.5,32,63v72c-5.3-.3-4.8.2-7-3-5.1-9.1.9-30.8-5-40-10.1-15.8-36.1-21.2-41-42,.7-17,1.3-34,2-51Z"/>
    <path class="st4" d="M-2838.4,1838c7.7.3,15.3.7,23,1,.2,17.9,8.2,38.5,2,54-5.3-5.3-10.7-10.7-16-16-3-2.3-6-4.7-9-7v-32Z"/>
    <path class="st4" d="M-3306.4,1843c-.3,54.3-.7,108.7-1,163h-18c-.4-56.9.9-117,8-163h11Z"/>
    <path class="st4" d="M-3301.4,1843h19v122c9.1,6.7,27.4,21.7,31,33h-1c-9.3.4-8.6,6.6-15,8-4.2.9-7.1-6.5-14-2-.3.3-.7.7-1,1-.6,3.6-.4,3-2,5-5.7-1.3-11.3-2.7-17-4v-163Z"/>
    <path class="st4" d="M-3277.4,1843c6.3.3,12.7.7,19,1-.1,18.4-3.6,105.2,0,111,6.4,10.1,27.3,21.7,36,33-12,7.1-23.7,3.9-30-1-8.3-8.7-16.7-17.3-25-26v-118Z"/>
    <path class="st4" d="M-3253.4,1843h18v66h-18v-66Z"/>
    <path class="st4" d="M-3229.4,1843h18v66h-18v-66Z"/>
    <path class="st4" d="M-3205.4,1843h18c-.3,20.6-3.4,52.1,4,66h-22v-66Z"/>
    <path class="st4" d="M-3181.4,1843c6.3.3,12.7.7,19,1-.3,15.7-.7,31.3-1,47h41v18c-23.4.5-46.5,1.6-59-8v-58Z"/>
    <path class="st4" d="M-3157.4,1843h30v24c3.6.6,3,.4,5,2-.3,5.7-.7,11.3-1,17-13.9,0-23.1,1.6-34,0v-43Z"/>
    <path class="st4" d="M-2661.4,1843c-.3,54.3-.7,108.7-1,163h-18c-.4-56.9.9-117,8-163h11Z"/>
    <path class="st4" d="M-2656.4,1843h19v122c9.1,6.7,27.4,21.7,31,33h-1c-9.3.4-8.6,6.6-15,8-4.2.9-7.1-6.5-14-2-.3.3-.7.7-1,1-.6,3.6-.4,3-2,5-5.7-1.3-11.3-2.7-17-4v-163Z"/>
    <path class="st4" d="M-2632.4,1843c6.3.3,12.7.7,19,1,0,18.4-3.6,105.2,0,111,6.4,10.1,27.3,21.7,36,33-12,7.1-23.7,3.9-30-1-8.3-8.7-16.7-17.3-25-26v-118Z"/>
    <path class="st4" d="M-2608.4,1843h18v66h-18v-66Z"/>
    <path class="st4" d="M-2584.4,1843h18v66h-18v-66Z"/>
    <path class="st4" d="M-2560.4,1843h18c-.3,20.6-3.4,52.1,4,66h-22v-66Z"/>
    <path class="st4" d="M-2536.4,1843c6.3.3,12.7.7,19,1-.3,15.7-.7,31.3-1,47h41v18c-23.4.5-46.5,1.6-59-8v-58Z"/>
    <path class="st4" d="M-2512.4,1843h30v24c3.6.6,3,.4,5,2-.3,5.7-.7,11.3-1,17-13.9,0-23.1,1.6-34,0v-43Z"/>
    <path class="st4" d="M-2347.4,1848h3v63l53,53c13,10.5,29.5,24.3,38,39h-5c-8-3.9-18.2-3.6-25,1-18.1-12.8-35.7-28.2-44-51-11.6-.9-17.9,2.2-16,12,21.8,8.9,38.5,24.9,53,41v2c-6.4,4.5-11.6,9.3-12,20-8.6-2.7-47.9-41.7-53-50,3.7-1.3,7.3-2.7,11-4-.3-.7-.7-1.3-1-2l-18-9c-.3-26.1-5.6-93,5-108,3.7-2.3,7.3-4.7,11-7Z"/>
    <path class="st4" d="M-2904.4,1858c5.3,4,3.2,77.8,3,92-5.7,5.7-11.3,11.3-17,17-.7-.3-1.3-.7-2-1,1.3-30.7,2.7-61.3,4-92,4-5.3,8-10.7,12-16Z"/>
    <path class="st4" d="M-2372.4,1869h3c-.3,28.3-.7,56.7-1,85-1-.7-2-1.3-3-2-14-34.4-11.2-49.9,1-83Z"/>
    <path class="st4" d="M-2928.4,1887c5.1,5.4,2.2,77.8,2,92-5.3,5.3-10.7,10.7-16,16-.7-.3-1.3-.7-2-1l3-90c4.3-5.7,8.7-11.3,13-17Z"/>
    <path class="st4" d="M-2950.4,2021v45c8.2,4.4,17.4,12.1,20,22-.3.3-.7.7-1,1-12.6.4-26,.8-33-4-9.5-33.5-12-159.1,14-170v92c-4.7,4.7-9.3,9.3-14,14h14Z"/>
    <path class="st4" d="M-3157.4,2121v-77c-32-31.3-64-62.7-96-94,.3-1.3.7-2.7,1-4,8.8-2.7,14.8-6.6,26-7,8.8,19.2,44,39,52,56,1.9,4.1-.5,6.3,2,9,5.9,2.3,10.2-1.4,14-4v-8c-.7-.7-1.3-1.3-2-2-4.3-.3-8.7-.7-13-1-4.4-14.4-35.6-38.6-47-49v-1c11,.3,22,.7,33,1,.9.4,49,47,49,47v123c-6,5.3-7.9,10.3-19,11Z"/>
    <path class="st4" d="M-2512.4,2121v-77c-32-31.3-64-62.7-96-94,.3-1.3.7-2.7,1-4,8.8-2.7,14.8-6.6,26-7,8.8,19.2,44,39,52,56,1.9,4.1-.5,6.3,2,9,5.9,2.3,10.2-1.4,14-4v-8l-2-2c-4.3-.3-8.7-.7-13-1-4.4-14.4-35.6-38.6-47-49v-1c11,.3,22,.7,33,1,6.7,3.2,43.6,40.9,49,48v122c-6,5.3-7.9,10.3-19,11Z"/>
    <path class="st4" d="M-3172.4,1943c24.1,3.9,50.8,27.4,58,48v82c-2.1,5.7-13,25.8-19,28v-119c-6.9-5-37.9-34.3-39-39Z"/>
    <path class="st4" d="M-2527.4,1943c24.1,3.9,50.8,27.4,58,48v82c-2.1,5.7-13,25.8-19,28v-119c-6.9-5-37.9-34.3-39-39Z"/>
    <path class="st4" d="M-2978.4,1944h3v138c1.6,3.5,3.9,2.5,4,7h-22v-3c5-1.5,4.1-1.9,4-8-2-7.2-3.6-107.1,0-118,3.7-5.3,7.3-10.7,11-16Z"/>
    <path class="st4" d="M-2686.4,2002c-3.3-.3-6.7-.7-10-1v-1c2.7-17.7,5.3-35.3,8-53h2v55Z"/>
    <path class="st4" d="M-2999.4,2089c-5-.3-10-.7-15-1-.6-45-4.4-88.7,13-116,.7.3,1.3.7,2,1v116Z"/>
    <path class="st4" d="M-2188.4,1976l18,12c.3,32,.7,64,1,96,2.8,5.1,8.3,5.9,12,10-7.3,8.7-14.7,17.3-22,26-.7-.3-1.3-.7-2-1,0-16.9-3.1-19.3-8-28,.3-38.3.7-76.7,1-115Z"/>
    <path class="st4" d="M-2364.4,1984c6.5.9,56.2,46.9,58,51v19c2.7,13.4,14,17.8,12,35v2c-4.3,19.6-23.9,24.9-30,46h-1c-5.7-2.7-11.3-5.3-17-8-.3-7.3-.7-14.7-1-22-17.8-11.3-36.5-29.4-49-46-.6-27.3,4.9-42.5,12-60,6.6,2.1,49,44.1,57,52,.5,18.4-3.6,20.8-9,31,2.3,4.5,3.5,5.7,8,8,1.7-.3,3.3-.7,5-1,1.7-2,3.3-4,5-6,.7-4.6-3-27.8-5-38-19.7-14.3-41.9-34.2-57-53,2-2.3,4-4.7,6-7l6-3Z"/>
    <path class="st4" d="M-3024.4,2088h-14c-.7-29.2-6.7-78.5,14-87v87Z"/>
    <path class="st4" d="M-2164.4,2001c2.3.3,4.7.7,7,1,3.9,25.4,18.5,40.2,7,73-2.2,6.3-.6,9.7-7,12-11.6-16.8-7.3-58.2-7-86Z"/>
    <path class="st4" d="M-3192.4,2019l30,30c.2,13.3,3,74.4-2,80-5.7,1.7-11.3,3.3-17,5v-77c-6.6-10.1-16.9-17.4-11-38Z"/>
    <path class="st4" d="M-2547.4,2019l30,30c.2,13.3,3,74.4-2,80-5.7,1.7-11.3,3.3-17,5v-77c-6.6-10.1-16.9-17.4-11-38Z"/>
    <path class="st4" d="M-2944.4,2021h18v33c5.5,15.2,27.7,19.4,33,35h-22c-21.7-13.9-29.6-30.8-29-68Z"/>
    <path class="st4" d="M-2920.4,2021h19v20c14.1.6,103.6-1.1,106,4,5,3.2,6.5,24.7,3,32-2.4,5-7.7,8-12,11h-8v53h-10c-.5-28.4-2.6-54.6,8-72-1-6.4-2.8-7-10-7-4.1,2.1-5.2,3.7-8,7,3.7,19.1,4,47.1,4,72h-19c.3-13.7.7-27.3,1-41-6.5-2.8-16.5-1.1-25-4-11.4-3.9-43.8-37.1-48-49-.3-8.7-.7-17.3-1-26Z"/>
    <path class="st4" d="M-2628.4,2047c1.7.3,3.3.7,5,1,.3,2,.7,4,1,6-3.9-1-3-.4-5-3-.3-1.3-.7-2.7-1-4Z"/>
    <path class="st4" d="M-3235.4,2142c-11.1.3-19.3-1.2-26-5,2.7-2.3,5.3-4.7,8-7-8.2-43.5-29.9-47.4-48-77,.3-.7.7-1.3,1-2h21c12.7,17.6,29.7,29.3,44,45v46Z"/>
    <path class="st4" d="M-2590.4,2142c-11.1.3-19.3-1.2-26-5,2.7-2.3,5.3-4.7,8-7-8.2-43.5-29.9-47.4-48-77,.3-.7.7-1.3,1-2h21c12.7,17.6,29.7,29.3,44,45v46Z"/>
    <path class="st4" d="M-3315.4,2055h3l45,45c.3,16.4-1.4,26.4-5,38-35.2-.5-77.1-45.8-81-79h9c9.7-1.3,19.3-2.7,29-4Z"/>
    <path class="st4" d="M-3192.4,2055c1.7,1.7,3.3,3.3,5,5-.3,26-.7,52-1,78-5.7-.3-11.3-.7-17-1-.6-38-.7-59.2,13-82Z"/>
    <path class="st4" d="M-2670.4,2055h3l45,45c.3,16.4-1.4,26.4-5,38-35.2-.5-77.1-45.8-81-79h9c9.7-1.3,19.3-2.7,29-4Z"/>
    <path class="st4" d="M-2547.4,2055l5,5c-.3,26-.7,52-1,78-5.7-.3-11.3-.7-17-1-.6-38-.7-59.2,13-82Z"/>
    <path class="st4" d="M-2860.4,2063l-9,6c.3,2.7.7,5.3,1,8,1,.3,2,.7,3,1,3.9,1.6,7.1.1,11-1,3-5.7,3.4-8.7,0-14h-6Z"/>
    <path class="st4" d="M-2387.4,2076c10.4,7.6,39,31.8,39,48-16.6-3.6-41.1-29.4-39-48Z"/>
    <path class="st4" d="M-2280.4,2141c1.2-15.6,12.3-15.1,17-25,3.7-7.9,0-17.1,0-28,6.3-2.3,12.7-4.7,19-7,.7,30.8,3.7,45.3-14,60h-22Z"/>
    <path class="st4" d="M-2269.4,2089c.4,7.7,1.9,23.8-2,28-6.8,9.1-15.7,12.3-27,17v7c-9.2,0-13.4-2.4-20-5v-9c11.6-8.6,23.8-19.8,32-32-.7-3.3-1.3-6.7-2-10,6.3,1.3,12.7,2.7,19,4Z"/>
    <path class="st4" d="M-3211.4,2088v54h-18v-50c6-1.3,12-2.7,18-4Z"/>
    <path class="st4" d="M-2566.4,2088v54h-18v-50c6-1.3,12-2.7,18-4Z"/>
    <path class="st4" d="M-2853.4,2142h-14c-4.5-10.9-13.7-16-20-25v-22c13,4.3,13.4,8.6,31,8,3.4,9.3,3.2,25.3,3,39Z"/>
    <path class="st4" d="M-2887.4,2142v-10c6.2,1.4,10.1,5.1,10,10h-10Z"/>
    <path class="st4" d="M-1502.4,2502c9-.2,12,1.7,17,5,4.9,14.2-.2,27.4-19,23-5.2-3.7-7.9-6.9-8-16,.7-2,1.3-4,2-6,2.7-2,5.3-4,8-6Z"/>
    <path class="st4" d="M1443,0c129.5-.9,260.9-2.9,370,19l51,6c96.7,21.8,188.6,49.1,273,82,48.6,18.9,97.7,32.1,144,52,32.2,13.9,63.2,37.5,92,55,17.6,10.7,37,15.4,54,26,46,28.7,85.2,66.2,127,99,29.3,24.7,58.7,49.3,88,74,21.1,16.7,45.2,34.2,62,55,58.2,72.3,113.9,142.2,163,225,63.4,106.9,100.5,236.5,126,381,20,113.4,5.6,248.4-29,329-87.8,204.5-258.8,323.1-434,440-94,62.7-197.1,117.3-266,205-54,68.7-148.7,221.6-109,354,12.1,40.5,31.3,54.2,49,84-1.3,2.7-2.7,5.3-4,8-2.3-.3-4.7-.7-7-1-42.4-20.4-71.7-130.4-58-201,28.1-145.3,98.5-230.2,177-323,26.1-30.9,64.7-54.2,98-78,23.3-18.3,46.7-36.7,70-55,35.7-28.7,71.3-57.3,107-86l51-54c57.9-46.8,112.7-105,153-169,26.5-42,48.3-89.6,62-144,22.9-91,11.9-219.6-7-305-15.4-69.3-28.9-133.8-54-193-9.1-21.3-22-41.3-32-61-28.1-55.4-49.2-108-83-156-35-49.6-76.1-94.6-114-142-62.8-78.5-155.2-133.4-244-186-95.6-56.7-203-110.6-318-145-93.3-27.9-195.4-33.1-298-52-61.5-11.3-131.8-15-205-15-24.7.3-49.3.7-74,1-42.7,6.9-86.1-.5-126,6-78.9,12.9-156.8,7-232,22-33.7,6.3-67.3,12.7-101,19-63,17.5-126.3,38.1-186,57-104.5,33-201.6,64.4-286,117-20.3,12.6-36.4,29.7-55,43-39.9,28.5-82.1,52.8-111,92-45.2,61.3-75.1,137.8-98,222-2.3,18.7-4.7,37.3-7,56-6.1,33.6-18.7,88.8-12,130,14.6,89.6,26.6,179.8,46,266,.3,15,.7,30,1,45,7.1,44.3,3.8,91,12,131-20.6,2.2-28.7-33.7-33-51-12.9-52.5-37.2-94.2-55-145-26.1-74.6-48.3-143.8-65-228-38.3-192.7,35.3-379.4,107-493,12.4-19.7,35.9-38.6,54-53,40.7-32.4,78.5-65.4,123-95,37-24.6,74.4-51,114-73,26-10.7,52-21.3,78-32,83.5-36.5,170.8-71.3,266-98,59.5-16.7,124-23,188-35,65-7.3,130-14.7,195-22,24.3-1.7,48.7-3.3,73-5,43-1.7,86-3.3,129-5Z"/>
    <path class="st4" d="M1353,224c212.1-2,402.3,14.4,568,60,57,15.7,151.5,38.5,182,77l15-15c16.7-7.7,29.7-18,52-22,97.7-17.5,144.8,102.3,92,170-68.9,88.3-219.7,10-170-116-11.3-7.7-22.7-15.3-34-23-26.3-15.7-58.7-27.2-90-37-349.2-109.8-906.1-96.1-1201,48,52.9,82.8-27.2,198.8-128,157-33.3-13.8-56.9-42.8-65-82-13.5-65.6,51.1-134.7,119-122,24.2,4.5,39.9,14,56,26,1.7,1.3,3.3,2.7,5,4,12.7-6.3,25.3-12.7,38-19,26.7-10.3,53.3-20.7,80-31,67.3-26.4,143.9-37,221-53,54.4-11.3,112.8-7.9,170-18,30-1.3,60-2.7,90-4Z"/>
    <path class="st4" d="M1095,752c17,.3,34,.7,51,1,1.7,2.7,3.3,5.3,5,8-2.5,18.1-36,12.8-56,12v248h197c23.4,0,64.3-5.4,79,3,1.4,5.3,2.8,12.8,1,19h-224c-16.1,0-67.5,3.4-73-5-5.9-9-2-56.8-2-72v-193c-12.8.5-33.8,2.7-39-5-.7-3-1.3-6-2-9,1.3-2,2.7-4,4-6,12.3-.3,24.7-.7,37-1,.3-78.3.7-156.7,1-235,2.9-3.7,5.3-5,10-7,5.1,2,7.7,3.1,10,8,.3,78,.7,156,1,234Z"/>
    <path class="st4" d="M1407,510c2,.3,4,.7,6,1,4.2,1.7,5.2,2.9,7,7,.3,44.7.7,89.3,1,134v190c0,27.9,3.8,63.7-2,88-6.5,4.6-9.2,5-17,2-10-22.3-3-88.7-3-119,.3-99.3.7-198.7,1-298,2.3-1.7,4.7-3.3,7-5Z"/>
    <path class="st4" d="M1568,535c2.7.3,5.3.7,8,1,16.5,18.5,24.1,46,37,68,16.7,31.3,33.3,62.7,50,94,.3-.7.7-1.3,1-2,24.7-42.3,49.3-84.7,74-127,6.5-10.9,10.2-23.5,19-32,2.3.3,4.7.7,7,1l6,6c.3,96.7.7,193.3,1,290,0,23.7,5.2,80.3-4,95-3,.7-6,1.3-9,2-2.3-2.3-4.7-4.7-7-7-.7-111-1.3-222-2-333v2c-24.3,42.3-48.7,84.7-73,127,44.4,13.2,35,98.8-24,86-26.5-5.8-47.8-40.2-29-69,6.3-9.7,16.3-13.5,27-19-22.7-43-45.3-86-68-129h-1c-.3,112.3-.7,224.7-1,337-2,1.3-4,2.7-6,4h-8c-10.8-8.8-6-74.3-6-96,.3-98,.7-196,1-294,2.3-1.7,4.7-3.3,7-5Z"/>
    <path class="st4" d="M2237,541c2.3.3,4.7.7,7,1l6,6v367c-6.6,5.2-11.4,5.9-19,1-2.4-9.2-3.1-26.4-1-37h-1c-21.3,66.7-124.3,48.1-135-27-6.2-43.6,44.8-86.1,91-72,23.3,7.1,30.5,22.7,45,38-.3-69.7-.7-139.3-1-209,0-22.6-5-57.7,8-68Z"/>
    <path class="st4" d="M360,558c30.7-.6,46.5,14.4,55,36,66.7,3.3,133.3,6.7,200,10,11.2,3.1,22.7,11.7,29,20,49.6,66,65.5,246-7,300-48.7,36.3-145.7,27.4-215,17-14.3,56.8-111.1,42-101-19,10.1-60.9,90.3-62.6,103-3,61.4,18.6,178.3,19.2,211-23,47.3-61.2,33.8-205.3-9-260-12.3-15.7-35-9.2-60-13-49.7-2.3-99.3-4.7-149-7-3.3,38-51.8,59-84,34-21-16.4-25-59.4-3-78,8.8-7.4,18.1-9.1,30-14Z"/>
    <path class="st4" d="M434,653c22.2,1.1,15,31.2,15,53v115c0,18.8,1.9,42.5-2,58-1.7,1.3-3.3,2.7-5,4-2.7-.3-5.3-.7-8-1l-6-6c-.3-56.3-.7-112.7-1-169,0-20-3.1-44,7-54Z"/>
    <path class="st4" d="M2492,1035c-.4-61.5,88.7-63.4,101-8,8.3,37.3-28.3,72.4-67,59-16.8-5.8-21.2-18.6-32-30h-315c-52.7,0-109.6,3.9-130-29-27.6-44.5-9.1-128.5-19-190-5.2-32.1,8.6-68.9-18-79-32.2-12.5-70.8,73.2-92,86,5.5,20,3.6,63.4-1,82-2.7,1.7-5.3,3.3-8,5-17.3-2.8-12-25.1-12-44,.3-46,.7-92,1-138,6.6-5.2,11.4-5.9,19-1,3.7,15.9,4.3,46.5,1,64,.7-.3,1.3-.7,2-1,11-27.1,67.3-99.3,109-68,46.4,34.9,2.4,220.9,37,274,17.4,26.8,73.3,10.9,112,17,104,.3,208,.7,312,1Z"/>
    <path class="st4" d="M733,736c2.3.7,4.7,1.3,7,2,6.3,9.9,4,32,4,48,0,33.8,6.4,102.8-2,130-3.7,1-7.3,2-11,3-3.2-1.6-4.2-1.8-6-5-5.5-9.1-2-33.9-2-47,.3-42,.7-84,1-126,3-1.7,6-3.3,9-5Z"/>
    <path class="st4" d="M2361,741c33.1-.9,57.3,7.4,73,24-.3,2.7-.7,5.3-1,8-2.3,5-5.3,6.5-12,7-10.8-8.1-24.1-14.1-40-17-26.5-4.8-76.2,15.2-67,38,11.2,22,46.1,6.9,74,12,31.3,5.8,60.4,33.9,47,76-19.4,61-151.1,68-129-13,5.1-4.1,13.6-8.3,18,0,9.2,13-7.9,26,17,36,39.4,15.8,89-17.2,72-58-13.9-33.4-77.7-9.1-106-28-7.9-5.3-12.4-13.1-15-24-10-42.1,42.1-49.7,69-61Z"/>
    <path class="st4" d="M1841,744c7,0,9.4.9,12,5,5.4,9,2,33.1,2,46-.3,41.3-.7,82.7-1,124-5.8,3.9-16.5,7.7-20-2v-46c0-34.2-7.2-95.5,2-124,1.7-1,3.3-2,5-3Z"/>
    <path class="st4" d="M981,776c4,.7,8,1.3,12,2,9.3,20.1,3,81.2,3,109s2.7,30.1-5,35c-2.4,1.6-3.6,1.8-8,2-2.7-2-5.3-4-8-6-5.6-15.7,1.3-137.2,6-142Z"/>
    <path class="st4" d="M846,778c29.8-.8,43,8.8,59,21-2-6.6,0-12,2-17,3.5-1.8,7.3-4,12-2l6,6c.3,67.3.7,134.7,1,202,0,16.4,4.9,56.2-4,62-37.3.3-74.7.7-112,1h-266c-39.5,0-94.2-6.3-124,6-89.3,36.9-19.7,267.9-52,368-18.8,58.2-68.3,94-112,128-53.6,41.7-103.9,88.9-157,131-21.8,17.3-93.7,59.7-83,103,9.8,39.9,119.6,21.6,165,30,28.1,5.2,55.5,11.3,68,32,8.8,14.5,7.8,126.2,3,152-1.7,1.3-3.3,2.7-5,4-1.7-.3-3.3-.7-5-1-2-1.7-4-3.3-6-5v-139c-3.5-9.2-16.7-16.7-26-20-57.8-20.4-195.4,13.8-210-49-12.6-54.4,63.1-101.1,90-122,54-44.7,108-89.3,162-134,41.3-32.2,85-64.8,102-121,6.8-22.5,4-49.5,4-77v-152c0-31.3-2.2-65.5,6-89,7.2-20.5,21.5-38.6,39-49,32.8-19.5,102.2-12,153-12h349v-136c-10.5,8-20.8,16.6-36,20-58.4,13-102.7-46.8-80-99,11.2-25.8,30.5-30.7,57-42Z"/>
    <path class="st4" d="M1251,793c17.5.7,40.2,13.7,46,7h1c6.4.4,6.4,1.5,10,4,14.7,29.7,29.3,59.3,44,89,4.3,8,17.8,22.8,15,33-1.7,2-3.3,4-5,6-1.7-.3-3.3-.7-5-1-8.1-4.5-28.5-45.2-32-56h-1c-2,55.6-87.2,81.2-122,38-29.5-36.5-20.5-87.9,16-110,9.8-5.9,20.9-5.4,33-10Z"/>
    <path class="st4" d="M2162,794c-23.4,8.9-39.1,12.3-48,35-15.3,38.9,17.7,81.6,59,74,64.9-12,61.4-108.4-11-109Z"/>
    <path class="st4" d="M844,795c-19.3,9.5-35.3,15.4-42,37-12.9,41.4,23.4,82.2,67,70,56.2-15.8,50.4-109.1-25-107Z"/>
    <path class="st4" d="M1247,810c-21.5,9.5-37.8,14.7-45,38-11.5,37.4,19.6,77.8,58,71,67.9-12,65-111-13-109Z"/>
    <path class="st4" d="M1980,847c46-1.9,51.3,50.5,17,64v234c154.7,179,309.3,358,464,537,35.1-13.1,56.9,36.2,32,56-21.5,17.1-50.6,3.1-55-21-1.7-9.6,3.2-16.1,5-23-155.7-180-311.3-360-467-540-.7-81.3-1.3-162.7-2-244-28-23-24.6-45.5,6-63Z"/>
    <path class="st4" d="M2543,901c99.4-1.4,174.9,94,132,194-21.5,50-87.1,105-164,75-28.9-11.3-43-30.6-63-50h-138c-21.9,0-49.5,2.4-68-2-1.7-2.7-3.3-5.3-5-8,1.3-3.3,2.7-6.7,4-10,14.2-3.8,36.5-2,54-2h110c18.2,0,47.4-3.6,59,4,8.8,37.1,79.8,66,128,47,41.5-16.3,64-50.7,72-101,3.6-22.6-4.9-43.9-11-58-32.3-74.9-139.9-93.8-187-19h-25v-1c.7-.7,1.3-1.3,2-2,9.4-26.2,40.3-48.9,66-59,11.3-2.7,22.7-5.3,34-8Z"/>
    <path class="st4" d="M729,938c62-.6,65.7,81.7,11,92-32.3,6.1-61.3-26-51-59,6.4-20.5,20.5-25,40-33Z"/>
    <path class="st4" d="M982,942c61-.8,63.6,81.1,7,90-28.8,4.5-55.4-26.4-47-56,6.1-21.6,19.9-25.9,40-34Z"/>
    <path class="st4" d="M1842,943c66.1-.6,70.5,90.7,13,102-37.5,7.4-69.5-27-59-64,6.9-24.2,23.2-29.1,46-38Z"/>
    <path class="st4" d="M2132,1121c30-.5,45.1,12.8,51,36,4.1,16.1-9.9,27.3-3,34,92.7,114.3,185.3,228.7,278,343l66,81c9.1,11.7,27.6,24,30,41l-3,6c-3.3,1-6.7,2-10,3-13.2-7.1-21.1-22.5-30-34-25-30.7-50-61.3-75-92-91.3-112-182.7-224-274-336-9.8,2.1-21.1,7.8-34,4-29.9-8.8-44.5-55.6-16-77,6.7-3,13.3-6,20-9Z"/>
    <path class="st4" d="M2272,1159c2.7.3,5.3.7,8,1,87.7,105,175.3,210,263,315,15.6,19.9,86.1,90.7,89,111-1.3,2.3-2.7,4.7-4,7-3,.7-6,1.3-9,2-21.1-11.3-67-76.3-84-98-63.7-76.3-127.3-152.7-191-229-20.3-24.3-40.7-48.7-61-73-5.4-6.9-20.2-16.5-18-27,1.5-5.6,3.4-5.9,7-9Z"/>
    <path class="st4" d="M2472,1236c17.2,4.9,41.9,44.6,53,59,41.7,50.7,83.3,101.3,125,152,37.9-9.2,58.4,39.3,29,59-31.1,20.8-61.4-16.4-46-46-43.3-53.3-86.7-106.7-130-160-9.2-11.8-42.1-41.2-40-57,3-2.3,6-4.7,9-7Z"/>
    <path class="st4" d="M2581,1236c16.1,6.3,24.3,25.1,34,38,25.3,32.7,50.7,65.3,76,98,10.4,13.7,32,29.7,35,49-2.7,3-5.3,6-8,9-2.7-.3-5.3-.7-8-1-35.3-45.3-70.7-90.7-106-136-9.9-13.2-32-29-33-49,1.3-2,2.7-4,4-6,2-.7,4-1.3,6-2Z"/>
    <path class="st4" d="M2680,1238c2.7.3,5.3.7,8,1,9.9,4.9,15.5,17.5,22,26,19.3,24,38.7,48,58,72,.4,10.7-3.2,14.6-13,15-12-9.2-80.5-92.6-82-106,2.3-2.7,4.7-5.3,7-8Z"/>
    <path class="st4" d="M2767,1254c7.3,0,10.3,1.3,15,3,2.2,3.8,5.5,8.4,4,13-.7,5.9-2.5,7.3-5,11-4,1.3-10.2,3.2-15,1-6.5-2.8-9.2-7.4-9-17,2.8-5.6,5.5-7.3,10-11Z"/>
    <path class="st4" d="M1630,1275c17,2.1,31.9,26.7,41,38,27.3,29.3,54.7,58.7,82,88l366,393c34.3,36.7,68.7,73.3,103,110,7.6,7.8,35.5,28.2,31,42-2,2.3-4,4.7-6,7-18.6-1.1-32.6-25.4-42-37-36.3-39-72.7-78-109-117-112.7-121-225.3-242-338-363-31.7-34-63.3-68-95-102-12.7-15.7-33.4-27.7-42-47,.3-1.7.7-3.3,1-5,2.7-2.3,5.3-4.7,8-7Z"/>
    <path class="st4" d="M2133,1430c27.4-1.2,44.6,20.4,32,45,62.3,71.7,124.7,143.3,187,215,13.5,16.9,62.6,58.3,65,79-2,4.1-2.9,6-7,8-2,.3-4,.7-6,1-20.3-10.9-61.9-66.9-78-87-59.3-67.7-118.7-135.3-178-203-38.8,12-51.6-37.8-15-58Z"/>
    <path class="st4" d="M2031,1450c2.3.3,4.7.7,7,1,80,91.3,160,182.7,240,274,18.7,21.3,37.3,42.7,56,64,5.6,6.9,21.7,14.9,17,28l-6,6c-2,.3-4,.7-6,1-31.2-24.1-68.7-74.3-94-106-74-84.3-148-168.7-222-253,.3-2.7.7-5.3,1-8l7-7Z"/>
    <path class="st4" d="M1908,1451c15.3,3.2,83,83.9,96,100,87.3,96,174.7,192,262,288,32.9-4.7,59.1,28.8,32,51-27.9,22.9-54.2-7.1-47-37-90.7-99.7-181.3-199.3-272-299-26.7-29.3-53.3-58.7-80-88-1.8-6.1,2.3-10.1,4-13,1.7-.7,3.3-1.3,5-2Z"/>
    <path class="st4" d="M1461,1488c19.9.7,32,24,43,35,34,34.3,68,68.7,102,103l366,372c29.7,30,59.3,60,89,90,10.1,10.1,31,22.2,33,39-29.1,38.8-70.6,158.7-58,234,7.5,44.6,16.2,81.8,35,114,5.1,8.8,12.7,20,1,26-18-8.9-27-44.9-34-65-26.6-75.8-17-179.5,10-249,8-19.3,16-38.7,24-58l-360-366c-69.7-70.7-139.3-141.3-209-212-15.7-17.7-35.3-31.3-49-51,1.1-6.7,3.2-8.4,7-12Z"/>
    <path class="st4" d="M2688,1502c10.8,1.2,16.4,6.5,16,19-4.8,10.6-13.3,12.7-25,8-1.7-3.3-3.3-6.7-5-10,1.1-11.4,5.8-12.8,14-17Z"/>
    <path class="st4" d="M1742,1675c16,1.3,23.1,17.1,32,26,25.7,26.3,51.3,52.7,77,79,98.7,100.7,197.3,201.3,296,302,.4,10.7-3.2,14.6-13,15-32.9-25.1-62.6-60.1-90-91-72.3-73.7-144.7-147.3-217-221-24-24.7-48-49.3-72-74-6.4-6.4-24.1-16.4-20-29l7-7Z"/>
    <path class="st4" d="M1869,1677c16,1.7,63.1,58.5,74,72l174,183c13.3,14,26.7,28,40,42,4.3-.3,8.7-.7,13-1,12.3,2.5,22.3,12,25,24,11.2,50.6-79.7,40.1-55-10-93-98.3-186-196.7-279-295,.3-2.7.7-5.3,1-8l7-7Z"/>
    <path class="st4" d="M1277,1831c3,.3,6,.7,9,1-.2,21.1,2.3,43.5,4,59-10,3.5-6.8,12.9-15,17-1.3-7.7-6.3-10.5-8-16v-57c3.3-1.3,6.7-2.7,10-4Z"/>
    <path class="st4" d="M1292,1831h19c-.5,58.9,48.3,71.5,74,105,.3,53.7.7,107.3,1,161,2.7,1.7,5.3,3.3,8,5v22c-8.3,4.1-15.3,8.1-27,9l-1-1c0-45.2.8-94,2-136l-47-47c6-4.7,12-9.3,18-14,3,2.7,6,5.3,9,8-.6,9.8,2,13.8,10,15,4.9-4.4,7.8-5.5,8-15-8.7-3.4-15.4-12.2-24-14,1-50.8-16-37.3-50-50v-48Z"/>
    <path class="st4" d="M1317,1831c6.3.3,12.7.7,19,1-.3,21.3,37.3,66.8,51,70,7.3,1.7,15-1.1,22,1,.3.7.7,1.3,1,2v50c-6.7,5.4-9,12.7-19,15,.3-10.8,3.4-31.1,0-36-9.5-19.7-56.7-57.8-74-76v-27Z"/>
    <path class="st4" d="M1342,1831c16,3,45.7,11.6,56,22-1.1,8-5.2,11.8-5,19l2,2c5,1.6,7.4,2.2,12,0,.7-1.7,1.3-3.3,2-5,1,.7,2,1.3,3,2,4,9.4,23.7,56.7,4,66,.3-13,.7-26,1-39-.7-1.3-1.3-2.7-2-4-8,.7-16,1.3-24,2-16.3-17-32.7-34-49-51v-14Z"/>
    <path class="st4" d="M1259,1835c9.7,13.9-3.4,45.9,2,64,2.5,8.4,11.8,11,16,17,1.7,6.7,3.3,13.3,5,20,7.3,11,16.3,5.7,29,12,1.3.6,46.7,45.9,48,48,4.6,7.2,2,26.2,2,37-.3,34.7-.7,69.3-1,104-8.7,1.3-17.3,2.7-26,4,3.3-5.7,6.7-11.3,10-17,2.1-10.4-2.1-32.1-2-46,0-14.2,5.9-18.5,8-29,2.6-13.1-6-19.9-8-28-1.9-7.6,3.8-9.6,0-16l-15-12c-17.3-17.1-79.9-71.3-85-92v-58c5.7-2.7,11.3-5.3,17-8Z"/>
    <path class="st4" d="M752,1980h16v31c-14.3.3-28.7.7-43,1-2-12.4-8.1-50.2-4-61,1.9-5,5.5-4.5,6-14-1-.7-2-1.3-3-2-2-.7-4-1.3-6-2-1.3,1.3-2.7,2.7-4,4,0,0,.8,67.2,1,80,34.4,0,57.3,4,90,4v67h-18c4.1-12.3,15-35.4,6-51-30.9-6.7-77.5,5.2-105-2-1.7-4.6-2.9-6.8-3-14h8v-89c-2.7,1.7-5.3,3.3-8,5v-7c7.1-27,0-68.6,8-93,6.3.3,12.7.7,19,1v58c13.3,13.3,26.7,26.7,40,40v44Z"/>
    <path class="st4" d="M717,1838c6.3.3,12.7.7,19,1-.8,35.2,8.6,53.5,32,63v72c-5.3-.3-4.8.2-7-3-5.1-9.1.9-30.8-5-40-10.1-15.8-36.1-21.2-41-42,.7-17,1.3-34,2-51Z"/>
    <path class="st4" d="M742,1838c7.7.3,15.3.7,23,1,.2,17.9,8.2,38.5,2,54-5.3-5.3-10.7-10.7-16-16-3-2.3-6-4.7-9-7v-32Z"/>
    <path class="st4" d="M274,1843c-.3,54.3-.7,108.7-1,163h-18c-.4-56.9.9-117,8-163h11Z"/>
    <path class="st4" d="M279,1843h19v122c9.1,6.7,27.4,21.7,31,33h-1c-9.3.4-8.6,6.6-15,8-4.2.9-7.1-6.5-14-2-.3.3-.7.7-1,1-.6,3.6-.4,3-2,5-5.7-1.3-11.3-2.7-17-4v-163Z"/>
    <path class="st4" d="M303,1843c6.3.3,12.7.7,19,1-.1,18.4-3.6,105.2,0,111,6.4,10.1,27.3,21.7,36,33-12,7.1-23.7,3.9-30-1-8.3-8.7-16.7-17.3-25-26v-118Z"/>
    <path class="st4" d="M327,1843h18v66h-18v-66Z"/>
    <path class="st4" d="M351,1843h18v66h-18v-66Z"/>
    <path class="st4" d="M375,1843h18c-.3,20.6-3.4,52.1,4,66h-22v-66Z"/>
    <path class="st4" d="M399,1843c6.3.3,12.7.7,19,1-.3,15.7-.7,31.3-1,47h41v18c-23.4.5-46.5,1.6-59-8v-58Z"/>
    <path class="st4" d="M423,1843h30v24c3.6.6,3,.4,5,2-.3,5.7-.7,11.3-1,17-13.9,0-23.1,1.6-34,0v-43Z"/>
    <path class="st4" d="M919,1843c-.3,54.3-.7,108.7-1,163h-18c-.4-56.9.9-117,8-163h11Z"/>
    <path class="st4" d="M924,1843h19v122c9.1,6.7,27.4,21.7,31,33h-1c-9.3.4-8.6,6.6-15,8-4.2.9-7.1-6.5-14-2-.3.3-.7.7-1,1-.6,3.6-.4,3-2,5-5.7-1.3-11.3-2.7-17-4v-163Z"/>
    <path class="st4" d="M948,1843c6.3.3,12.7.7,19,1,0,18.4-3.6,105.2,0,111,6.4,10.1,27.3,21.7,36,33-12,7.1-23.7,3.9-30-1-8.3-8.7-16.7-17.3-25-26v-118Z"/>
    <path class="st4" d="M972,1843h18v66h-18v-66Z"/>
    <path class="st4" d="M996,1843h18v66h-18v-66Z"/>
    <path class="st4" d="M1020,1843h18c-.3,20.6-3.4,52.1,4,66h-22v-66Z"/>
    <path class="st4" d="M1044,1843c6.3.3,12.7.7,19,1-.3,15.7-.7,31.3-1,47h41v18c-23.4.5-46.5,1.6-59-8v-58Z"/>
    <path class="st4" d="M1068,1843h30v24c3.6.6,3,.4,5,2-.3,5.7-.7,11.3-1,17-13.9,0-23.1,1.6-34,0v-43Z"/>
    <path class="st4" d="M1233,1848h3v63l53,53c13,10.5,29.5,24.3,38,39h-5c-8-3.9-18.2-3.6-25,1-18.1-12.8-35.7-28.2-44-51-11.6-.9-17.9,2.2-16,12,21.8,8.9,38.5,24.9,53,41v2c-6.4,4.5-11.6,9.3-12,20-8.6-2.7-47.9-41.7-53-50,3.7-1.3,7.3-2.7,11-4-.3-.7-.7-1.3-1-2l-18-9c-.3-26.1-5.6-93,5-108,3.7-2.3,7.3-4.7,11-7Z"/>
    <path class="st4" d="M676,1858c5.3,4,3.2,77.8,3,92-5.7,5.7-11.3,11.3-17,17-.7-.3-1.3-.7-2-1,1.3-30.7,2.7-61.3,4-92,4-5.3,8-10.7,12-16Z"/>
    <path class="st4" d="M1208,1869h3c-.3,28.3-.7,56.7-1,85-1-.7-2-1.3-3-2-14-34.4-11.2-49.9,1-83Z"/>
    <path class="st4" d="M652,1887c5.1,5.4,2.2,77.8,2,92-5.3,5.3-10.7,10.7-16,16-.7-.3-1.3-.7-2-1l3-90c4.3-5.7,8.7-11.3,13-17Z"/>
    <path class="st4" d="M630,2021v45c8.2,4.4,17.4,12.1,20,22-.3.3-.7.7-1,1-12.6.4-26,.8-33-4-9.5-33.5-12-159.1,14-170v92c-4.7,4.7-9.3,9.3-14,14h14Z"/>
    <path class="st4" d="M423,2121v-77c-32-31.3-64-62.7-96-94,.3-1.3.7-2.7,1-4,8.8-2.7,14.8-6.6,26-7,8.8,19.2,44,39,52,56,1.9,4.1-.5,6.3,2,9,5.9,2.3,10.2-1.4,14-4v-8c-.7-.7-1.3-1.3-2-2-4.3-.3-8.7-.7-13-1-4.4-14.4-35.6-38.6-47-49v-1c11,.3,22,.7,33,1,.9.4,49,47,49,47v123c-6,5.3-7.9,10.3-19,11Z"/>
    <path class="st4" d="M1068,2121v-77c-32-31.3-64-62.7-96-94,.3-1.3.7-2.7,1-4,8.8-2.7,14.8-6.6,26-7,8.8,19.2,44,39,52,56,1.9,4.1-.5,6.3,2,9,5.9,2.3,10.2-1.4,14-4v-8l-2-2c-4.3-.3-8.7-.7-13-1-4.4-14.4-35.6-38.6-47-49v-1c11,.3,22,.7,33,1,6.7,3.2,43.6,40.9,49,48v122c-6,5.3-7.9,10.3-19,11Z"/>
    <path class="st4" d="M408,1943c24.1,3.9,50.8,27.4,58,48v82c-2.1,5.7-13,25.8-19,28v-119c-6.9-5-37.9-34.3-39-39Z"/>
    <path class="st4" d="M1053,1943c24.1,3.9,50.8,27.4,58,48v82c-2.1,5.7-13,25.8-19,28v-119c-6.9-5-37.9-34.3-39-39Z"/>
    <path class="st4" d="M602,1944h3v138c1.6,3.5,3.9,2.5,4,7h-22v-3c5-1.5,4.1-1.9,4-8-2-7.2-3.6-107.1,0-118,3.7-5.3,7.3-10.7,11-16Z"/>
    <path class="st4" d="M894,2002c-3.3-.3-6.7-.7-10-1v-1c2.7-17.7,5.3-35.3,8-53h2v55Z"/>
    <path class="st4" d="M581,2089c-5-.3-10-.7-15-1-.6-45-4.4-88.7,13-116,.7.3,1.3.7,2,1v116Z"/>
    <path class="st4" d="M1392,1976l18,12c.3,32,.7,64,1,96,2.8,5.1,8.3,5.9,12,10-7.3,8.7-14.7,17.3-22,26-.7-.3-1.3-.7-2-1,0-16.9-3.1-19.3-8-28,.3-38.3.7-76.7,1-115Z"/>
    <path class="st4" d="M1216,1984c6.5.9,56.2,46.9,58,51v19c2.7,13.4,14,17.8,12,35v2c-4.3,19.6-23.9,24.9-30,46h-1c-5.7-2.7-11.3-5.3-17-8-.3-7.3-.7-14.7-1-22-17.8-11.3-36.5-29.4-49-46-.6-27.3,4.9-42.5,12-60,6.6,2.1,49,44.1,57,52,.5,18.4-3.6,20.8-9,31,2.3,4.5,3.5,5.7,8,8,1.7-.3,3.3-.7,5-1,1.7-2,3.3-4,5-6,.7-4.6-3-27.8-5-38-19.7-14.3-41.9-34.2-57-53,2-2.3,4-4.7,6-7l6-3Z"/>
    <path class="st4" d="M556,2088h-14c-.7-29.2-6.7-78.5,14-87v87Z"/>
    <path class="st4" d="M1416,2001c2.3.3,4.7.7,7,1,3.9,25.4,18.5,40.2,7,73-2.2,6.3-.6,9.7-7,12-11.6-16.8-7.3-58.2-7-86Z"/>
    <path class="st4" d="M388,2019l30,30c.2,13.3,3,74.4-2,80-5.7,1.7-11.3,3.3-17,5v-77c-6.6-10.1-16.9-17.4-11-38Z"/>
    <path class="st4" d="M1033,2019l30,30c.2,13.3,3,74.4-2,80-5.7,1.7-11.3,3.3-17,5v-77c-6.6-10.1-16.9-17.4-11-38Z"/>
    <path class="st4" d="M636,2021h18v33c5.5,15.2,27.7,19.4,33,35h-22c-21.7-13.9-29.6-30.8-29-68Z"/>
    <path class="st4" d="M660,2021h19v20c14.1.6,103.6-1.1,106,4,5,3.2,6.5,24.7,3,32-2.4,5-7.7,8-12,11h-8v53h-10c-.5-28.4-2.6-54.6,8-72-1-6.4-2.8-7-10-7-4.1,2.1-5.2,3.7-8,7,3.7,19.1,4,47.1,4,72h-19c.3-13.7.7-27.3,1-41-6.5-2.8-16.5-1.1-25-4-11.4-3.9-43.8-37.1-48-49-.3-8.7-.7-17.3-1-26Z"/>
    <path class="st4" d="M952,2047c1.7.3,3.3.7,5,1,.3,2,.7,4,1,6-3.9-1-3-.4-5-3-.3-1.3-.7-2.7-1-4Z"/>
    <path class="st4" d="M345,2142c-11.1.3-19.3-1.2-26-5,2.7-2.3,5.3-4.7,8-7-8.2-43.5-29.9-47.4-48-77,.3-.7.7-1.3,1-2h21c12.7,17.6,29.7,29.3,44,45v46Z"/>
    <path class="st4" d="M990,2142c-11.1.3-19.3-1.2-26-5,2.7-2.3,5.3-4.7,8-7-8.2-43.5-29.9-47.4-48-77,.3-.7.7-1.3,1-2h21c12.7,17.6,29.7,29.3,44,45v46Z"/>
    <path class="st4" d="M265,2055h3l45,45c.3,16.4-1.4,26.4-5,38-35.2-.5-77.1-45.8-81-79h9c9.7-1.3,19.3-2.7,29-4Z"/>
    <path class="st4" d="M388,2055c1.7,1.7,3.3,3.3,5,5-.3,26-.7,52-1,78-5.7-.3-11.3-.7-17-1-.6-38-.7-59.2,13-82Z"/>
    <path class="st4" d="M910,2055h3l45,45c.3,16.4-1.4,26.4-5,38-35.2-.5-77.1-45.8-81-79h9c9.7-1.3,19.3-2.7,29-4Z"/>
    <path class="st4" d="M1033,2055l5,5c-.3,26-.7,52-1,78-5.7-.3-11.3-.7-17-1-.6-38-.7-59.2,13-82Z"/>
    <path class="st4" d="M720,2063l-9,6c.3,2.7.7,5.3,1,8,1,.3,2,.7,3,1,3.9,1.6,7.1.1,11-1,3-5.7,3.4-8.7,0-14h-6Z"/>
    <path class="st4" d="M1193,2076c10.4,7.6,39,31.8,39,48-16.6-3.6-41.1-29.4-39-48Z"/>
    <path class="st4" d="M1300,2141c1.2-15.6,12.3-15.1,17-25,3.7-7.9,0-17.1,0-28,6.3-2.3,12.7-4.7,19-7,.7,30.8,3.7,45.3-14,60h-22Z"/>
    <path class="st4" d="M1311,2089c.4,7.7,1.9,23.8-2,28-6.8,9.1-15.7,12.3-27,17v7c-9.2,0-13.4-2.4-20-5v-9c11.6-8.6,23.8-19.8,32-32-.7-3.3-1.3-6.7-2-10,6.3,1.3,12.7,2.7,19,4Z"/>
    <path class="st4" d="M369,2088v54h-18v-50c6-1.3,12-2.7,18-4Z"/>
    <path class="st4" d="M1014,2088v54h-18v-50c6-1.3,12-2.7,18-4Z"/>
    <path class="st4" d="M727,2142h-14c-4.5-10.9-13.7-16-20-25v-22c13,4.3,13.4,8.6,31,8,3.4,9.3,3.2,25.3,3,39Z"/>
    <path class="st4" d="M693,2142v-10c6.2,1.4,10.1,5.1,10,10h-10Z"/>
    <path class="st4" d="M2078,2502c9-.2,12,1.7,17,5,4.9,14.2-.2,27.4-19,23-5.2-3.7-7.9-6.9-8-16,.7-2,1.3-4,2-6,2.7-2,5.3-4,8-6Z"/>
  </g>
  <g id="Layer_2">
    <circle class="st6" cx="537" cy="1188.6" r="100.8"/>
    <circle class="st6" cx="673" cy="423.5" r="100.8"/>
    <circle class="st6" cx="852.4" cy="846.4" r="72"/>
    <circle class="st6" cx="371.1" cy="926.2" r="50.4"/>
    <circle class="st6" cx="732.7" cy="984.4" r="44.9"/>
    <circle class="st6" cx="985" cy="984.4" r="44.9"/>
    <circle class="st6" cx="1845.8" cy="984.4" r="44.9"/>
    <circle class="st6" cx="2150.9" cy="1457.5" r="32.4"/>
    <circle class="st6" cx="1988.3" cy="878.4" r="32.4"/>
    <circle class="st6" cx="2488.5" cy="1675" r="32.4"/>
    <circle class="st6" cx="2298.3" cy="1849" r="32.4"/>
    <circle class="st6" cx="2203.9" cy="1998.7" r="32.4"/>
    <circle class="st6" cx="2660.5" cy="1478.4" r="32.4"/>
    <circle class="st6" cx="2771.7" cy="1268.5" r="18.3"/>
    <circle class="st6" cx="2082.4" cy="2516.4" r="18.3"/>
    <circle class="st6" cx="2689" cy="1516.7" r="18.3"/>
    <circle class="st6" cx="1660.7" cy="762.3" r="44.9"/>
    <circle class="st6" cx="2141" cy="1207" r="44.9"/>
    <circle class="st6" cx="2542.9" cy="1045.4" r="51.3"/>
    <circle class="st6" cx="371.1" cy="608.4" r="50.4"/>
    <circle class="st6" cx="1255.5" cy="846.4" r="72"/>
    <circle class="st6" cx="2164.4" cy="846.4" r="72"/>
    <circle class="st6" cx="2183.1" cy="423.5" r="100.8"/>
    <line class="st1" x1="1460.2" y1="1499" x2="2078.5" y2="2117.3"/>
    <polyline class="st1" points="1085.2 541.2 1085.2 1031.1 1363.5 1031.1"/>
    <line class="st1" x1="1408.8" y1="541.2" x2="1408.8" y2="928.1"/>
    <line class="st1" x1="2236.4" y1="541.2" x2="2236.4" y2="928.1"/>
    <line class="st1" x1="987.1" y1="779.6" x2="987.1" y2="913.2"/>
    <line class="st1" x1="1328.4" y1="779.6" x2="1328.4" y2="913.2"/>
    <line class="st1" x1="1845.4" y1="779.6" x2="1845.4" y2="913.2"/>
    <line class="st1" x1="1911.5" y1="779.6" x2="1911.5" y2="913.2"/>
    <line class="st1" x1="734.6" y1="779.6" x2="734.6" y2="913.2"/>
    <line class="st1" x1="441.6" y1="671.1" x2="441.6" y2="884.9"/>
    <path class="st1" d="M370.7,608.4h193.7c90.3,0,112.2,81,112.2,158.9s-8.8,158.9-112.2,158.9h-193.7"/>
    <polyline class="st0" points="1568.9 928.1 1568.9 541.2 1664.6 716.7 1760.4 541.2 1760.4 928.1"/>
    <path class="st1" d="M673,423.5s200-199.7,758.9-199.7,751.3,199.7,751.3,199.7"/>
    <line class="st1" x1="1617.6" y1="1290.4" x2="2257.8" y2="1930.5"/>
    <line class="st1" x1="1911.4" y1="1462.1" x2="2296.1" y2="1846.8"/>
    <line class="st1" x1="2030.2" y1="1458.8" x2="2367.4" y2="1796.1"/>
    <line class="st1" x1="2125.7" y1="1188.3" x2="2563.4" y2="1626"/>
    <line class="st1" x1="2246.2" y1="1186.8" x2="2624.5" y2="1565"/>
    <line class="st1" x1="2445.2" y1="1263.7" x2="2685.5" y2="1504"/>
    <line class="st1" x1="2558.2" y1="1254.8" x2="2725.2" y2="1421.8"/>
    <line class="st1" x1="2678.1" y1="1252.6" x2="2762.9" y2="1337.4"/>
    <line class="st1" x1="2153.6" y1="1460.2" x2="2426.9" y2="1733.6"/>
    <polyline class="st1" points="2487.9 1672.5 1987.2 1171.8 1987.2 878.4"/>
    <line class="st1" x1="1754.7" y1="1671.5" x2="2141.5" y2="2058.3"/>
    <line class="st1" x1="1879.1" y1="1673.9" x2="2202.5" y2="1997.3"/>
    <path class="st2" d="M2435.9,978.1c21.7-34.3,60-57.1,103.6-57.1,67.6,0,122.4,54.8,122.4,122.4s-54.8,122.4-122.4,122.4-81.9-22.8-103.6-57.1h-209.2"/>
    <line class="st1" x1="1036.7" y1="778" x2="1137.4" y2="778"/>
  </g>
  <g id="Layer_3" class="st5">
    <g>
      <path d="M371.7,3303.2l-35.1-34.2v-122.8h-19.4v175.6h24.4c6.9-10.5,16.8-16.4,30.1-18.6Z"/>
      <rect x="390.4" y="3146.2" width="19.4" height="74.5"/>
      <rect x="414.8" y="3146.2" width="19.4" height="74.5"/>
      <rect x="292.8" y="3146.2" width="19.4" height="175.6"/>
      <path d="M434.2,3244.8c-5.3-.7-10.8-1-16.4-1s-13.6.3-20.5,1.2l52.4,52.4c1.8-1.2,3.9-2,6.2-2,6,0,10.8,4.8,10.8,10.8s-4.8,10.8-10.8,10.8-10.8-4.8-10.8-10.8.5-3.6,1.3-5.1l-55.2-55.2c-8.7,1.5-17.2,3.8-25.1,7.3v5l97.6,94.4v83.6c7.2-3.9,13.6-8.3,19.4-13.1v-128.3l-48.8-48.7v-1.3Z"/>
      <rect x="366" y="3146.2" width="19.4" height="74.5"/>
      <path d="M512.4,3379.3c3.2-10,4.8-20.8,4.8-32.1s-1.7-26.4-4.8-37.3v69.4Z"/>
      <path d="M434.2,3447.8v-83.8l-6.7-6.6c-5.3,15-19.7,25.2-37.2,27.4v69.4c6.7-.3,13.2-.8,19.4-1.6v-69.9h5v69.2c6.8-1.1,13.4-2.5,19.5-4.2Z"/>
      <polygon points="268.4 3321.8 287.8 3321.8 287.8 3167.9 268.4 3276 268.4 3321.8"/>
      <path d="M287.8,3355.1h-19.4v56.6c5.1,6.5,11.5,12.8,19.4,18.4v-75Z"/>
      <path d="M385.3,3385.3c-.7,0-1.4,0-2,0-13.6,0-25.8-3.1-34.6-10.1-6.1-4.8-10.5-12.3-12.3-20.1h-19.2v5.8l39.5,40v11.7c4.8,1.1,8.5,5.4,8.5,10.5s-4.8,10.8-10.8,10.8-10.8-4.8-10.8-10.8,3.5-9.3,8.1-10.5v-9.8l-39.5-40v-7.9h-19.4v78.3c19.8,12.5,48.1,21.1,87.8,21.1s3.1,0,4.7,0v-69.2Z"/>
      <path d="M341.6,3266.9l36.5,35.5c2.5-.2,5.1-.3,7.8-.3,9.2,0,17.4,2,24.1,5.6l-48.9-47.3v-4.7c-3.4,1.8-6.6,3.8-9.7,6.1l-.9-.9,8.8-40.3h1.8v-74.5h-19.4v120.7Z"/>
      <path d="M263.4,3355.1h-13.3c-1.1,12.4,1.8,31.4,13.3,49.5v-49.5Z"/>
      <path d="M507.4,3296.1c-12.9-28.6-37.2-44.8-66.4-50.2l47,46.8v125.9c8.1-7.9,14.6-16.9,19.4-26.7v-95.7Z"/>
      <polygon points="501 3199 458.6 3199 458.6 3146.2 439.2 3146.2 439.2 3220.6 501 3220.6 501 3199"/>
      <path d="M458.6,3438.8v-84l-34.8-33.6c3.8,6.4,5.8,14.2,5.8,23.4s-.2,5-.7,7.4l10.3,10v84.5c6.9-2.1,13.4-4.7,19.4-7.6Z"/>
      <polygon points="488 3172.2 483 3172.2 483 3146.2 463.6 3146.2 463.6 3194 501 3194 501 3146.2 488 3146.2 488 3172.2"/>
      <polygon points="263.4 3303.8 260.1 3321.8 263.4 3321.8 263.4 3303.8"/>
    </g>
    <g>
      <path d="M1022.5,3303.2l-35.1-34.2v-122.8h-19.4v175.6h24.4c6.9-10.5,16.8-16.4,30.1-18.6Z"/>
      <rect x="1041.3" y="3146.2" width="19.4" height="74.5"/>
      <rect x="1065.7" y="3146.2" width="19.4" height="74.5"/>
      <rect x="943.6" y="3146.2" width="19.4" height="175.6"/>
      <path d="M1085.1,3244.8c-5.3-.7-10.8-1-16.4-1s-13.6.3-20.5,1.2l52.4,52.4c1.8-1.2,3.9-2,6.2-2,6,0,10.8,4.8,10.8,10.8s-4.8,10.8-10.8,10.8-10.8-4.8-10.8-10.8.5-3.6,1.3-5.1l-55.2-55.2c-8.7,1.5-17.2,3.8-25.1,7.3v5l97.6,94.4v83.6c7.2-3.9,13.6-8.3,19.4-13.1v-128.3l-48.8-48.7v-1.3Z"/>
      <rect x="1016.8" y="3146.2" width="19.4" height="74.5"/>
      <path d="M1163.3,3379.3c3.2-10,4.8-20.8,4.8-32.1s-1.7-26.4-4.8-37.3v69.4Z"/>
      <path d="M1085.1,3447.8v-83.8l-6.7-6.6c-5.3,15-19.7,25.2-37.2,27.4v69.4c6.7-.3,13.2-.8,19.4-1.6v-69.9h5v69.2c6.8-1.1,13.4-2.5,19.5-4.2Z"/>
      <polygon points="919.2 3321.8 938.6 3321.8 938.6 3167.9 919.2 3276 919.2 3321.8"/>
      <path d="M938.6,3355.1h-19.4v56.6c5.1,6.5,11.5,12.8,19.4,18.4v-75Z"/>
      <path d="M1036.1,3385.3c-.7,0-1.4,0-2,0-13.6,0-25.8-3.1-34.6-10.1-6.1-4.8-10.5-12.3-12.3-20.1h-19.2v5.8l39.5,40v11.7c4.8,1.1,8.5,5.4,8.5,10.5s-4.8,10.8-10.8,10.8-10.8-4.8-10.8-10.8,3.5-9.3,8.1-10.5v-9.8l-39.5-40v-7.9h-19.4v78.3c19.8,12.5,48.1,21.1,87.8,21.1s3.1,0,4.7,0v-69.2Z"/>
      <path d="M992.4,3266.9l36.5,35.5c2.5-.2,5.1-.3,7.8-.3,9.2,0,17.4,2,24.1,5.6l-48.9-47.3v-4.7c-3.4,1.8-6.6,3.8-9.7,6.1l-.9-.9,8.8-40.3h1.8v-74.5h-19.4v120.7Z"/>
      <path d="M914.2,3355.1h-13.3c-1.1,12.4,1.8,31.4,13.3,49.5v-49.5Z"/>
      <path d="M1158.3,3296.1c-12.9-28.6-37.2-44.8-66.4-50.2l47,46.8v125.9c8.1-7.9,14.6-16.9,19.4-26.7v-95.7Z"/>
      <polygon points="1151.9 3199 1109.5 3199 1109.5 3146.2 1090.1 3146.2 1090.1 3220.6 1151.9 3220.6 1151.9 3199"/>
      <path d="M1109.5,3438.8v-84l-34.8-33.6c3.8,6.4,5.8,14.2,5.8,23.4s-.2,5-.7,7.4l10.3,10v84.5c6.9-2.1,13.4-4.7,19.4-7.6Z"/>
      <polygon points="1138.9 3172.2 1133.9 3172.2 1133.9 3146.2 1114.5 3146.2 1114.5 3194 1151.9 3194 1151.9 3146.2 1138.9 3146.2 1138.9 3172.2"/>
      <polygon points="914.2 3303.8 911 3321.8 914.2 3321.8 914.2 3303.8"/>
    </g>
    <line class="st3" x1="-118.6" y1="3103.5" x2="-118.6" y2="3441.2"/>
    <line class="st3" x1="-94.2" y1="3103.5" x2="-94.2" y2="3441.2"/>
    <line class="st3" x1="52.1" y1="3374.4" x2="52.1" y2="3450.6"/>
    <line class="st3" x1="76.5" y1="3374.4" x2="76.5" y2="3450.6"/>
    <line class="st3" x1="-69.8" y1="3103.5" x2="-69.8" y2="3441.2"/>
    <line class="st3" x1="-45.4" y1="3103.5" x2="-45.4" y2="3441.2"/>
    <polyline class="st3" points="1238 2171.1 1238 2111.7 1180.5 2054.2"/>
    <polyline class="st3" points="1259.8 2079.2 1259.8 2056.8 1202.3 1999.3"/>
    <polyline class="st3" points="1213.6 1773.8 1213.6 1971.3 1279.4 2037.1"/>
    <polyline class="st3" points="1238 1773.8 1238 1908.7 1335.1 2005.8"/>
    <polyline class="st3" points="1286.8 2076.5 1286.8 2097.7 1259.8 2124.8 1259.8 2171.1"/>
    <line class="st3" x1="1286.8" y1="1773.8" x2="1286.8" y2="1896.8"/>
    <polyline class="st3" points="1311.2 2062.6 1311.2 2114.8 1293.9 2132.1 1293.9 2171.1"/>
    <line class="st3" x1="1335.6" y1="2036.5" x2="1335.6" y2="2171.1"/>
    <polyline class="st3" points="1335.6 1773.8 1335.6 1837.9 1397.4 1899.7 1408.8 1899.7 1408.8 2077.4 1431.3 2100"/>
    <polyline class="st3" points="1262.4 1773.8 1262.4 1894.2 1360.4 1992.2 1360 2171.1"/>
    <polyline class="st3" points="1384.4 2171.1 1384.3 1921.4 1311.2 1848.2 1311.2 1773.8"/>
    <polyline class="st3" points="-21 3103.5 -21 3353.5 18.5 3393.5 18.5 3412.5"/>
    <polyline class="st3" points="3.4 3103.5 3.4 3259.5 101.1 3354.6 101.1 3458.4"/>
    <polyline class="st3" points="27.8 3103.5 27.8 3250.9 125.5 3345.3 125.5 3458.4"/>
    <polyline class="st3" points="52.3 3103.5 52.3 3230.7 116.1 3294.6"/>
    <line class="st3" x1="76.7" y1="3103.5" x2="76.7" y2="3229.6"/>
    <polyline class="st3" points="101.1 3103.5 101.1 3236.7 149.9 3285.3 149.9 3458.4"/>
    <polyline class="st3" points="125.5 3103.5 125.5 3188 165.5 3188"/>
    <line class="st3" x1="149.9" y1="3103.5" x2="149.9" y2="3163.7"/>
    <line class="st3" x1="174.3" y1="3103.5" x2="174.3" y2="3458.4"/>
    <circle class="st6" cx="120.2" cy="3297.8" r="10.8"/>
    <circle class="st6" cx="18.7" cy="3414.7" r="10.8"/>
    <g>
      <polygon points="671.8 3203.3 652.4 3225.8 652.4 3304.7 671.8 3282.5 671.8 3203.3"/>
      <polygon points="603.6 3390.6 623 3390.6 623 3260 603.6 3282.6 603.6 3390.6"/>
      <polygon points="647.4 3316.1 642.5 3316.1 647.4 3310.5 647.4 3231.7 628 3254.2 628 3390.6 647.4 3390.6 647.4 3316.1"/>
      <polygon points="808.1 3273.8 808.1 3212.3 769.4 3173.6 769.4 3146.2 750.1 3146.2 750.2 3185.4 798.8 3234 798.8 3273.8 808.1 3273.8"/>
      <polygon points="696.2 3316.1 676.8 3316.1 676.8 3361.1 706.3 3390.6 717 3390.6 717 3401.3 748.6 3432.9 748.6 3451 769.4 3451 769.4 3418.6 696.2 3345.4 696.2 3316.1"/>
      <polygon points="774.4 3171.5 808.1 3205.2 808.1 3146.2 774.4 3146.2 774.4 3171.5"/>
      <polygon points="743.6 3434.9 717 3408.3 717 3451 743.6 3451 743.6 3434.9"/>
      <path d="M829.2,3342.5h-108.6v-196l-19.4,22.6v79.7l15.8-18.1v85.4h-15.8v27.2l73.2,73.2v34.5h19.4v-70.2c-4.8-1.1-8.3-5.4-8.3-10.5s4.8-10.8,10.8-10.8,10.8,4.8,10.8,10.8-3.5,9.4-8.3,10.5v70.2h9.2v-60.4h21.1v-48.1Z"/>
      <polygon points="671.8 3363.2 671.8 3316.1 652.4 3316.1 652.4 3390.6 699.2 3390.6 671.8 3363.2"/>
      <path d="M808.1,3316.1h0s-38.6,0-38.6,0v-65.5c-4.8-1.1-8.3-5.4-8.3-10.5s4.8-10.8,10.8-10.8,10.8,4.8,10.8,10.8-3.5,9.4-8.3,10.5v60.5h33.6v-32.3h-14.2v-42.7l-48.6-48.6v-41.3h-19.6v191.3h108.6v53.1h15.1v-74.5h-41.2Z"/>
      <polygon points="676.8 3197.4 676.8 3276.7 696.2 3254.5 696.2 3174.9 676.8 3197.4"/>
      <polygon points="598.6 3288.4 581.6 3308.2 581.6 3390.6 598.6 3390.6 598.6 3288.4"/>
    </g>
    <line class="st3" x1="1245.6" y1="1959.8" x2="1298.9" y2="2013.2"/>
    <line class="st3" x1="1307.7" y1="1897.7" x2="1361" y2="1951"/>
    <circle class="st6" cx="1259.8" cy="2079.8" r="10.8"/>
    <circle class="st6" cx="1247" cy="1961.3" r="10.8"/>
    <circle class="st6" cx="1359" cy="1948.9" r="10.8"/>
    <line class="st3" x1="1418.5" y1="1847" x2="1397.2" y2="1868.3"/>
    <g>
      <path d="M1295,3235.9v-80.9c-6.9,2.8-13.4,6.2-19.4,10.2v119.4c4.5,2.3,9.6,4.2,15.1,5.7v.9c-4.5.8-9.7,1.9-15.1,3.6v1.7l44.2,44.2c3.7-8.6,10.4-14.2,18.7-17.6l-13.1-13.1c-1.6,1-3.6,1.6-5.7,1.6-6,0-10.8-4.8-10.8-10.8s4.8-10.8,10.8-10.8,10.8,4.8,10.8,10.8-.6,4-1.6,5.7l14.8,14.8c6.9-2,14.5-2.9,22.3-2.9s8.3.3,12.2.8l-83.2-83.2Z"/>
      <path d="M1368.2,3391.4c-1,0-2,0-3,0-5.3,0-10.9-.4-16.4-1.5v34.9l-26.1,26.2c10.2,1.8,20.6,2.8,31.1,3.2l14.4-14.4v-48.5Z"/>
      <path d="M1397.6,3163l60.3,60.3h12.8v50.2c11.4-11.9,17.9-28.5,17.9-47.2s-5.2-31.4-15.9-44.5l-14.3,14.3-3.5-3.5,14.6-14.6c-15-16.2-38.8-28.4-72-33.2v18.1Z"/>
      <path d="M1470.8,3301.2v101.3l10.6,10.6c12.1-14,19.6-32.1,19.6-55s-12-45.5-30.2-56.9Z"/>
      <path d="M1465.8,3228.3h-9.9l-63.3-63.3v-20.8c-6.2-.7-12.6-1.2-19.4-1.4v30.6l73.1,73.1v42.3c7.3-2.4,13.8-6,19.5-10.7v-49.8Z"/>
      <path d="M1478,3416.8l-12.2-12.2v-106.2c-6-3.1-12.5-5.3-19.4-6.5v146.6c12-5.6,22.9-12.7,31.7-21.7Z"/>
      <path d="M1348.8,3202.4c5.2-1,10.7-1.4,16.4-1.4,22.8,0,45.6,5.3,45.6,34.2s-3.2,15.8-8.2,20.6l10.2,10.2c1.6-1,3.6-1.6,5.7-1.6,6,0,10.8,4.8,10.8,10.8s-4.8,10.8-10.8,10.8-10.8-4.8-10.8-10.8.6-4,1.6-5.7l-10.6-10.6c-7.3,5-17,7.3-26.8,8l50.5,50.5v1s-.3,128.9-.3,128.9c6.6-1.8,13.1-4,19.3-6.5v-149.5c-.1,0-.3,0-.4,0v-.9c.1,0,.2,0,.4,0v-41.6s-73.1-73.1-73.1-73.1v-32.7c-1,0-2,0-3,0-5.3,0-10.8.2-16.4.6v59.1Z"/>
      <path d="M1295,3438.9l-63.8-63.8c5.9,36.4,31.4,57.8,63.8,69v-5.2Z"/>
      <path d="M1392.6,3386.8c-6.1,2.4-12.8,3.7-19.4,4.3v50.8l-12.5,12.5c1.5,0,3,0,4.5,0,9,0,18.2-.5,27.4-1.6v-66.1Z"/>
      <path d="M1300,3436.8v8.9c5.4,1.7,11.1,3.1,16.8,4.3h0s27-27.2,27-27.2v-34c-14.8-4-27.2-13.2-27.2-31.1s.5-8.3,1.4-11.8l-47.4-47.4v-2.1c-7.4,2.8-15,6.8-21.6,12.7l72.8,72.8v13.5c4.7,1.1,8.3,5.4,8.3,10.5s-4.8,10.8-10.8,10.8-10.8-4.8-10.8-10.8,3.6-9.4,8.3-10.5v-11.4l-71.4-71.4c-9.1,9.9-15.6,24.3-15.6,45.5s.1,6,.4,8.9l69.8,69.8Z"/>
      <path d="M1417.1,3448.6l.3-129.2-52.3-52.3c0,0-.2,0-.3,0-21,0-43.4-7.9-43.4-32s.4-7.4,1.2-10.5l-3.2-3.2v-74c-6.6,1.5-13.1,3.3-19.4,5.6v80.8l87.2,87.2c15.9,4.7,27,15.8,27,36.7s-7,21.7-16.6,26.8v67.8c6.5-.9,13.1-2.2,19.5-3.7Z"/>
      <path d="M1324.4,3146.4v72.9h0c3.8-8.3,10.8-13.1,19.4-15.7v-60c-6.4.6-12.9,1.5-19.4,2.7Z"/>
      <path d="M1270.6,3281.8v-113c-16.3,12.8-27.2,31.3-27.2,57.5s8.7,44,27.2,55.5Z"/>
    </g>
  </g>
</svg>