<?xml version="1.0" encoding="UTF-8"?>
<svg id="Layer_1" xmlns="http://www.w3.org/2000/svg" version="1.1" viewBox="0 0 265.3 130.2">
  <!-- Generator: Adobe Illustrator 30.2.1, SVG Export Plug-In . SVG Version: 2.1.1 Build 1)  -->
  <defs>
    <style>
      .st0 {
        fill-rule: evenodd;
      }
    </style>
  </defs>
  <path id="a" class="st0" d="M132.6,14.8c4.4,0,7.9,3.6,8,7.9,0,4.4-3.6,7.9-7.9,8h0c-4.4,0-7.9-3.6-7.9-8,0-4.4,3.6-7.9,7.9-7.9ZM132.6,26.9c2.3,0,4.1-1.8,4.1-4.1,0-2.3-1.8-4.1-4.1-4.1h0c-2.3,0-4.1,1.8-4.1,4.1,0,2.3,1.8,4.1,4.1,4.1ZM130.6,74.8v-36.1h4.1v36.1h-4.1ZM20,74.8v-36.1h4.1v36.1h-4.1ZM54.6,38.7h3.7v36.1h-4.6l-12.5-30.2v30.2h-3.7v-36.1h4.9l12.2,29.3v-29.3h0ZM178.2,74.8v-36.1h4.1v36.1h-4.1ZM245.3,42.4h-12.9v11.6h12v3.7h-12v13.6h12.9v3.7h-16.9v-36.1h16.9s0,3.7,0,3.7ZM212.8,38.7h4.2l-9.4,36.1h-4.8l-8.8-36.1h4.2l7,31.7,7.5-31.7h0ZM146.1,38.7h20.1v3.7h-8v32.5h-4.1v-32.5h-8s0-3.7,0-3.7ZM67.7,38.7h20.1v3.7h-8v32.5h-4.1v-32.5h-8v-3.7h0ZM113.9,38.7h3.9v26.8c-.1,5.4-4.4,9.9-9.9,9.9s-9.8-4.5-9.9-9.9v-26.8h4.1v26.8c0,3.2,2.6,5.9,5.9,5.9s5.8-2.7,5.9-5.9v-26.8Z"/>
  <g>
    <path d="M141.5,95.6c0,.8-.7,1.5-1.5,1.5s-1.5-.6-1.5-1.5.7-1.5,1.5-1.5,1.5.7,1.5,1.5Z"/>
    <g>
      <path d="M22.5,94.9v7h7.5v2h-7.5v11.2h-2.1v-22.3h11.9v2.1h-9.8Z"/>
      <path d="M40.3,99.7c-4.3,0-7.7,3.5-7.7,7.7s3.4,7.7,7.7,7.7,7.7-3.4,7.7-7.7-3.4-7.7-7.7-7.7ZM40.3,113.4c-3.3,0-5.9-2.6-5.9-5.9s2.6-5.9,5.9-5.9,5.9,2.6,5.9,5.9-2.6,5.9-5.9,5.9Z"/>
      <path d="M152.8,99.9c-4.3,0-7.7,3.5-7.7,7.7s3.4,7.7,7.7,7.7,7.7-3.4,7.7-7.7-3.4-7.7-7.7-7.7ZM152.8,113.5c-3.3,0-5.9-2.6-5.9-5.9s2.6-5.9,5.9-5.9,5.9,2.6,5.9,5.9-2.6,5.9-5.9,5.9Z"/>
      <rect x="139" y="100.1" width="2.1" height="15"/>
      <path d="M62.7,100h0c0,0,0,0,0,0v9.5c0,2-1.6,3.6-4.5,3.6s-4.5-1.7-4.5-3.6v-9.5h-2v9.7c0,3.1,3,5.2,6.4,5.2s3.3-.5,4.5-1.4v1.5h2v-15h-2Z"/>
      <path d="M72.5,115.1h0c0,0,0,0,0,0v-9.5c0-2,1.6-3.6,4.5-3.6s4.5,1.7,4.5,3.6v9.5h2v-9.7c0-3.1-3-5.2-6.4-5.2s-3.3.5-4.5,1.4v-1.5h-2v15h2Z"/>
      <path d="M166.6,115.1h0c0,0,0,0,0,0v-9.5c0-2,1.6-3.6,4.5-3.6s4.5,1.7,4.5,3.6v9.5h2v-9.7c0-3.1-3-5.2-6.4-5.2s-3.3.5-4.5,1.4v-1.5h-2v15h2Z"/>
      <path d="M99.7,92v9c-1.2-.9-2.8-1.4-4.4-1.4-4.3,0-7.7,3.5-7.7,7.7s3.4,7.7,7.7,7.7,3.2-.5,4.4-1.4v1.4h2v-23h-2ZM99.7,111.3h0c-1.1,1.2-2.7,2-4.4,2-3.3,0-5.9-2.6-5.9-5.9s2.6-5.9,5.9-5.9,3.3.8,4.4,2h0c.4,1.1.6,2.5.6,3.9s-.2,2.8-.6,3.9Z"/>
      <path d="M118.7,100.1v.9c-1.2-.9-2.8-1.4-4.4-1.4-4.3,0-7.7,3.5-7.7,7.7s3.4,7.7,7.7,7.7,3.2-.5,4.4-1.4v1.4h2v-14.9h-2ZM118.7,111.3h0c-1.1,1.2-2.7,2-4.4,2-3.3,0-5.9-2.6-5.9-5.9s2.6-5.9,5.9-5.9,3.3.8,4.4,2h0c.4,1.1.6,2.5.6,3.9s-.2,2.8-.6,3.9Z"/>
      <path d="M129.7,102.1h4v-2h-4v-3.5h-2v3.5h-4v2h4v10.3s0,1.2.7,2,2.3.7,2.3.7h3v-2h-2.7s-.5,0-1-.4-.3-1.2-.3-1.2v-9.4Z"/>
    </g>
  </g>
</svg>