<svg xmlns="http://www.w3.org/2000/svg" viewBox="0 0 140.27 140.27"><defs><style>.cls-1{fill:#d9ccab;}.cls-2{fill:#221f20;}.cls-3{fill:#fff;}.cls-4{fill:#9c876c;}.cls-5{fill:#e7e3dc;}</style></defs><title>Asset 15</title><g id="Layer_2" data-name="Layer 2"><g id="Layer_1-2" data-name="Layer 1"><path class="cls-1" d="M122.23,70.14A52.1,52.1,0,1,1,70.13,18a52.1,52.1,0,0,1,52.1,52.1"/><path class="cls-2" d="M70.13,19.39a50.75,50.75,0,1,0,50.75,50.74A50.74,50.74,0,0,0,70.13,19.39m70.14,50.74A70.14,70.14,0,1,1,70.13,0a70.14,70.14,0,0,1,70.14,70.13"/><path class="cls-2" d="M72.12,55.67a2,2,0,1,1-2-2,2,2,0,0,1,2,2"/><path class="cls-2" d="M54.86,45.65a2,2,0,1,1-2-2,2,2,0,0,1,2,2"/><path class="cls-2" d="M85.41,45.65a2,2,0,1,0,2-2,2,2,0,0,0-2,2"/><path class="cls-2" d="M85.41,45.65a2,2,0,0,1,2.86-1.78,19.64,19.64,0,0,0,1.71-8,19.85,19.85,0,1,0-38,8.05,1.9,1.9,0,0,1,.88-.21A2,2,0,0,1,54,47.32a19.84,19.84,0,0,0,14.2,8.25,2,2,0,0,1,4,0,19.83,19.83,0,0,0,14.2-8.26,2,2,0,0,1-.9-1.66"/><path class="cls-3" d="M58.78,102.76a24.73,24.73,0,0,1-1.24,8.32c-.7,2-1.88,5.38-4.16,3.91s-4.89-8.43-5-10.19c-.29-2.1.39-8.5.39-8.5s-1,.81-1.76,5.49c-1.13-4.1-4.37-20.63-3.22-29.46.36-3.17,4-9.62,4-9.62a14.47,14.47,0,0,0-3.82,5.23c-.24-8.38,3.06-16.49,7.83-16.62,4.14-.11,8.4,8.58,7,20.78-.89-3.94-3.14-4.26-3.14-4.26a47.07,47.07,0,0,1,2.58,10.22c.33,4.29.61,6.72.42,8.52-1.58-4.91-3.39-5.94-3.39-5.94S58.86,90,58.93,91.57s.27,4.91.17,5.67a7.52,7.52,0,0,0-3.8-3.78s3.4,5.64,3.48,9.3"/><path class="cls-3" d="M77.27,112.26A24.72,24.72,0,0,1,76,120.57c-.7,2-2.69,5.42-5,3.93s-4.91-8.45-5-10.21c-.29-2.11.37-8.5.37-8.5s-1.06.8-1.75,5.48c-1.14-4.1-3.65-20.65-2.51-29.48.34-3.17,4-9.6,4-9.6a14.35,14.35,0,0,0-3.8,5.21c-.26-8.37,3-16.47,7.79-16.58,4.14-.09,9.24,8.59,7.88,20.77-.9-3.94-3.16-4.27-3.16-4.27a47.14,47.14,0,0,1,2.61,10.24c.34,4.28.62,6.71.44,8.51-1.59-4.91-3.41-6-3.41-6s2.75,9.36,2.83,11,.28,4.91.18,5.67a7.6,7.6,0,0,0-3.81-3.8s3.42,5.66,3.51,9.32"/><path class="cls-3" d="M81.45,102.76a25,25,0,0,0,1.24,8.32c.71,2,1.88,5.39,4.16,3.91s4.89-8.42,4.94-10.18c.3-2.11-.38-8.5-.38-8.5s1,.8,1.76,5.48c1.13-4.09,4.37-20.63,3.22-29.46-.36-3.17-4-9.61-4-9.61a14.63,14.63,0,0,1,3.82,5.22c.23-8.37-3.06-16.49-7.83-16.61-4.14-.12-8.4,8.58-7,20.77.89-3.94,3.15-4.26,3.15-4.26A46.6,46.6,0,0,0,81.9,78.07c-.34,4.28-.62,6.71-.43,8.51,1.58-4.9,3.39-5.94,3.39-5.94S81.37,90,81.31,91.57s-.28,4.91-.18,5.67a7.57,7.57,0,0,1,3.8-3.78s-3.4,5.65-3.48,9.3"/><path class="cls-2" d="M59,93.63a34.48,34.48,0,0,1,.07,3.61,7.52,7.52,0,0,0-3.8-3.78s3.4,5.64,3.48,9.3a24.73,24.73,0,0,1-1.24,8.32c-.7,2-1.88,5.38-4.16,3.91s-4.89-8.43-5-10.19c-.29-2.11.39-8.5.39-8.5s-1.06.81-1.76,5.49c-.61-2.2-2.1-10.28-2.92-16.53A8.93,8.93,0,0,0,48,89.64c3,1.74,6.17,0,8,.47,2.41.65,3,3.52,3,3.52"/><path class="cls-2" d="M74.13,99.76a18.42,18.42,0,0,0,2.57-2,32.86,32.86,0,0,1,.87,9,7.6,7.6,0,0,0-3.81-3.8s3.42,5.66,3.51,9.32A24.72,24.72,0,0,1,76,120.57c-.7,2-2.69,5.41-5,3.93s-4.91-8.45-5-10.21c-.29-2.11.37-8.5.37-8.5s-1.06.8-1.75,5.48c-.61-2.2-1.49-8.77-2.32-15A13.86,13.86,0,0,0,67,100.82c1.73,1,5,.32,7.1-1.06"/><path class="cls-2" d="M81.2,93.63a34.5,34.5,0,0,0-.07,3.61,7.57,7.57,0,0,1,3.8-3.78s-3.4,5.65-3.48,9.3a25,25,0,0,0,1.24,8.32c.71,2,1.88,5.39,4.16,3.91s4.89-8.42,4.94-10.18c.3-2.11-.38-8.51-.38-8.51s1,.81,1.76,5.49c.61-2.2,2.1-10.28,2.92-16.53a8.93,8.93,0,0,1-3.9,4.38c-3,1.74-6.17,0-8,.47-2.4.66-3,3.52-3,3.52"/><path class="cls-4" d="M70.82,45.26c-2.31-.37-4,2.47-6.38,0-2.6-2.75.49-5.59,1.37-6.86s.32-3.34,4.36-4.11,4.33.83,5.69,1.55a10.26,10.26,0,0,1,3.52,2.35c1.72,2,.68,5-.11,6.49S76.53,48.38,74.63,47a8.07,8.07,0,0,0-3.81-1.78"/><path class="cls-4" d="M79.35,34.5c-1,.7-3.33,0-3.87-.82a5.79,5.79,0,0,1-1-3.79,2.39,2.39,0,0,1,2-1.65c2.24-.38,4.4,5.18,2.93,6.26"/><path class="cls-4" d="M69.66,26.62c.85-.33,2.9,1.07,3.44,2.92s.23,3-.33,3.29a2.43,2.43,0,0,1-2.59-.93c-.53-.94-2.32-4.57-.52-5.28"/><path class="cls-4" d="M65,27.43c.81-.62,2.27.2,3,1.91s1.31,3.4.3,4.17S65.54,32.28,65,31,64,28.2,65,27.43"/><path class="cls-4" d="M64.93,36.42a2,2,0,0,1-2.83-1c-.66-1.13-1-3.3,0-4s2.16.5,2.54,1.22,1.67,3,.28,3.76"/><path class="cls-4" d="M60.18,36.67a2.83,2.83,0,0,1,2.76,1.7c.22,1,.24,2.28-.94,2.9s-2.47-1-2.58-1.2-1.11-3,.76-3.4"/><path class="cls-4" d="M75.42,27.28c-.39.21-.75-.49-.94-.92s-.53-1.2-.3-1.38.88.24,1.07.64.62,1.42.17,1.66"/><path class="cls-4" d="M69.46,25.47c-.38.2-.74-.5-.94-.93s-.61-1.55-.38-1.73,1,.59,1.16,1,.62,1.42.16,1.67"/><path class="cls-4" d="M61.79,30.45c.42-.11.2-.86,0-1.32s-.51-1.59-.81-1.56-.4,1.15-.26,1.57.53,1.46,1,1.31"/><path class="cls-4" d="M65,26.28c.41-.12.19-.87,0-1.32s-.51-1.59-.81-1.56-.39,1.14-.25,1.56.52,1.46,1,1.32"/><path class="cls-4" d="M59.41,35.7c.34-.09.16-.69,0-1.05s-.42-1.28-.66-1.25-.31.92-.2,1.25.42,1.17.82,1.05"/><path class="cls-4" d="M95.62,85.13A8.41,8.41,0,0,1,92,89.22a5.78,5.78,0,0,1-3.2.71c2.07-16.32,1.67-28.91.53-38a5.33,5.33,0,0,1,2.33,1.52c2.32,2.45,3.85,7.32,4,12.52a13.51,13.51,0,0,0-3-3.67L90.79,61l1.14,2c0,.06,3.64,6.39,4,9.43a34.3,34.3,0,0,1,.25,4.36,77.27,77.27,0,0,1-.53,8.38M93.23,99.52c-.65-2.75-1.36-3.47-1.53-3.6l-.89-.68.12,1.12c0,.06.67,6.35.39,8.39-.06,1.72-2.62,8.48-4.73,9.84a1.28,1.28,0,0,1-1.12.23c-1.08-.37-1.85-2.56-2.31-3.87a24.54,24.54,0,0,1-1.23-8.18c.08-3.48,3.38-9,3.42-9.06l.72-1.2-1.31.5a8.14,8.14,0,0,0-3.15,2.5c0-.57,0-1.21.08-1.82,0-.18.6-2.57,2.6-3.11a6.24,6.24,0,0,1,2.36.09c.48.07,1,.15,1.52.19-.46,4.61-1.1,9.51-2,14.69,1-5.18,1.83-10.06,2.43-14.66a6.73,6.73,0,0,0,3.8-.83,9.91,9.91,0,0,0,2.9-2.53c-.63,4.77-1.48,9.22-2.1,12M85.32,80.81l.46-1.25-1.15.66c-.07,0-1.35.84-2.71,3.84.06-1,.15-2.25.28-3.74l.17-2.21A46.82,46.82,0,0,1,84.93,68l.29-.76-.81.12a4.2,4.2,0,0,0-2.79,2.5c0-.81-.07-1.61-.07-2.38,0-6.78,1.83-11.87,4-14.2a4.34,4.34,0,0,1,2.25-1.42,158.72,158.72,0,0,1,.51,38c-.51,0-1-.11-1.48-.18A7,7,0,0,0,84,89.64a4.13,4.13,0,0,0-2.18,1.49c.37-1.8,2.2-7,3.46-10.32m2.07-33.66a1.5,1.5,0,1,1,1.51-1.5,1.5,1.5,0,0,1-1.51,1.5M72.51,55a2.46,2.46,0,0,0-4.76,0,19.34,19.34,0,0,1-13.13-7.65,2.42,2.42,0,0,0,.72-1.74,2.46,2.46,0,0,0-2.47-2.46,2.49,2.49,0,0,0-.61.08,19.37,19.37,0,1,1,35.74,0,2.43,2.43,0,0,0-.61-.08,2.46,2.46,0,0,0-1.74,4.2A19.38,19.38,0,0,1,72.51,55m-2.38,2.13a1.5,1.5,0,1,1,1.51-1.5,1.5,1.5,0,0,1-1.51,1.5m3.31,5.9c2.17,2.38,4.39,7.42,4.39,14.48q0,.87-.06,1.8A4.28,4.28,0,0,0,75,76.84l-.81-.12.29.77A47.16,47.16,0,0,1,77.05,87.6l.18,2.24c.13,1.47.23,2.68.28,3.71-1.36-3-2.64-3.81-2.7-3.85l-1-.6.34,1.15c.46,1.58,1.39,4.81,2.05,7.36a17.31,17.31,0,0,1-2.28,1.74,9.79,9.79,0,0,1-3.47,1.35c.23-17,.38-30.08.46-39.32a5.26,5.26,0,0,1,2.58,1.69m3.47,38L77,102.5c0,.78.09,1.7.12,2.5a8.26,8.26,0,0,0-3.15-2.51L72.62,102l.73,1.22s3.35,5.6,3.44,9.08a24.77,24.77,0,0,1-1.2,8.14c-.56,1.59-1.7,3.48-2.91,3.89a1.48,1.48,0,0,1-1.35-.21c-2.11-1.37-4.69-8.14-4.74-9.82-.29-2.08.35-8.37.36-8.43l.12-1.11-.89.68c-.16.12-.87.83-1.5,3.5-.52-2.59-1.15-6.58-1.62-10.91a14.15,14.15,0,0,0,3.72,3.24,5.29,5.29,0,0,0,3.15.5q.12,6.27.27,13.24.1-7,.19-13.3a10.52,10.52,0,0,0,4-1.52,20.78,20.78,0,0,0,2-1.5,18.79,18.79,0,0,1,.49,2.43M62.4,87.16a42.87,42.87,0,0,1,.28-5.3c.34-3,3.92-9.37,3.95-9.43l1.13-2L65.92,71.8a13.74,13.74,0,0,0-3,3.66c.18-5.2,1.7-10.06,4-12.5a5,5,0,0,1,2.49-1.55c0,9.35.17,22.42.48,39.36a4.36,4.36,0,0,1-2.64-.36,13.68,13.68,0,0,1-4.41-4.33c-.28-3-.46-6.09-.46-8.92m-9.53-40a1.5,1.5,0,1,1,1.5-1.5,1.5,1.5,0,0,1-1.5,1.5m1.85,6.14c2.13,2.32,4,7.42,4,14.19,0,.78,0,1.57-.08,2.39a4.25,4.25,0,0,0-2.79-2.51l-.8-.11.28.76A45.82,45.82,0,0,1,57.85,78.1L58,80.31c.12,1.49.21,2.71.27,3.75-1.35-3-2.64-3.8-2.7-3.84l-1.16-.66.47,1.24c1.26,3.37,3.07,8.53,3.45,10.32a4.17,4.17,0,0,0-2.18-1.48,6.8,6.8,0,0,0-2.75.08c-.47.06-.95.13-1.44.18a158.73,158.73,0,0,1,.51-38,4.39,4.39,0,0,1,2.21,1.42m3.9,42.22A8.34,8.34,0,0,0,55.47,93l-1.31-.5.73,1.21c0,.05,3.33,5.58,3.41,9.06a24.85,24.85,0,0,1-1.21,8.15c-.48,1.34-1.25,3.52-2.33,3.89a1.25,1.25,0,0,1-1.12-.23c-2.11-1.36-4.67-8.11-4.72-9.79-.29-2.08.37-8.37.38-8.44l.12-1.11-.89.68c-.17.12-.89.85-1.53,3.6-.62-2.77-1.47-7.23-2.1-12a9.91,9.91,0,0,0,2.9,2.53,6.84,6.84,0,0,0,3.83.83c.61,4.59,1.4,9.48,2.44,14.66-.87-5.19-1.52-10.08-2-14.69.52,0,1-.12,1.49-.19a6.28,6.28,0,0,1,2.36-.1c2,.55,2.56,2.94,2.61,3.12,0,.61.05,1.24.07,1.82M44.08,76.74a32.49,32.49,0,0,1,.25-4.35c.33-3,3.93-9.38,4-9.44l1.14-2-1.84,1.37a13.56,13.56,0,0,0-3,3.66c.19-5.19,1.73-10.06,4-12.52A5.32,5.32,0,0,1,51,52c-1.13,9.06-1.54,21.65.53,38a5.81,5.81,0,0,1-3.23-.71,8.53,8.53,0,0,1-3.67-4.09,77.61,77.61,0,0,1-.53-8.39m52.78-4.47a21.36,21.36,0,0,0-2-5.69,17.39,17.39,0,0,1,.84,1.57L96.59,70l.06-2c.18-6.23-1.53-12.17-4.34-15.15a6,6,0,0,0-3.16-1.87c-.15-1.12-.32-2.17-.48-3.18a2.46,2.46,0,0,0,.2-4.08,20.12,20.12,0,0,0,1.59-7.85,20.33,20.33,0,1,0-40.65,0,20.12,20.12,0,0,0,1.58,7.85,2.47,2.47,0,0,0,.21,4.08c-.17,1-.33,2.06-.48,3.17a6,6,0,0,0-3.2,1.88c-2.81,3-4.51,8.92-4.34,15.14l.05,2,.87-1.8a17.64,17.64,0,0,1,.84-1.58,21.35,21.35,0,0,0-2,5.71,33.64,33.64,0,0,0-.25,4.43c0,9.33,2.6,22.05,3.47,25.21l.61,2.18.33-2.24a24.93,24.93,0,0,1,.55-2.71c-.1,1.36-.2,2.93-.2,4.19a10.85,10.85,0,0,0,.08,1.53c0,1.9,2.68,8.92,5.16,10.52a2.18,2.18,0,0,0,2,.34c1.53-.53,2.33-2.8,2.91-4.46a25.28,25.28,0,0,0,1.29-8v-.52c-.06-2.56-1.63-6-2.66-7.93a6.89,6.89,0,0,1,2,2.61l.7,1.6.22-1.73v0a1.66,1.66,0,0,0,0-.24V96.9c0-.07,0-.15,0-.23v-.31c0-.11,0-.22,0-.35v-.07c0-.14,0-.3,0-.46a2.09,2.09,0,0,1,0-.25,1.55,1.55,0,0,0,0-.22c0-.43,0-.89-.06-1.4v0h0c0-.2,0-.4,0-.61l-.07-1.41c0-1.1-1.51-5.34-2.56-8.27a19.11,19.11,0,0,1,1.46,3.45l.7,2.18.24-2.29c0-.41,0-.85,0-1.34,0-1.3-.13-2.91-.3-5L58.82,78a42.18,42.18,0,0,0-2.21-9.22,5.7,5.7,0,0,1,1.82,3.39L59.06,75l.32-2.82c1.14-10-1.41-16.75-4-19.51a5.2,5.2,0,0,0-2.78-1.73c.15-1,.31-1.91.47-2.8a2.67,2.67,0,0,0,.7-.18A20.3,20.3,0,0,0,67.69,56a2.47,2.47,0,0,0,1.73,2v2.39a6,6,0,0,0-3.18,1.87c-2.81,3-4.5,8.9-4.32,15.13l.07,2,.85-1.8c.29-.6.57-1.11.86-1.59a21.17,21.17,0,0,0-2,5.72,42.08,42.08,0,0,0-.3,5.38,122.16,122.16,0,0,0,2.83,24.28l.6,2.18.34-2.24a25.24,25.24,0,0,1,.54-2.71c-.1,1.34-.19,2.88-.19,4.14a11.79,11.79,0,0,0,.08,1.59c.06,1.9,2.7,8.93,5.18,10.55a2.47,2.47,0,0,0,2.18.31c1.62-.56,2.91-2.77,3.51-4.49a25.42,25.42,0,0,0,1.26-7.91c0-.19,0-.38,0-.58-.06-2.54-1.63-5.94-2.66-7.93a7,7,0,0,1,2,2.62l.7,1.6.22-1.74a4,4,0,0,0,0-.67c0-.82-.06-2.13-.15-3.68l-.06-1.39a82.08,82.08,0,0,0-2.25-9,17.28,17.28,0,0,1,1.89,4.17l.72,2.19.23-2.29c0-.4.05-.82.05-1.3,0-1.3-.13-2.91-.31-5.06L78,87.52a42.86,42.86,0,0,0-2.22-9.22,5.79,5.79,0,0,1,1.82,3.4l.63,2.77.31-2.82c1.07-9.47-1.7-16.28-4.4-19.23a6,6,0,0,0-3.28-2q0-1.23,0-2.37a2.46,2.46,0,0,0,1.67-2,20.32,20.32,0,0,0,13.88-8.07,2.59,2.59,0,0,0,.69.18c.17.89.32,1.82.48,2.8a5.23,5.23,0,0,0-2.82,1.73c-2.53,2.77-5.09,9.53-4,19.52L81.17,75l.63-2.77a5.76,5.76,0,0,1,1.82-3.4A42.33,42.33,0,0,0,81.41,78l-.17,2.21c-.18,2.14-.31,3.75-.31,5.05A11.29,11.29,0,0,0,81,86.63l.23,2.29.7-2.19a20.57,20.57,0,0,1,1.46-3.45c-1,2.93-2.51,7.17-2.56,8.27L80.76,93c0,.21,0,.41,0,.62h0v0c0,.87-.08,1.63-.1,2.24v.63s0,.07,0,.1,0,0,0,.06V97a1.87,1.87,0,0,0,0,.27L80.87,99l.7-1.6a6.85,6.85,0,0,1,2.05-2.6c-1,2-2.6,5.37-2.66,7.92a26.15,26.15,0,0,0,1.27,8.49c.61,1.69,1.41,4,2.93,4.49a2.18,2.18,0,0,0,2-.34c2.48-1.59,5.11-8.61,5.17-10.56a12.39,12.39,0,0,0,.07-1.49c0-1.25-.09-2.82-.2-4.18a26.71,26.71,0,0,1,.55,2.7l.33,2.25.6-2.19c.88-3.16,3.49-15.87,3.49-25.21a33.81,33.81,0,0,0-.26-4.44"/><path class="cls-5" d="M27.57,113.16a32,32,0,0,0,3.94-1.93,1.47,1.47,0,0,0,.28.42,1.77,1.77,0,0,0,.41.35c-1.2.44-3.11,1.15-6,2.37-1.08.45-1.46.64-2,.89a1.46,1.46,0,0,0-.26-.4,1.52,1.52,0,0,0-.38-.31c1.07-1.58,3.07-5.3,3.37-5.85-.79.32-4.54,1.88-5.53,2.34-.23.1-.39.18-.69.34a1.82,1.82,0,0,0-.29-.43,1.35,1.35,0,0,0-.38-.32,78.73,78.73,0,0,0,4.3-7.32,2.44,2.44,0,0,0,.36.5,5.88,5.88,0,0,0,.59.56c-1.14,1.61-2.84,4.5-3.64,5.9l2.38-1c1.07-.44,3.08-1.34,4-1.86a1.87,1.87,0,0,0,.27.41,1.4,1.4,0,0,0,.35.28c-.24.36-.47.7-.86,1.35-.67,1.14-2.32,4.1-2.65,4.69Z"/><path class="cls-5" d="M33.82,113a2.67,2.67,0,0,0,.45.46,2.77,2.77,0,0,0,.57.38c-.94,1-1.84,2.08-2.73,3.15-1.34,1.62-1.9,2.37-2.44,3.07a4.13,4.13,0,0,0-.51-.52,3.79,3.79,0,0,0-.52-.34c.87-.93,1.28-1.36,2.74-3.13,1.08-1.29,1.14-1.37,2.44-3.07"/><path class="cls-5" d="M36.13,118.4c-1.49,2.41-1.81,3-2.69,4.58a1.86,1.86,0,0,0-.38-.32,1.49,1.49,0,0,0-.42-.19c.36-.46,1.52-2.11,2.17-3.13l1.54-2.48.76-1.19a.75.75,0,0,0,.14.12l.22.11.08.6c.07.47.14.89.34,1.9.65,3.34.71,3.71,1.16,5.78l.23-.36a55.44,55.44,0,0,0,2.93-4.9,1.57,1.57,0,0,0,.35.31,2.07,2.07,0,0,0,.46.21,42.2,42.2,0,0,0-2.88,4.16c-.49.77-1.25,2-1.65,2.68l-.18-.14-.17-.08c-.07-.57-.5-3.16-.78-4.24-.07-.26-.13-.54-.19-.81l-.65-3.23Z"/><path class="cls-5" d="M46.55,121.88a15.2,15.2,0,0,0-2.44-.91,1.62,1.62,0,0,0,.21-.35,2,2,0,0,0,.13-.39c.63.35,2,1,2.84,1.34,1.05.46,2.18,1,2.89,1.2a3.17,3.17,0,0,0-.21.36,2.08,2.08,0,0,0-.12.39,14.69,14.69,0,0,0-2.21-1.16c-.34.73-.68,1.48-1,2.2-.58,1.29-1.37,3-2,4.62a5,5,0,0,0-.66-.37,2.84,2.84,0,0,0-.58-.18c.6-1.14,1.33-2.69,2-4.13.43-1,.83-1.89,1.14-2.62"/><path class="cls-5" d="M51.82,123.39a6.08,6.08,0,0,0,.65.25,3.72,3.72,0,0,0,.67.11c-.5,1.45-1.09,3.59-1.16,3.83-.39,1.42-.56,2.22-.26,2.9a2.46,2.46,0,0,0,1.6,1.22,2.25,2.25,0,0,0,2.67-1,12,12,0,0,0,.83-2.27c.12-.43.69-2.66.77-3.43a2.05,2.05,0,0,0,1,.29,28.66,28.66,0,0,0-1.28,3.92,4.49,4.49,0,0,1-1.66,2.87,3.34,3.34,0,0,1-2.73.21,2.93,2.93,0,0,1-2.32-4.18c.84-3,.9-3.26,1.19-4.69"/><path class="cls-5" d="M61.34,128.52c-.25,2.82-.27,3.48-.35,5.3a1.67,1.67,0,0,0-.48-.12,1.63,1.63,0,0,0-.46,0c.12-.57.41-2.56.53-3.77.05-.47.22-2.5.26-2.92l.14-1.39a.72.72,0,0,0,.19,0h.24l.34.49c.28.4.53.74,1.16,1.56,2.08,2.68,2.31,3,3.63,4.64l0-.43a56.78,56.78,0,0,0,.42-5.69,2,2,0,0,0,.44.11,2.09,2.09,0,0,0,.51,0,40.67,40.67,0,0,0-.7,5c-.1.91-.24,2.3-.27,3.13a1,1,0,0,0-.22,0h-.19c-.32-.48-1.86-2.6-2.6-3.43l-.54-.64-2-2.59Z"/><path class="cls-5" d="M76.12,128.87c.45,2.79.59,3.44,1,5.22a2,2,0,0,0-.49,0,2.08,2.08,0,0,0-.44.14c0-.59-.24-2.59-.41-3.79-.07-.46-.41-2.47-.47-2.89l-.21-1.39a.6.6,0,0,0,.19,0l.24-.06.45.4c.37.31.69.58,1.51,1.21,2.67,2.1,3,2.34,4.66,3.61L82,130.9a54.65,54.65,0,0,0-1-5.63,1.79,1.79,0,0,0,.47,0,2.08,2.08,0,0,0,.48-.15,42.44,42.44,0,0,0,.55,5c.13.9.34,2.29.51,3.1h-.22l-.19.05c-.42-.38-2.44-2.06-3.36-2.69-.23-.15-.45-.32-.68-.49l-2.6-2Z"/><path class="cls-5" d="M87.24,125.29l-.3,3.13,2.38-.75Zm-.34,3.76a19.23,19.23,0,0,0-.12,3.25,2,2,0,0,0-.47.08,2.31,2.31,0,0,0-.47.22c.3-2.48.8-6.63,1-8.89a2,2,0,0,0,.29,0,1.23,1.23,0,0,0,.23-.11c1.6,2.06,5.78,6.7,5.82,6.74a3,3,0,0,0-.68.14,4.22,4.22,0,0,0-.69.29,22,22,0,0,0-2-2.56Z"/><path class="cls-5" d="M93.5,122a16.66,16.66,0,0,0-2.29,1.24,1.48,1.48,0,0,0-.13-.39,1.53,1.53,0,0,0-.21-.35c.69-.24,2-.87,2.88-1.26,1-.48,2.17-1,2.81-1.38a2.92,2.92,0,0,0,.13.39,2.13,2.13,0,0,0,.22.35,15,15,0,0,0-2.33.9c.33.74.66,1.48,1,2.2.59,1.29,1.32,3,2.18,4.52a5.7,5.7,0,0,0-.71.25,2.71,2.71,0,0,0-.52.32c-.45-1.21-1.14-2.77-1.8-4.2-.45-1-.89-1.87-1.23-2.59"/><path class="cls-5" d="M98.55,118.62a2.4,2.4,0,0,0,.59-.27,2.88,2.88,0,0,0,.55-.41c.65,1.22,1.35,2.43,2.07,3.62,1.09,1.8,1.61,2.58,2.09,3.31a4.73,4.73,0,0,0-.65.31,5,5,0,0,0-.5.38c-.59-1.13-.86-1.66-2-3.62-.87-1.44-.92-1.53-2.1-3.32"/><path class="cls-5" d="M110.16,120c1.44-1.16,1.61-3,.11-4.89a4.71,4.71,0,0,0-1.8-1.43,3,3,0,0,0-2.9.56c-1.21,1-1.77,2.78-.12,4.84,1.43,1.77,3.3,2,4.71.92m1.11-5.77a4.19,4.19,0,0,1-.82,6.18,4,4,0,0,1-6-.49c-1.56-1.94-1.35-4.31.88-6.11,1.9-1.53,4.33-1.63,6,.42"/><path class="cls-5" d="M112.74,111c2.16,1.84,2.69,2.24,4.13,3.35a2.11,2.11,0,0,0-.38.33,1.48,1.48,0,0,0-.25.39c-.4-.43-1.85-1.83-2.77-2.62-.35-.31-1.91-1.62-2.22-1.9l-1.06-.92a.89.89,0,0,0,.14-.13,1.33,1.33,0,0,0,.14-.2h.6c.48,0,.9,0,1.94,0,3.39-.14,3.77-.15,5.89-.27l-.33-.29a56.43,56.43,0,0,0-4.4-3.63,1.81,1.81,0,0,0,.35-.3,1.75,1.75,0,0,0,.28-.43,43.28,43.28,0,0,0,3.69,3.48c.68.6,1.74,1.52,2.4,2a1.36,1.36,0,0,0-.17.16.65.65,0,0,0-.1.15c-.58,0-3.2,0-4.31.14l-.83.06-3.29.16Z"/><path class="cls-5" d="M37,24.68a1.81,1.81,0,0,0-.51.29,2.29,2.29,0,0,0-.52.48,28.66,28.66,0,0,0-1.9-2.65c-3.54-1.46-3.93-1.61-5.22-2.12a3.32,3.32,0,0,0,.64-.4,3.87,3.87,0,0,0,.61-.54,22.72,22.72,0,0,0,3.12,1.53,3.24,3.24,0,0,0,1,.36,3.87,3.87,0,0,0-.06-.85,27.77,27.77,0,0,0-.66-3.6,1.9,1.9,0,0,0,.48-.27,2.68,2.68,0,0,0,.38-.37c0,.78.29,3.93.45,5a4.22,4.22,0,0,0,.11.52c.09.14.23.32.37.52S36.38,24,37,24.68"/><path class="cls-5" d="M43.17,20.38c1.62-.88,2.13-2.69,1-4.79a4.64,4.64,0,0,0-1.52-1.73,3,3,0,0,0-3,0c-1.37.74-2.24,2.41-1,4.73,1.08,2,2.88,2.62,4.46,1.76M45.3,14.9a4.19,4.19,0,0,1-1.91,5.93c-2.24,1.22-4.61.72-5.85-1.56s-.56-4.49,2-5.85c2.15-1.17,4.55-.83,5.8,1.48"/><path class="cls-5" d="M55.1,14.16a4.86,4.86,0,0,0,.19.94,5.64,5.64,0,0,1-2.51,1.65,4,4,0,0,1-5.4-2.59c-.73-2.13,0-4.35,2.91-5.34a6.91,6.91,0,0,1,2.94-.34,3.81,3.81,0,0,0,.11,1.2l-.11,0a2.89,2.89,0,0,0-2.82-.41c-1.75.59-2.48,2.27-1.75,4.41.78,2.3,2.59,3,4.17,2.43a3.43,3.43,0,0,0,2.12-2Z"/><path class="cls-5" d="M58.56,12.75c.17,1.05.22,1.34.38,2.2a3.56,3.56,0,0,0-.63,0,3.72,3.72,0,0,0-.65.18c-.21-2.07-.28-2.73-.53-4.24-.14-.89-.2-1.17-.71-3.76a2.23,2.23,0,0,0,.66,0A2.73,2.73,0,0,0,57.72,7c0,.35.22,2.07.45,3.37.77-.1,1.55-.2,2.31-.32s1.43-.25,2.13-.38c-.23-1.58-.27-1.75-.6-3.37a2.22,2.22,0,0,0,.66,0,2.93,2.93,0,0,0,.63-.17c.21,1.94.49,3.84.77,5.56.15.93.22,1.31.46,2.43a3.89,3.89,0,0,0-.61,0,3.45,3.45,0,0,0-.65.18c-.07-.67-.22-1.91-.27-2.2l-.28-1.73c-.78.09-1.07.14-2.22.32s-1.34.22-2.21.38Z"/><path class="cls-5" d="M69.64,7.35l-1.18,2.91,2.49,0Zm-1.4,3.5a18.61,18.61,0,0,0-1,3.08,2.59,2.59,0,0,0-.48-.06,2.18,2.18,0,0,0-.51.08c1-2.29,2.67-6.12,3.46-8.24a2.33,2.33,0,0,0,.3,0,.69.69,0,0,0,.25,0c.94,2.44,3.62,8.08,3.64,8.12a4.21,4.21,0,0,0-.69-.06,5,5,0,0,0-.75.09,20.27,20.27,0,0,0-1.23-3Z"/><path class="cls-5" d="M87,9.23A4.3,4.3,0,0,0,84.47,8a7.89,7.89,0,0,0-1-.21c-.31,1-.62,2.18-.88,3.23-.52,2.07-.58,2.31-.83,3.44a8.74,8.74,0,0,0,1.2.37,4.22,4.22,0,0,0,2.48.05,3.61,3.61,0,0,0,2-2.62,3.37,3.37,0,0,0-.46-3m-3.6,6.23c-.11,0-1.49-.43-1.79-.5s-.57-.13-1.22-.26c.37-1.13.62-1.89,1.27-4.5.43-1.69.52-2.13.75-3.36.62.18,1.23.35,1.85.51,2,.51,3.12.78,4,1.88a3.57,3.57,0,0,1,.53,3.17C88,15.27,85.66,16,83.39,15.46"/><path class="cls-5" d="M94.85,14.44a1.9,1.9,0,0,0-.19.35,2.25,2.25,0,0,0-.09.35,14,14,0,0,0-1.64-.78L92.05,14c-.2.46-.41,1-.6,1.41s-.54,1.4-.65,1.69a26.46,26.46,0,0,0,2.9,1,1.9,1.9,0,0,0-.19.35,2.54,2.54,0,0,0-.1.36,13.14,13.14,0,0,0-1.48-.67c-.83-.34-1.69-.65-2.53-1,.39-.79.73-1.47,1.68-3.83.44-1.09,1-2.56,1.38-3.65.73.37,1.48.68,2.24,1a16.68,16.68,0,0,0,1.67.61,2.43,2.43,0,0,0-.2.36,1.57,1.57,0,0,0-.09.36,9.05,9.05,0,0,0-1.67-.84c-.39-.15-.58-.23-1.06-.4-.19.41-.27.6-.53,1.24s-.33.83-.55,1.41a20.57,20.57,0,0,0,2.58,1"/><path class="cls-5" d="M97.63,18.47c-.53.92-.68,1.17-1.1,1.94a3.12,3.12,0,0,0-1.12-.66c1.15-1.73,1.51-2.28,2.28-3.6.45-.78.59-1,1.84-3.36a2.41,2.41,0,0,0,.53.39,2.11,2.11,0,0,0,.6.27c-.2.29-1.14,1.75-1.79,2.9.66.41,1.32.82,2,1.21s1.25.72,1.88,1.06c.82-1.36.9-1.52,1.67-3a2.27,2.27,0,0,0,.53.39,2.44,2.44,0,0,0,.6.27c-1.07,1.64-2.06,3.28-2.94,4.78-.47.82-.66,1.16-1.19,2.18a3.32,3.32,0,0,0-.49-.37,3.71,3.71,0,0,0-.61-.27c.37-.56,1-1.62,1.19-1.87l.88-1.51c-.66-.43-.91-.58-1.92-1.17s-1.17-.68-1.95-1.11Z"/><path class="cls-5" d="M109.65,23.77a1.88,1.88,0,0,0-.29.28c-.08.1-.12.21-.19.31a16,16,0,0,0-1.34-1.22c-.25-.19-.52-.4-.76-.57l-1,1.18c-.38.48-.91,1.19-1.1,1.44A25.61,25.61,0,0,0,107.49,27a1.48,1.48,0,0,0-.28.28,1.35,1.35,0,0,0-.2.32,13.86,13.86,0,0,0-1.23-1.07c-.7-.56-1.44-1.1-2.16-1.63.6-.64,1.12-1.2,2.71-3.19.73-.92,1.69-2.17,2.35-3.11.6.57,1.23,1.07,1.87,1.58.46.37.93.73,1.43,1.06a1.59,1.59,0,0,0-.29.29,1.66,1.66,0,0,0-.2.32,8,8,0,0,0-1.36-1.28c-.32-.26-.49-.39-.9-.69-.3.34-.42.5-.85,1s-.56.7-.94,1.19a20.9,20.9,0,0,0,2.21,1.66"/></g></g></svg>