<?xml version="1.0" encoding="utf-8"?>
<!-- Generator: Adobe Illustrator 22.0.1, SVG Export Plug-In . SVG Version: 6.00 Build 0)  -->
<svg version="1.1" id="Layer_1" xmlns="http://www.w3.org/2000/svg" xmlns:xlink="http://www.w3.org/1999/xlink" x="0px" y="0px"
	 viewBox="0 0 3000 2531" style="enable-background:new 0 0 3000 2531;" xml:space="preserve">
<style type="text/css">
	.st0{fill-rule:evenodd;clip-rule:evenodd;fill:#FFFFFF;}
</style>
<path class="st0" d="M1443,0c129.5-0.9,260.9-2.9,370,19c17,2,34,4,51,6c96.7,21.8,188.6,49.1,273,82c48.6,18.9,97.7,32.1,144,52
	c32.2,13.9,63.2,37.5,92,55c17.6,10.7,37,15.4,54,26c46,28.7,85.2,66.2,127,99c29.3,24.7,58.7,49.3,88,74c21.1,16.7,45.2,34.2,62,55
	c58.2,72.3,113.9,142.2,163,225c63.4,106.9,100.5,236.5,126,381c20,113.4,5.6,248.4-29,329c-87.8,204.5-258.8,323.1-434,440
	c-94,62.7-197.1,117.3-266,205c-54,68.7-148.7,221.6-109,354c12.1,40.5,31.3,54.2,49,84c-1.3,2.7-2.7,5.3-4,8c-2.3-0.3-4.7-0.7-7-1
	c-42.4-20.4-71.7-130.4-58-201c28.1-145.3,98.5-230.2,177-323c26.1-30.9,64.7-54.2,98-78c23.3-18.3,46.7-36.7,70-55
	c35.7-28.7,71.3-57.3,107-86c17-18,34-36,51-54c57.9-46.8,112.7-105,153-169c26.5-42,48.3-89.6,62-144c22.9-91,11.9-219.6-7-305
	c-15.4-69.3-28.9-133.8-54-193c-9.1-21.3-22-41.3-32-61c-28.1-55.4-49.2-108-83-156c-35-49.6-76.1-94.6-114-142
	c-62.8-78.5-155.2-133.4-244-186c-95.6-56.7-203-110.6-318-145c-93.3-27.9-195.4-33.1-298-52c-61.5-11.3-131.8-15-205-15
	c-24.7,0.3-49.3,0.7-74,1c-42.7,6.9-86.1-0.5-126,6c-78.9,12.9-156.8,7-232,22c-33.7,6.3-67.3,12.7-101,19
	c-63,17.5-126.3,38.1-186,57c-104.5,33-201.6,64.4-286,117c-20.3,12.6-36.4,29.7-55,43c-39.9,28.5-82.1,52.8-111,92
	c-45.2,61.3-75.1,137.8-98,222c-2.3,18.7-4.7,37.3-7,56c-6.1,33.6-18.7,88.8-12,130c14.6,89.6,26.6,179.8,46,266c0.3,15,0.7,30,1,45
	c7.1,44.3,3.8,91,12,131c-20.6,2.2-28.7-33.7-33-51c-12.9-52.5-37.2-94.2-55-145c-26.1-74.6-48.3-143.8-65-228
	c-38.3-192.7,35.3-379.4,107-493c12.4-19.7,35.9-38.6,54-53c40.7-32.4,78.5-65.4,123-95c37-24.6,74.4-51,114-73
	c26-10.7,52-21.3,78-32c83.5-36.5,170.8-71.3,266-98c59.5-16.7,124-23,188-35c65-7.3,130-14.7,195-22c24.3-1.7,48.7-3.3,73-5
	C1357,3.3,1400,1.7,1443,0z"/>
<path class="st0" d="M1353,224c212.1-2,402.3,14.4,568,60c57,15.7,151.5,38.5,182,77c5-5,10-10,15-15c16.7-7.7,29.7-18,52-22
	c97.7-17.5,144.8,102.3,92,170c-68.9,88.3-219.7,10-170-116c-11.3-7.7-22.7-15.3-34-23c-26.3-15.7-58.7-27.2-90-37
	c-349.2-109.8-906.1-96.1-1201,48c52.9,82.8-27.2,198.8-128,157c-33.3-13.8-56.9-42.8-65-82c-13.5-65.6,51.1-134.7,119-122
	c24.2,4.5,39.9,14,56,26c1.7,1.3,3.3,2.7,5,4c12.7-6.3,25.3-12.7,38-19c26.7-10.3,53.3-20.7,80-31c67.3-26.4,143.9-37,221-53
	c54.4-11.3,112.8-7.9,170-18C1293,226.7,1323,225.3,1353,224z"/>
<path class="st0" d="M2177,340c-40.1,15.3-60.5,16-76,57c-22.3,58.9,30,127.6,94,116C2298.7,494.2,2292.4,338.6,2177,340z"/>
<path class="st0" d="M1095,752c17,0.3,34,0.7,51,1c1.7,2.7,3.3,5.3,5,8c-2.5,18.1-36,12.8-56,12c0,82.7,0,165.3,0,248
	c65.7,0,131.3,0,197,0c23.4,0,64.3-5.4,79,3c1.4,5.3,2.8,12.8,1,19c-74.7,0-149.3,0-224,0c-16.1,0-67.5,3.4-73-5c-5.9-9-2-56.8-2-72
	c0-64.3,0-128.7,0-193c-12.8,0.5-33.8,2.7-39-5c-0.7-3-1.3-6-2-9c1.3-2,2.7-4,4-6c12.3-0.3,24.7-0.7,37-1c0.3-78.3,0.7-156.7,1-235
	c2.9-3.7,5.3-5,10-7c5.1,2,7.7,3.1,10,8C1094.3,596,1094.7,674,1095,752z"/>
<path class="st0" d="M1407,510c2,0.3,4,0.7,6,1c4.2,1.7,5.2,2.9,7,7c0.3,44.7,0.7,89.3,1,134c0,63.3,0,126.7,0,190
	c0,27.9,3.8,63.7-2,88c-6.5,4.6-9.2,5-17,2c-10-22.3-3-88.7-3-119c0.3-99.3,0.7-198.7,1-298C1402.3,513.3,1404.7,511.7,1407,510z"/>
<path class="st0" d="M1568,535c2.7,0.3,5.3,0.7,8,1c16.5,18.5,24.1,46,37,68c16.7,31.3,33.3,62.7,50,94c0.3-0.7,0.7-1.3,1-2
	c24.7-42.3,49.3-84.7,74-127c6.5-10.9,10.2-23.5,19-32c2.3,0.3,4.7,0.7,7,1c2,2,4,4,6,6c0.3,96.7,0.7,193.3,1,290
	c0,23.7,5.2,80.3-4,95c-3,0.7-6,1.3-9,2c-2.3-2.3-4.7-4.7-7-7c-0.7-111-1.3-222-2-333c0,0.7,0,1.3,0,2c-24.3,42.3-48.7,84.7-73,127
	c44.4,13.2,35,98.8-24,86c-26.5-5.8-47.8-40.2-29-69c6.3-9.7,16.3-13.5,27-19c-22.7-43-45.3-86-68-129c-0.3,0-0.7,0-1,0
	c-0.3,112.3-0.7,224.7-1,337c-2,1.3-4,2.7-6,4c-2.7,0-5.3,0-8,0c-10.8-8.8-6-74.3-6-96c0.3-98,0.7-196,1-294
	C1563.3,538.3,1565.7,536.7,1568,535z"/>
<path class="st0" d="M2237,541c2.3,0.3,4.7,0.7,7,1c2,2,4,4,6,6c0,122.3,0,244.7,0,367c-6.6,5.2-11.4,5.9-19,1
	c-2.4-9.2-3.1-26.4-1-37c-0.3,0-0.7,0-1,0c-21.3,66.7-124.3,48.1-135-27c-6.2-43.6,44.8-86.1,91-72c23.3,7.1,30.5,22.7,45,38
	c-0.3-69.7-0.7-139.3-1-209C2229,586.4,2224,551.3,2237,541z"/>
<path class="st0" d="M360,558c30.7-0.6,46.5,14.4,55,36c66.7,3.3,133.3,6.7,200,10c11.2,3.1,22.7,11.7,29,20c49.6,66,65.5,246-7,300
	c-48.7,36.3-145.7,27.4-215,17c-14.3,56.8-111.1,42-101-19c10.1-60.9,90.3-62.6,103-3c61.4,18.6,178.3,19.2,211-23
	c47.3-61.2,33.8-205.3-9-260c-12.3-15.7-35-9.2-60-13c-49.7-2.3-99.3-4.7-149-7c-3.3,38-51.8,59-84,34c-21-16.4-25-59.4-3-78
	C338.8,564.6,348.1,562.9,360,558z"/>
<path class="st0" d="M434,653c22.2,1.1,15,31.2,15,53c0,38.3,0,76.7,0,115c0,18.8,1.9,42.5-2,58c-1.7,1.3-3.3,2.7-5,4
	c-2.7-0.3-5.3-0.7-8-1c-2-2-4-4-6-6c-0.3-56.3-0.7-112.7-1-169C427,687,423.9,663,434,653z"/>
<path class="st0" d="M2492,1035c-0.4-61.5,88.7-63.4,101-8c8.3,37.3-28.3,72.4-67,59c-16.8-5.8-21.2-18.6-32-30c-105,0-210,0-315,0
	c-52.7,0-109.6,3.9-130-29c-27.6-44.5-9.1-128.5-19-190c-5.2-32.1,8.6-68.9-18-79c-32.2-12.5-70.8,73.2-92,86c5.5,20,3.6,63.4-1,82
	c-2.7,1.7-5.3,3.3-8,5c-17.3-2.8-12-25.1-12-44c0.3-46,0.7-92,1-138c6.6-5.2,11.4-5.9,19-1c3.7,15.9,4.3,46.5,1,64
	c0.7-0.3,1.3-0.7,2-1c11-27.1,67.3-99.3,109-68c46.4,34.9,2.4,220.9,37,274c17.4,26.8,73.3,10.9,112,17
	C2284,1034.3,2388,1034.7,2492,1035z"/>
<path class="st0" d="M733,736c2.3,0.7,4.7,1.3,7,2c6.3,9.9,4,32,4,48c0,33.8,6.4,102.8-2,130c-3.7,1-7.3,2-11,3
	c-3.2-1.6-4.2-1.8-6-5c-5.5-9.1-2-33.9-2-47c0.3-42,0.7-84,1-126C727,739.3,730,737.7,733,736z"/>
<path class="st0" d="M2361,741c33.1-0.9,57.3,7.4,73,24c-0.3,2.7-0.7,5.3-1,8c-2.3,5-5.3,6.5-12,7c-10.8-8.1-24.1-14.1-40-17
	c-26.5-4.8-76.2,15.2-67,38c11.2,22,46.1,6.9,74,12c31.3,5.8,60.4,33.9,47,76c-19.4,61-151.1,68-129-13c5.1-4.1,13.6-8.3,18,0
	c9.2,13-7.9,26,17,36c39.4,15.8,89-17.2,72-58c-13.9-33.4-77.7-9.1-106-28c-7.9-5.3-12.4-13.1-15-24
	C2282,759.9,2334.1,752.3,2361,741z"/>
<path class="st0" d="M1841,744c7-0.1,9.4,0.9,12,5c5.4,9,2,33.1,2,46c-0.3,41.3-0.7,82.7-1,124c-5.8,3.9-16.5,7.7-20-2
	c0-15.3,0-30.7,0-46c0-34.2-7.2-95.5,2-124C1837.7,746,1839.3,745,1841,744z"/>
<path class="st0" d="M981,776c4,0.7,8,1.3,12,2c9.3,20.1,3,81.2,3,109c0,12.3,2.7,30.1-5,35c-2.4,1.6-3.6,1.8-8,2c-2.7-2-5.3-4-8-6
	C969.4,902.3,976.3,780.8,981,776z"/>
<path class="st0" d="M846,778c29.8-0.8,43,8.8,59,21c-2-6.6,0.1-12,2-17c3.5-1.8,7.3-4,12-2c2,2,4,4,6,6c0.3,67.3,0.7,134.7,1,202
	c0,16.4,4.9,56.2-4,62c-37.3,0.3-74.7,0.7-112,1c-88.7,0-177.3,0-266,0c-39.5,0-94.2-6.3-124,6c-89.3,36.9-19.7,267.9-52,368
	c-18.8,58.2-68.3,94-112,128c-53.6,41.7-103.9,88.9-157,131c-21.8,17.3-93.7,59.7-83,103c9.8,39.9,119.6,21.6,165,30
	c28.1,5.2,55.5,11.3,68,32c8.8,14.5,7.8,126.2,3,152c-1.7,1.3-3.3,2.7-5,4c-1.7-0.3-3.3-0.7-5-1c-2-1.7-4-3.3-6-5
	c0-46.3,0-92.7,0-139c-3.5-9.2-16.7-16.7-26-20c-57.8-20.4-195.4,13.8-210-49c-12.6-54.4,63.1-101.1,90-122
	c54-44.7,108-89.3,162-134c41.3-32.2,85-64.8,102-121c6.8-22.5,4-49.5,4-77c0-50.7,0-101.3,0-152c0-31.3-2.2-65.5,6-89
	c7.2-20.5,21.5-38.6,39-49c32.8-19.5,102.2-12,153-12c116.3,0,232.7,0,349,0c0-45.3,0-90.7,0-136c-10.5,8-20.8,16.6-36,20
	c-58.4,13-102.7-46.8-80-99C800.2,794.2,819.5,789.3,846,778z"/>
<path class="st0" d="M1251,793c17.5,0.7,40.2,13.7,46,7c0.3,0,0.7,0,1,0c6.4,0.4,6.4,1.5,10,4c14.7,29.7,29.3,59.3,44,89
	c4.3,8,17.8,22.8,15,33c-1.7,2-3.3,4-5,6c-1.7-0.3-3.3-0.7-5-1c-8.1-4.5-28.5-45.2-32-56c-0.3,0-0.7,0-1,0c-2,55.6-87.2,81.2-122,38
	c-29.5-36.5-20.5-87.9,16-110C1227.8,797.1,1238.9,797.6,1251,793z"/>
<path class="st0" d="M2162,794c-23.4,8.9-39.1,12.3-48,35c-15.3,38.9,17.7,81.6,59,74C2237.9,891,2234.4,794.6,2162,794z"/>
<path class="st0" d="M844,795c-19.3,9.5-35.3,15.4-42,37c-12.9,41.4,23.4,82.2,67,70C925.2,886.2,919.4,792.9,844,795z"/>
<path class="st0" d="M1247,810c-21.5,9.5-37.8,14.7-45,38c-11.5,37.4,19.6,77.8,58,71C1327.9,907,1325,808,1247,810z"/>
<path class="st0" d="M1980,847c46-1.9,51.3,50.5,17,64c0,78,0,156,0,234c154.7,179,309.3,358,464,537c35.1-13.1,56.9,36.2,32,56
	c-21.5,17.1-50.6,3.1-55-21c-1.7-9.6,3.2-16.1,5-23c-155.7-180-311.3-360-467-540c-0.7-81.3-1.3-162.7-2-244
	C1946,887,1949.4,864.5,1980,847z"/>
<path class="st0" d="M2543,901c99.4-1.4,174.9,94,132,194c-21.5,50-87.1,105-164,75c-28.9-11.3-43-30.6-63-50c-46,0-92,0-138,0
	c-21.9,0-49.5,2.4-68-2c-1.7-2.7-3.3-5.3-5-8c1.3-3.3,2.7-6.7,4-10c14.2-3.8,36.5-2,54-2c36.7,0,73.3,0,110,0c18.2,0,47.4-3.6,59,4
	c8.8,37.1,79.8,66,128,47c41.5-16.3,64-50.7,72-101c3.6-22.6-4.9-43.9-11-58c-32.3-74.9-139.9-93.8-187-19c-8.3,0-16.7,0-25,0
	c0-0.3,0-0.7,0-1c0.7-0.7,1.3-1.3,2-2c9.4-26.2,40.3-48.9,66-59C2520.3,906.3,2531.7,903.7,2543,901z"/>
<path class="st0" d="M729,938c62-0.6,65.7,81.7,11,92c-32.3,6.1-61.3-26-51-59C695.4,950.5,709.5,946,729,938z"/>
<path class="st0" d="M982,942c61-0.8,63.6,81.1,7,90c-28.8,4.5-55.4-26.4-47-56C948.1,954.4,961.9,950.1,982,942z"/>
<path class="st0" d="M1842,943c66.1-0.6,70.5,90.7,13,102c-37.5,7.4-69.5-27-59-64C1802.9,956.8,1819.2,951.9,1842,943z"/>
<path class="st0" d="M525,1085c146.5-2.7,151.8,184.5,23,206c-67.9,11.3-130.5-62.7-110-131c9.2-30.7,31.8-56.4,60-68
	C507,1089.7,516,1087.3,525,1085z"/>
<path class="st0" d="M531,1101c-37.3,14.6-58.9,17-74,54c-24.4,59.7,27.2,130.8,93,119C653.6,1255.5,647.5,1099.6,531,1101z"/>
<path class="st0" d="M2132,1121c30-0.5,45.1,12.8,51,36c4.1,16.1-9.9,27.3-3,34c92.7,114.3,185.3,228.7,278,343c22,27,44,54,66,81
	c9.1,11.7,27.6,24,30,41c-1,2-2,4-3,6c-3.3,1-6.7,2-10,3c-13.2-7.1-21.1-22.5-30-34c-25-30.7-50-61.3-75-92
	c-91.3-112-182.7-224-274-336c-9.8,2.1-21.1,7.8-34,4c-29.9-8.8-44.5-55.6-16-77C2118.7,1127,2125.3,1124,2132,1121z"/>
<path class="st0" d="M2272,1159c2.7,0.3,5.3,0.7,8,1c87.7,105,175.3,210,263,315c15.6,19.9,86.1,90.7,89,111c-1.3,2.3-2.7,4.7-4,7
	c-3,0.7-6,1.3-9,2c-21.1-11.3-67-76.3-84-98c-63.7-76.3-127.3-152.7-191-229c-20.3-24.3-40.7-48.7-61-73c-5.4-6.9-20.2-16.5-18-27
	C2266.5,1162.4,2268.4,1162.1,2272,1159z"/>
<path class="st0" d="M2472,1236c17.2,4.9,41.9,44.6,53,59c41.7,50.7,83.3,101.3,125,152c37.9-9.2,58.4,39.3,29,59
	c-31.1,20.8-61.4-16.4-46-46c-43.3-53.3-86.7-106.7-130-160c-9.2-11.8-42.1-41.2-40-57C2466,1240.7,2469,1238.3,2472,1236z"/>
<path class="st0" d="M2581,1236c16.1,6.3,24.3,25.1,34,38c25.3,32.7,50.7,65.3,76,98c10.4,13.7,32,29.7,35,49c-2.7,3-5.3,6-8,9
	c-2.7-0.3-5.3-0.7-8-1c-35.3-45.3-70.7-90.7-106-136c-9.9-13.2-32-29-33-49c1.3-2,2.7-4,4-6C2577,1237.3,2579,1236.7,2581,1236z"/>
<path class="st0" d="M2680,1238c2.7,0.3,5.3,0.7,8,1c9.9,4.9,15.5,17.5,22,26c19.3,24,38.7,48,58,72c0.4,10.7-3.2,14.6-13,15
	c-12-9.2-80.5-92.6-82-106C2675.3,1243.3,2677.7,1240.7,2680,1238z"/>
<path class="st0" d="M2767,1254c7.3-0.1,10.3,1.3,15,3c2.2,3.8,5.5,8.4,4,13c-0.7,5.9-2.5,7.3-5,11c-4,1.3-10.2,3.2-15,1
	c-6.5-2.8-9.2-7.4-9-17C2759.8,1259.4,2762.5,1257.7,2767,1254z"/>
<path class="st0" d="M1630,1275c17,2.1,31.9,26.7,41,38c27.3,29.3,54.7,58.7,82,88c122,131,244,262,366,393
	c34.3,36.7,68.7,73.3,103,110c7.6,7.8,35.5,28.2,31,42c-2,2.3-4,4.7-6,7c-18.6-1.1-32.6-25.4-42-37c-36.3-39-72.7-78-109-117
	c-112.7-121-225.3-242-338-363c-31.7-34-63.3-68-95-102c-12.7-15.7-33.4-27.7-42-47c0.3-1.7,0.7-3.3,1-5
	C1624.7,1279.7,1627.3,1277.3,1630,1275z"/>
<path class="st0" d="M2133,1430c27.4-1.2,44.6,20.4,32,45c62.3,71.7,124.7,143.3,187,215c13.5,16.9,62.6,58.3,65,79
	c-2,4.1-2.9,6-7,8c-2,0.3-4,0.7-6,1c-20.3-10.9-61.9-66.9-78-87c-59.3-67.7-118.7-135.3-178-203
	C2109.2,1500,2096.4,1450.2,2133,1430z"/>
<path class="st0" d="M2031,1450c2.3,0.3,4.7,0.7,7,1c80,91.3,160,182.7,240,274c18.7,21.3,37.3,42.7,56,64c5.6,6.9,21.7,14.9,17,28
	c-2,2-4,4-6,6c-2,0.3-4,0.7-6,1c-31.2-24.1-68.7-74.3-94-106c-74-84.3-148-168.7-222-253c0.3-2.7,0.7-5.3,1-8
	C2026.3,1454.7,2028.7,1452.3,2031,1450z"/>
<path class="st0" d="M1908,1451c15.3,3.2,83,83.9,96,100c87.3,96,174.7,192,262,288c32.9-4.7,59.1,28.8,32,51
	c-27.9,22.9-54.2-7.1-47-37c-90.7-99.7-181.3-199.3-272-299c-26.7-29.3-53.3-58.7-80-88c-1.8-6.1,2.3-10.1,4-13
	C1904.7,1452.3,1906.3,1451.7,1908,1451z"/>
<path class="st0" d="M1461,1488c19.9,0.7,32,24,43,35c34,34.3,68,68.7,102,103c122,124,244,248,366,372c29.7,30,59.3,60,89,90
	c10.1,10.1,31,22.2,33,39c-29.1,38.8-70.6,158.7-58,234c7.5,44.6,16.2,81.8,35,114c5.1,8.8,12.7,20,1,26c-18-8.9-27-44.9-34-65
	c-26.6-75.8-17-179.5,10-249c8-19.3,16-38.7,24-58c-120-122-240-244-360-366c-69.7-70.7-139.3-141.3-209-212
	c-15.7-17.7-35.3-31.3-49-51C1455.1,1493.3,1457.2,1491.6,1461,1488z"/>
<path class="st0" d="M2688,1502c10.8,1.2,16.4,6.5,16,19c-4.8,10.6-13.3,12.7-25,8c-1.7-3.3-3.3-6.7-5-10
	C2675.1,1507.6,2679.8,1506.2,2688,1502z"/>
<path class="st0" d="M1742,1675c16,1.3,23.1,17.1,32,26c25.7,26.3,51.3,52.7,77,79c98.7,100.7,197.3,201.3,296,302
	c0.4,10.7-3.2,14.6-13,15c-32.9-25.1-62.6-60.1-90-91c-72.3-73.7-144.7-147.3-217-221c-24-24.7-48-49.3-72-74
	c-6.4-6.4-24.1-16.4-20-29C1737.3,1679.7,1739.7,1677.3,1742,1675z"/>
<path class="st0" d="M1869,1677c16,1.7,63.1,58.5,74,72c58,61,116,122,174,183c13.3,14,26.7,28,40,42c4.3-0.3,8.7-0.7,13-1
	c12.3,2.5,22.3,12,25,24c11.2,50.6-79.7,40.1-55-10c-93-98.3-186-196.7-279-295c0.3-2.7,0.7-5.3,1-8
	C1864.3,1681.7,1866.7,1679.3,1869,1677z"/>
<path class="st0" d="M1277,1831c3,0.3,6,0.7,9,1c-0.2,21.1,2.3,43.5,4,59c-10,3.5-6.8,12.9-15,17c-1.3-7.7-6.3-10.5-8-16
	c0-19,0-38,0-57C1270.3,1833.7,1273.7,1832.3,1277,1831z"/>
<path class="st0" d="M1292,1831c6.3,0,12.7,0,19,0c-0.5,58.9,48.3,71.5,74,105c0.3,53.7,0.7,107.3,1,161c2.7,1.7,5.3,3.3,8,5
	c0,7.3,0,14.7,0,22c-8.3,4.1-15.3,8.1-27,9c-0.3-0.3-0.7-0.7-1-1c-0.1-45.2,0.8-94,2-136c-15.7-15.7-31.3-31.3-47-47
	c6-4.7,12-9.3,18-14c3,2.7,6,5.3,9,8c-0.6,9.8,2,13.8,10,15c4.9-4.4,7.8-5.5,8-15c-8.7-3.4-15.4-12.2-24-14c1-50.8-16-37.3-50-50
	C1292,1863,1292,1847,1292,1831z"/>
<path class="st0" d="M1317,1831c6.3,0.3,12.7,0.7,19,1c-0.3,21.3,37.3,66.8,51,70c7.3,1.7,15-1.1,22,1c0.3,0.7,0.7,1.3,1,2
	c0,16.7,0,33.3,0,50c-6.7,5.4-9,12.7-19,15c0.3-10.8,3.4-31.1,0-36c-9.5-19.7-56.7-57.8-74-76C1317,1849,1317,1840,1317,1831z"/>
<path class="st0" d="M1342,1831c16,3,45.7,11.6,56,22c-1.1,8-5.2,11.8-5,19c0.7,0.7,1.3,1.3,2,2c5,1.6,7.4,2.2,12,0
	c0.7-1.7,1.3-3.3,2-5c1,0.7,2,1.3,3,2c4,9.4,23.7,56.7,4,66c0.3-13,0.7-26,1-39c-0.7-1.3-1.3-2.7-2-4c-8,0.7-16,1.3-24,2
	c-16.3-17-32.7-34-49-51C1342,1840.3,1342,1835.7,1342,1831z"/>
<path class="st0" d="M1259,1835c9.7,13.9-3.4,45.9,2,64c2.5,8.4,11.8,11,16,17c1.7,6.7,3.3,13.3,5,20c7.3,11,16.3,5.7,29,12
	c1.3,0.6,46.7,45.9,48,48c4.6,7.2,2,26.2,2,37c-0.3,34.7-0.7,69.3-1,104c-8.7,1.3-17.3,2.7-26,4c3.3-5.7,6.7-11.3,10-17
	c2.1-10.4-2.1-32.1-2-46c0.1-14.2,5.9-18.5,8-29c2.6-13.1-6-19.9-8-28c-1.9-7.6,3.8-9.6,0-16c-5-4-10-8-15-12
	c-17.3-17.1-79.9-71.3-85-92c0-19.3,0-38.7,0-58C1247.7,1840.3,1253.3,1837.7,1259,1835z"/>
<path class="st0" d="M752,1980c5.3,0,10.7,0,16,0c0,10.3,0,20.7,0,31c-14.3,0.3-28.7,0.7-43,1c-2-12.4-8.1-50.2-4-61
	c1.9-5,5.5-4.5,6-14c-1-0.7-2-1.3-3-2c-2-0.7-4-1.3-6-2c-1.3,1.3-2.7,2.7-4,4c0,0,0.8,67.2,1,80c34.4-0.1,57.3,4,90,4
	c0,22.3,0,44.7,0,67c-6,0-12,0-18,0c4.1-12.3,15-35.4,6-51c-30.9-6.7-77.5,5.2-105-2c-1.7-4.6-2.9-6.8-3-14c2.7,0,5.3,0,8,0
	c0-29.7,0-59.3,0-89c-2.7,1.7-5.3,3.3-8,5c0-2.3,0-4.7,0-7c7.1-27-0.1-68.6,8-93c6.3,0.3,12.7,0.7,19,1c0,19.3,0,38.7,0,58
	c13.3,13.3,26.7,26.7,40,40C752,1950.7,752,1965.3,752,1980z"/>
<path class="st0" d="M717,1838c6.3,0.3,12.7,0.7,19,1c-0.8,35.2,8.6,53.5,32,63c0,24,0,48,0,72c-5.3-0.3-4.8,0.2-7-3
	c-5.1-9.1,0.9-30.8-5-40c-10.1-15.8-36.1-21.2-41-42C715.7,1872,716.3,1855,717,1838z"/>
<path class="st0" d="M742,1838c7.7,0.3,15.3,0.7,23,1c0.2,17.9,8.2,38.5,2,54c-5.3-5.3-10.7-10.7-16-16c-3-2.3-6-4.7-9-7
	C742,1859.3,742,1848.7,742,1838z"/>
<path class="st0" d="M274,1843c-0.3,54.3-0.7,108.7-1,163c-6,0-12,0-18,0c-0.4-56.9,0.9-117,8-163C266.7,1843,270.3,1843,274,1843z"
	/>
<path class="st0" d="M279,1843c6.3,0,12.7,0,19,0c0,40.7,0,81.3,0,122c9.1,6.7,27.4,21.7,31,33c-0.3,0-0.7,0-1,0
	c-9.3,0.4-8.6,6.6-15,8c-4.2,0.9-7.1-6.5-14-2c-0.3,0.3-0.7,0.7-1,1c-0.6,3.6-0.4,3-2,5c-5.7-1.3-11.3-2.7-17-4
	C279,1951.7,279,1897.3,279,1843z"/>
<path class="st0" d="M303,1843c6.3,0.3,12.7,0.7,19,1c-0.1,18.4-3.6,105.2,0,111c6.4,10.1,27.3,21.7,36,33c-12,7.1-23.7,3.9-30-1
	c-8.3-8.7-16.7-17.3-25-26C303,1921.7,303,1882.3,303,1843z"/>
<path class="st0" d="M327,1843c6,0,12,0,18,0c0,22,0,44,0,66c-6,0-12,0-18,0C327,1887,327,1865,327,1843z"/>
<path class="st0" d="M351,1843c6,0,12,0,18,0c0,22,0,44,0,66c-6,0-12,0-18,0C351,1887,351,1865,351,1843z"/>
<path class="st0" d="M375,1843c6,0,12,0,18,0c-0.3,20.6-3.4,52.1,4,66c-7.3,0-14.7,0-22,0C375,1887,375,1865,375,1843z"/>
<path class="st0" d="M399,1843c6.3,0.3,12.7,0.7,19,1c-0.3,15.7-0.7,31.3-1,47c13.7,0,27.3,0,41,0c0,6,0,12,0,18
	c-23.4,0.5-46.5,1.6-59-8C399,1881.7,399,1862.3,399,1843z"/>
<path class="st0" d="M423,1843c10,0,20,0,30,0c0,8,0,16,0,24c3.6,0.6,3,0.4,5,2c-0.3,5.7-0.7,11.3-1,17c-13.9,0.1-23.1,1.6-34,0
	C423,1871.7,423,1857.3,423,1843z"/>
<path class="st0" d="M919,1843c-0.3,54.3-0.7,108.7-1,163c-6,0-12,0-18,0c-0.4-56.9,0.9-117,8-163C911.7,1843,915.3,1843,919,1843z"
	/>
<path class="st0" d="M924,1843c6.3,0,12.7,0,19,0c0,40.7,0,81.3,0,122c9.1,6.7,27.4,21.7,31,33c-0.3,0-0.7,0-1,0
	c-9.3,0.4-8.6,6.6-15,8c-4.2,0.9-7.1-6.5-14-2c-0.3,0.3-0.7,0.7-1,1c-0.6,3.6-0.4,3-2,5c-5.7-1.3-11.3-2.7-17-4
	C924,1951.7,924,1897.3,924,1843z"/>
<path class="st0" d="M948,1843c6.3,0.3,12.7,0.7,19,1c-0.1,18.4-3.6,105.2,0,111c6.4,10.1,27.3,21.7,36,33c-12,7.1-23.7,3.9-30-1
	c-8.3-8.7-16.7-17.3-25-26C948,1921.7,948,1882.3,948,1843z"/>
<path class="st0" d="M972,1843c6,0,12,0,18,0c0,22,0,44,0,66c-6,0-12,0-18,0C972,1887,972,1865,972,1843z"/>
<path class="st0" d="M996,1843c6,0,12,0,18,0c0,22,0,44,0,66c-6,0-12,0-18,0C996,1887,996,1865,996,1843z"/>
<path class="st0" d="M1020,1843c6,0,12,0,18,0c-0.3,20.6-3.4,52.1,4,66c-7.3,0-14.7,0-22,0C1020,1887,1020,1865,1020,1843z"/>
<path class="st0" d="M1044,1843c6.3,0.3,12.7,0.7,19,1c-0.3,15.7-0.7,31.3-1,47c13.7,0,27.3,0,41,0c0,6,0,12,0,18
	c-23.4,0.5-46.5,1.6-59-8C1044,1881.7,1044,1862.3,1044,1843z"/>
<path class="st0" d="M1068,1843c10,0,20,0,30,0c0,8,0,16,0,24c3.6,0.6,3,0.4,5,2c-0.3,5.7-0.7,11.3-1,17c-13.9,0.1-23.1,1.6-34,0
	C1068,1871.7,1068,1857.3,1068,1843z"/>
<path class="st0" d="M1233,1848c1,0,2,0,3,0c0,21,0,42,0,63c17.7,17.7,35.3,35.3,53,53c13,10.5,29.5,24.3,38,39c-1.7,0-3.3,0-5,0
	c-8-3.9-18.2-3.6-25,1c-18.1-12.8-35.7-28.2-44-51c-11.6-0.9-17.9,2.2-16,12c21.8,8.9,38.5,24.9,53,41c0,0.7,0,1.3,0,2
	c-6.4,4.5-11.6,9.3-12,20c-8.6-2.7-47.9-41.7-53-50c3.7-1.3,7.3-2.7,11-4c-0.3-0.7-0.7-1.3-1-2c-6-3-12-6-18-9
	c-0.3-26.1-5.6-93,5-108C1225.7,1852.7,1229.3,1850.3,1233,1848z"/>
<path class="st0" d="M676,1858c5.3,4,3.2,77.8,3,92c-5.7,5.7-11.3,11.3-17,17c-0.7-0.3-1.3-0.7-2-1c1.3-30.7,2.7-61.3,4-92
	C668,1868.7,672,1863.3,676,1858z"/>
<path class="st0" d="M1208,1869c1,0,2,0,3,0c-0.3,28.3-0.7,56.7-1,85c-1-0.7-2-1.3-3-2C1193,1917.6,1195.8,1902.1,1208,1869z"/>
<path class="st0" d="M652,1887c5.1,5.4,2.2,77.8,2,92c-5.3,5.3-10.7,10.7-16,16c-0.7-0.3-1.3-0.7-2-1c1-30,2-60,3-90
	C643.3,1898.3,647.7,1892.7,652,1887z"/>
<path class="st0" d="M630,2021c0,15,0,30,0,45c8.2,4.4,17.4,12.1,20,22c-0.3,0.3-0.7,0.7-1,1c-12.6,0.4-26,0.8-33-4
	c-9.5-33.5-12-159.1,14-170c0,30.7,0,61.3,0,92c-4.7,4.7-9.3,9.3-14,14C620.7,2021,625.3,2021,630,2021z"/>
<path class="st0" d="M423,2121c0-25.7,0-51.3,0-77c-32-31.3-64-62.7-96-94c0.3-1.3,0.7-2.7,1-4c8.8-2.7,14.8-6.6,26-7
	c8.8,19.2,44,39,52,56c1.9,4.1-0.5,6.3,2,9c5.9,2.3,10.2-1.4,14-4c0-2.7,0-5.3,0-8c-0.7-0.7-1.3-1.3-2-2c-4.3-0.3-8.7-0.7-13-1
	c-4.4-14.4-35.6-38.6-47-49c0-0.3,0-0.7,0-1c11,0.3,22,0.7,33,1c0.9,0.4,49,47,49,47c0,41,0,82,0,123
	C436,2115.3,434.1,2120.3,423,2121z"/>
<path class="st0" d="M1068,2121c0-25.7,0-51.3,0-77c-32-31.3-64-62.7-96-94c0.3-1.3,0.7-2.7,1-4c8.8-2.7,14.8-6.6,26-7
	c8.8,19.2,44,39,52,56c1.9,4.1-0.5,6.3,2,9c5.9,2.3,10.2-1.4,14-4c0-2.7,0-5.3,0-8c-0.7-0.7-1.3-1.3-2-2c-4.3-0.3-8.7-0.7-13-1
	c-4.4-14.4-35.6-38.6-47-49c0-0.3,0-0.7,0-1c11,0.3,22,0.7,33,1c6.7,3.2,43.6,40.9,49,48c0,40.7,0,81.3,0,122
	C1081,2115.3,1079.1,2120.3,1068,2121z"/>
<path class="st0" d="M408,1943c24.1,3.9,50.8,27.4,58,48c0,27.3,0,54.7,0,82c-2.1,5.7-13,25.8-19,28c0-39.7,0-79.3,0-119
	C440.1,1977,409.1,1947.7,408,1943z"/>
<path class="st0" d="M1053,1943c24.1,3.9,50.8,27.4,58,48c0,27.3,0,54.7,0,82c-2.1,5.7-13,25.8-19,28c0-39.7,0-79.3,0-119
	C1085.1,1977,1054.1,1947.7,1053,1943z"/>
<path class="st0" d="M602,1944c1,0,2,0,3,0c0,46,0,92,0,138c1.6,3.5,3.9,2.5,4,7c-7.3,0-14.7,0-22,0c0-1,0-2,0-3c5-1.5,4.1-1.9,4-8
	c-2-7.2-3.6-107.1,0-118C594.7,1954.7,598.3,1949.3,602,1944z"/>
<path class="st0" d="M894,2002c-3.3-0.3-6.7-0.7-10-1c0-0.3,0-0.7,0-1c2.7-17.7,5.3-35.3,8-53c0.7,0,1.3,0,2,0
	C894,1965.3,894,1983.7,894,2002z"/>
<path class="st0" d="M581,2089c-5-0.3-10-0.7-15-1c-0.6-45-4.4-88.7,13-116c0.7,0.3,1.3,0.7,2,1C581,2011.7,581,2050.3,581,2089z"/>
<path class="st0" d="M1392,1976c6,4,12,8,18,12c0.3,32,0.7,64,1,96c2.8,5.1,8.3,5.9,12,10c-7.3,8.7-14.7,17.3-22,26
	c-0.7-0.3-1.3-0.7-2-1c-0.1-16.9-3.1-19.3-8-28C1391.3,2052.7,1391.7,2014.3,1392,1976z"/>
<path class="st0" d="M1216,1984c6.5,0.9,56.2,46.9,58,51c0,6.3,0,12.7,0,19c2.7,13.4,14,17.8,12,35c0,0.7,0,1.3,0,2
	c-4.3,19.6-23.9,24.9-30,46c-0.3,0-0.7,0-1,0c-5.7-2.7-11.3-5.3-17-8c-0.3-7.3-0.7-14.7-1-22c-17.8-11.3-36.5-29.4-49-46
	c-0.6-27.3,4.9-42.5,12-60c6.6,2.1,49,44.1,57,52c0.5,18.4-3.6,20.8-9,31c2.3,4.5,3.5,5.7,8,8c1.7-0.3,3.3-0.7,5-1c1.7-2,3.3-4,5-6
	c0.7-4.6-3-27.8-5-38c-19.7-14.3-41.9-34.2-57-53c2-2.3,4-4.7,6-7C1212,1986,1214,1985,1216,1984z"/>
<path class="st0" d="M556,2088c-4.7,0-9.3,0-14,0c-0.7-29.2-6.7-78.5,14-87C556,2030,556,2059,556,2088z"/>
<path class="st0" d="M1416,2001c2.3,0.3,4.7,0.7,7,1c3.9,25.4,18.5,40.2,7,73c-2.2,6.3-0.6,9.7-7,12
	C1411.4,2070.2,1415.7,2028.8,1416,2001z"/>
<path class="st0" d="M388,2019c10,10,20,20,30,30c0.2,13.3,3,74.4-2,80c-5.7,1.7-11.3,3.3-17,5c0-25.7,0-51.3,0-77
	C392.4,2046.9,382.1,2039.6,388,2019z"/>
<path class="st0" d="M1033,2019c10,10,20,20,30,30c0.2,13.3,3,74.4-2,80c-5.7,1.7-11.3,3.3-17,5c0-25.7,0-51.3,0-77
	C1037.4,2046.9,1027.1,2039.6,1033,2019z"/>
<path class="st0" d="M636,2021c6,0,12,0,18,0c0,11,0,22,0,33c5.5,15.2,27.7,19.4,33,35c-7.3,0-14.7,0-22,0
	C643.3,2075.1,635.4,2058.2,636,2021z"/>
<path class="st0" d="M660,2021c6.3,0,12.7,0,19,0c0,6.7,0,13.3,0,20c14.1,0.6,103.6-1.1,106,4c5,3.2,6.5,24.7,3,32
	c-2.4,5-7.7,8-12,11c-2.7,0-5.3,0-8,0c0,17.7,0,35.3,0,53c-3.3,0-6.7,0-10,0c-0.5-28.4-2.6-54.6,8-72c-1-6.4-2.8-7-10-7
	c-4.1,2.1-5.2,3.7-8,7c3.7,19.1,4,47.1,4,72c-6.3,0-12.7,0-19,0c0.3-13.7,0.7-27.3,1-41c-6.5-2.8-16.5-1.1-25-4
	c-11.4-3.9-43.8-37.1-48-49C660.7,2038.3,660.3,2029.7,660,2021z"/>
<path class="st0" d="M952,2047c1.7,0.3,3.3,0.7,5,1c0.3,2,0.7,4,1,6c-3.9-1-3-0.4-5-3C952.7,2049.7,952.3,2048.3,952,2047z"/>
<path class="st0" d="M345,2142c-11.1,0.3-19.3-1.2-26-5c2.7-2.3,5.3-4.7,8-7c-8.2-43.5-29.9-47.4-48-77c0.3-0.7,0.7-1.3,1-2
	c7,0,14,0,21,0c12.7,17.6,29.7,29.3,44,45C345,2111.3,345,2126.7,345,2142z"/>
<path class="st0" d="M990,2142c-11.1,0.3-19.3-1.2-26-5c2.7-2.3,5.3-4.7,8-7c-8.2-43.5-29.9-47.4-48-77c0.3-0.7,0.7-1.3,1-2
	c7,0,14,0,21,0c12.7,17.6,29.7,29.3,44,45C990,2111.3,990,2126.7,990,2142z"/>
<path class="st0" d="M265,2055c1,0,2,0,3,0c15,15,30,30,45,45c0.3,16.4-1.4,26.4-5,38c-35.2-0.5-77.1-45.8-81-79c3,0,6,0,9,0
	C245.7,2057.7,255.3,2056.3,265,2055z"/>
<path class="st0" d="M388,2055c1.7,1.7,3.3,3.3,5,5c-0.3,26-0.7,52-1,78c-5.7-0.3-11.3-0.7-17-1C374.4,2099,374.3,2077.8,388,2055z"
	/>
<path class="st0" d="M910,2055c1,0,2,0,3,0c15,15,30,30,45,45c0.3,16.4-1.4,26.4-5,38c-35.2-0.5-77.1-45.8-81-79c3,0,6,0,9,0
	C890.7,2057.7,900.3,2056.3,910,2055z"/>
<path class="st0" d="M1033,2055c1.7,1.7,3.3,3.3,5,5c-0.3,26-0.7,52-1,78c-5.7-0.3-11.3-0.7-17-1
	C1019.4,2099,1019.3,2077.8,1033,2055z"/>
<path class="st0" d="M720,2063c-3,2-6,4-9,6c0.3,2.7,0.7,5.3,1,8c1,0.3,2,0.7,3,1c3.9,1.6,7.1,0.1,11-1c3-5.7,3.4-8.7,0-14
	C724,2063,722,2063,720,2063z"/>
<path class="st0" d="M1193,2076c10.4,7.6,39,31.8,39,48C1215.4,2120.4,1190.9,2094.6,1193,2076z"/>
<path class="st0" d="M1300,2141c1.2-15.6,12.3-15.1,17-25c3.7-7.9,0-17.1,0-28c6.3-2.3,12.7-4.7,19-7c0.7,30.8,3.7,45.3-14,60
	C1314.7,2141,1307.3,2141,1300,2141z"/>
<path class="st0" d="M1311,2089c0.4,7.7,1.9,23.8-2,28c-6.8,9.1-15.7,12.3-27,17c0,2.3,0,4.7,0,7c-9.2,0-13.4-2.4-20-5c0-3,0-6,0-9
	c11.6-8.6,23.8-19.8,32-32c-0.7-3.3-1.3-6.7-2-10C1298.3,2086.3,1304.7,2087.7,1311,2089z"/>
<path class="st0" d="M369,2088c0,18,0,36,0,54c-6,0-12,0-18,0c0-16.7,0-33.3,0-50C357,2090.7,363,2089.3,369,2088z"/>
<path class="st0" d="M1014,2088c0,18,0,36,0,54c-6,0-12,0-18,0c0-16.7,0-33.3,0-50C1002,2090.7,1008,2089.3,1014,2088z"/>
<path class="st0" d="M727,2142c-4.7,0-9.3,0-14,0c-4.5-10.9-13.7-16-20-25c0-7.3,0-14.7,0-22c13,4.3,13.4,8.6,31,8
	C727.4,2112.3,727.2,2128.3,727,2142z"/>
<path class="st0" d="M693,2142c0-3.3,0-6.7,0-10c6.2,1.4,10.1,5.1,10,10C699.7,2142,696.3,2142,693,2142z"/>
<path class="st0" d="M2078,2502c9-0.2,12,1.7,17,5c4.9,14.2-0.2,27.4-19,23c-5.2-3.7-7.9-6.9-8-16c0.7-2,1.3-4,2-6
	C2072.7,2506,2075.3,2504,2078,2502z"/>
</svg>
