<?xml version="1.0" encoding="UTF-8"?>
<svg id="Layer_1" xmlns="http://www.w3.org/2000/svg" version="1.1" viewBox="0 0 792 288">
  <!-- Generator: Adobe Illustrator 30.2.1, SVG Export Plug-In . SVG Version: 2.1.1 Build 1)  -->
  <defs>
    <style>
      .st0 {
        fill: #010101;
      }
    </style>
  </defs>
  <g>
    <path class="st0" d="M106.1,148l-20.2-19.7V57.7h-11.2v101.1h14.1c4-6.1,9.7-9.4,17.3-10.7Z"/>
    <rect class="st0" x="116.9" y="57.7" width="11.2" height="42.9"/>
    <rect class="st0" x="130.9" y="57.7" width="11.2" height="42.9"/>
    <rect class="st0" x="60.7" y="57.7" width="11.2" height="101.1"/>
    <path class="st0" d="M142.1,114.5c-3.1-.4-6.2-.6-9.4-.6s-7.9.2-11.8.7l30.1,30.1c1-.7,2.2-1.1,3.6-1.1,3.4,0,6.2,2.8,6.2,6.2s-2.8,6.2-6.2,6.2-6.2-2.8-6.2-6.2.3-2,.7-2.9l-31.8-31.8c-5,.8-9.9,2.2-14.5,4.2v2.9l56.2,54.3v48.1c4.1-2.2,7.8-4.8,11.2-7.6v-73.8l-28.1-28v-.8Z"/>
    <rect class="st0" x="102.8" y="57.7" width="11.2" height="42.9"/>
    <path class="st0" d="M187.1,191.9c1.8-5.8,2.8-12,2.8-18.5s-1-15.2-2.8-21.5v40Z"/>
    <path class="st0" d="M142.1,231.3v-48.2l-3.9-3.8c-3.1,8.6-11.4,14.5-21.4,15.8v40c3.9-.2,7.6-.5,11.2-.9v-40.2h2.9v39.8c3.9-.6,7.7-1.4,11.2-2.4Z"/>
    <polygon class="st0" points="46.7 158.7 57.8 158.7 57.8 70.2 46.7 132.4 46.7 158.7"/>
    <path class="st0" d="M57.8,177.9h-11.2v32.5c2.9,3.8,6.6,7.4,11.2,10.6v-43.1Z"/>
    <path class="st0" d="M113.9,195.3c-.4,0-.8,0-1.2,0-7.8,0-14.9-1.8-19.9-5.8-3.5-2.8-6-7.1-7.1-11.6h-11v3.3l22.7,23v6.7c2.8.6,4.9,3.1,4.9,6.1s-2.8,6.2-6.2,6.2-6.2-2.8-6.2-6.2,2-5.3,4.7-6v-5.6l-22.7-23v-4.5h-11.2v45.1c11.4,7.2,27.7,12.1,50.5,12.1s1.8,0,2.7,0v-39.8Z"/>
    <path class="st0" d="M88.8,127.1l21,20.4c1.4-.1,2.9-.2,4.5-.2,5.3,0,10,1.1,13.9,3.2l-28.2-27.2v-2.7c-1.9,1-3.8,2.2-5.6,3.5l-.5-.5,5-23.2h1.1v-42.9h-11.2v69.5Z"/>
    <path class="st0" d="M43.8,177.9h-7.7c-.6,7.1,1,18.1,7.7,28.5v-28.5Z"/>
    <path class="st0" d="M184.2,144c-7.4-16.5-21.4-25.8-38.2-28.9l27,26.9v72.4c4.7-4.5,8.4-9.7,11.2-15.4v-55.1Z"/>
    <polygon class="st0" points="180.6 88.1 156.1 88.1 156.1 57.7 145 57.7 145 100.5 180.6 100.5 180.6 88.1"/>
    <path class="st0" d="M156.1,226.1v-48.3l-20-19.3c2.2,3.7,3.3,8.2,3.3,13.5s-.1,2.9-.4,4.2l5.9,5.7v48.6c4-1.2,7.7-2.7,11.2-4.4Z"/>
    <polygon class="st0" points="173.1 72.6 170.2 72.6 170.2 57.7 159 57.7 159 85.2 180.6 85.2 180.6 57.7 173.1 57.7 173.1 72.6"/>
    <polygon class="st0" points="43.8 148.4 41.9 158.7 43.8 158.7 43.8 148.4"/>
  </g>
  <g>
    <path class="st0" d="M480.7,148l-20.2-19.7V57.7h-11.2v101.1h14.1c4-6.1,9.7-9.4,17.3-10.7Z"/>
    <rect class="st0" x="491.4" y="57.7" width="11.2" height="42.9"/>
    <rect class="st0" x="505.5" y="57.7" width="11.2" height="42.9"/>
    <rect class="st0" x="435.3" y="57.7" width="11.2" height="101.1"/>
    <path class="st0" d="M516.6,114.5c-3.1-.4-6.2-.6-9.4-.6s-7.9.2-11.8.7l30.1,30.1c1-.7,2.2-1.1,3.6-1.1,3.4,0,6.2,2.8,6.2,6.2s-2.8,6.2-6.2,6.2-6.2-2.8-6.2-6.2.3-2,.7-2.9l-31.8-31.8c-5,.8-9.9,2.2-14.5,4.2v2.9l56.2,54.3v48.1c4.1-2.2,7.8-4.8,11.2-7.6v-73.8l-28.1-28v-.8Z"/>
    <rect class="st0" x="477.4" y="57.7" width="11.2" height="42.9"/>
    <path class="st0" d="M561.6,191.9c1.8-5.8,2.8-12,2.8-18.5s-1-15.2-2.8-21.5v40Z"/>
    <path class="st0" d="M516.6,231.3v-48.2l-3.9-3.8c-3.1,8.6-11.4,14.5-21.4,15.8v40c3.9-.2,7.6-.5,11.2-.9v-40.2h2.9v39.8c3.9-.6,7.7-1.4,11.2-2.4Z"/>
    <polygon class="st0" points="421.2 158.7 432.4 158.7 432.4 70.2 421.2 132.4 421.2 158.7"/>
    <path class="st0" d="M432.4,177.9h-11.2v32.5c2.9,3.8,6.6,7.4,11.2,10.6v-43.1Z"/>
    <path class="st0" d="M488.5,195.3c-.4,0-.8,0-1.2,0-7.8,0-14.9-1.8-19.9-5.8-3.5-2.8-6-7.1-7.1-11.6h-11v3.3l22.7,23v6.7c2.8.6,4.9,3.1,4.9,6.1s-2.8,6.2-6.2,6.2-6.2-2.8-6.2-6.2,2-5.3,4.7-6v-5.6l-22.7-23v-4.5h-11.2v45.1c11.4,7.2,27.7,12.1,50.5,12.1s1.8,0,2.7,0v-39.8Z"/>
    <path class="st0" d="M463.3,127.1l21,20.4c1.4-.1,2.9-.2,4.5-.2,5.3,0,10,1.1,13.9,3.2l-28.2-27.2v-2.7c-1.9,1-3.8,2.2-5.6,3.5l-.5-.5,5-23.2h1.1v-42.9h-11.2v69.5Z"/>
    <path class="st0" d="M418.3,177.9h-7.7c-.6,7.1,1,18.1,7.7,28.5v-28.5Z"/>
    <path class="st0" d="M558.8,144c-7.4-16.5-21.4-25.8-38.2-28.9l27,26.9v72.4c4.7-4.5,8.4-9.7,11.2-15.4v-55.1Z"/>
    <polygon class="st0" points="555.1 88.1 530.7 88.1 530.7 57.7 519.5 57.7 519.5 100.5 555.1 100.5 555.1 88.1"/>
    <path class="st0" d="M530.7,226.1v-48.3l-20-19.3c2.2,3.7,3.3,8.2,3.3,13.5s-.1,2.9-.4,4.2l5.9,5.7v48.6c4-1.2,7.7-2.7,11.2-4.4Z"/>
    <polygon class="st0" points="547.6 72.6 544.7 72.6 544.7 57.7 533.6 57.7 533.6 85.2 555.1 85.2 555.1 57.7 547.6 57.7 547.6 72.6"/>
    <polygon class="st0" points="418.3 148.4 416.5 158.7 418.3 158.7 418.3 148.4"/>
  </g>
  <g>
    <polygon class="st0" points="278.8 90.5 267.7 103.5 267.7 148.9 278.8 136.1 278.8 90.5"/>
    <polygon class="st0" points="239.6 198.3 250.8 198.3 250.8 123.2 239.6 136.2 239.6 198.3"/>
    <polygon class="st0" points="264.8 155.5 262 155.5 264.8 152.2 264.8 106.9 253.6 119.9 253.6 198.3 264.8 198.3 264.8 155.5"/>
    <polygon class="st0" points="357.2 131.1 357.2 95.7 335 73.5 335 57.7 323.9 57.7 323.9 80.3 351.9 108.2 351.9 131.1 357.2 131.1"/>
    <polygon class="st0" points="292.9 155.5 281.7 155.5 281.7 181.4 298.7 198.3 304.8 198.3 304.8 204.5 323 222.7 323 233.1 335 233.1 335 214.5 292.9 172.3 292.9 155.5"/>
    <polygon class="st0" points="337.9 72.3 357.2 91.6 357.2 57.7 337.9 57.7 337.9 72.3"/>
    <polygon class="st0" points="320.1 223.9 304.8 208.6 304.8 233.1 320.1 233.1 320.1 223.9"/>
    <path class="st0" d="M369.4,170.6h-62.5V57.9l-11.2,13v45.9l9.1-10.4v49.2h-9.1v15.6l42.1,42.1v19.8h11.2v-40.4c-2.7-.6-4.8-3.1-4.8-6s2.8-6.2,6.2-6.2,6.2,2.8,6.2,6.2-2,5.4-4.8,6v40.4h5.3v-34.8h12.1v-27.7Z"/>
    <polygon class="st0" points="278.8 182.6 278.8 155.5 267.7 155.5 267.7 198.3 294.6 198.3 278.8 182.6"/>
    <path class="st0" d="M357.2,155.5h0s-22.2,0-22.2,0v-37.7c-2.7-.6-4.8-3.1-4.8-6s2.8-6.2,6.2-6.2,6.2,2.8,6.2,6.2-2,5.4-4.8,6v34.8h19.4v-18.6h-8.2v-24.6l-28-28v-23.8h-11.3v110.1h62.5v30.6h8.7v-42.9h-23.7Z"/>
    <polygon class="st0" points="281.7 87.2 281.7 132.8 292.9 120 292.9 74.2 281.7 87.2"/>
    <polygon class="st0" points="236.7 139.5 226.9 150.9 226.9 198.3 236.7 198.3 236.7 139.5"/>
  </g>
  <g>
    <path class="st0" d="M637.5,109.3v-46.6c-4,1.6-7.7,3.6-11.2,5.9v68.7c2.6,1.3,5.5,2.4,8.7,3.3v.5c-2.6.5-5.6,1.1-8.7,2.1v1l25.4,25.4c2.1-4.9,6-8.2,10.8-10.1l-7.5-7.5c-.9.6-2.1.9-3.3.9-3.4,0-6.2-2.8-6.2-6.2s2.8-6.2,6.2-6.2,6.2,2.8,6.2,6.2-.3,2.3-.9,3.3l8.5,8.5c4-1.2,8.4-1.6,12.8-1.6s4.8.1,7,.5l-47.9-47.9Z"/>
    <path class="st0" d="M679.6,198.8c-.6,0-1.2,0-1.7,0-3.1,0-6.3-.3-9.4-.9v20.1l-15,15.1c5.8,1,11.9,1.6,17.9,1.8l8.3-8.3v-27.9Z"/>
    <path class="st0" d="M696.5,67.4l34.7,34.7h7.4v28.9c6.5-6.8,10.3-16.4,10.3-27.1s-3-18.1-9.1-25.6l-8.3,8.3-2-2,8.4-8.4c-8.6-9.3-22.3-16.3-41.4-19.1v10.4Z"/>
    <path class="st0" d="M738.6,146.9v58.3l6.1,6.1c7-8.1,11.3-18.5,11.3-31.6s-6.9-26.2-17.4-32.8Z"/>
    <path class="st0" d="M735.7,104.9h-5.7l-36.4-36.4v-12c-3.5-.4-7.3-.7-11.2-.8v17.6l42.1,42.1v24.3c4.2-1.4,7.9-3.5,11.2-6.1v-28.7Z"/>
    <path class="st0" d="M742.8,213.4l-7-7v-61.1c-3.4-1.8-7.2-3-11.2-3.7v84.4c6.9-3.2,13.2-7.3,18.2-12.5Z"/>
    <path class="st0" d="M668.4,90c3-.6,6.2-.8,9.4-.8,13.1,0,26.2,3,26.2,19.7s-1.8,9.1-4.7,11.9l5.9,5.9c.9-.6,2.1-.9,3.3-.9,3.4,0,6.2,2.8,6.2,6.2s-2.8,6.2-6.2,6.2-6.2-2.8-6.2-6.2.3-2.3.9-3.3l-6.1-6.1c-4.2,2.9-9.8,4.2-15.4,4.6l29.1,29.1v.6s-.2,74.2-.2,74.2c3.8-1,7.5-2.3,11.1-3.8v-86.1c0,0-.2,0-.2,0v-.5c0,0,.1,0,.2,0v-24s-42.1-42.1-42.1-42.1v-18.8c-.6,0-1.2,0-1.7,0-3,0-6.2.1-9.4.3v34Z"/>
    <path class="st0" d="M637.5,226.1l-36.7-36.7c3.4,21,18.1,33.3,36.7,39.7v-3Z"/>
    <path class="st0" d="M693.6,196.2c-3.5,1.4-7.4,2.1-11.2,2.5v29.3l-7.2,7.2c.9,0,1.7,0,2.6,0,5.2,0,10.5-.3,15.8-.9v-38Z"/>
    <path class="st0" d="M640.4,224.9v5.1c3.1,1,6.4,1.8,9.7,2.5h0s15.5-15.6,15.5-15.6v-19.6c-8.5-2.3-15.7-7.6-15.7-17.9s.3-4.8.8-6.8l-27.3-27.3v-1.2c-4.3,1.6-8.6,3.9-12.4,7.3l41.9,41.9v7.8c2.7.7,4.8,3.1,4.8,6s-2.8,6.2-6.2,6.2-6.2-2.8-6.2-6.2,2-5.4,4.8-6v-6.6l-41.1-41.1c-5.3,5.7-9,14-9,26.2s0,3.5.2,5.1l40.2,40.2Z"/>
    <path class="st0" d="M707.7,231.7l.2-74.3-30.1-30.1c0,0-.1,0-.2,0-12.1,0-25-4.5-25-18.4s.2-4.2.7-6l-1.8-1.8v-42.6c-3.8.8-7.5,1.9-11.2,3.2v46.5l50.2,50.2c9.1,2.7,15.5,9.1,15.5,21.1s-4,12.5-9.6,15.4v39c3.8-.5,7.5-1.2,11.2-2.1Z"/>
    <path class="st0" d="M654.4,57.8v42h0c2.2-4.8,6.2-7.5,11.2-9v-34.5c-3.7.3-7.4.9-11.2,1.6Z"/>
    <path class="st0" d="M623.4,135.7v-65c-9.4,7.4-15.6,18-15.6,33.1s5,25.3,15.6,31.9Z"/>
  </g>
</svg>