<?xml version="1.0" encoding="UTF-8"?>
<svg id="Layer_2" xmlns="http://www.w3.org/2000/svg" version="1.1" viewBox="0 0 486 190">
  <!-- Generator: Adobe Illustrator 30.2.1, SVG Export Plug-In . SVG Version: 2.1.1 Build 1)  -->
  <defs>
    <style>
      .st0 {
        fill: none;
      }

      .st1 {
        fill: #231f20;
      }
    </style>
  </defs>
  <path class="st1" d="M66.4,115.4l-1.2,6.5,12.5-5.3c-.8-1.7-1.4-3.4-1.9-5.2l-9.3,4h0Z"/>
  <line class="st0" x1="66.4" y1="115.4" x2="66.4" y2="115.4"/>
  <g>
    <path d="M217,91.6h0l-50.4-48.2-17,17.7c-7-2.7-18-4.9-26.4-4.9-12.2,0-24.7,4.2-33.5,9.6l-23.7-22.4h0l-8.5.9-18.3,100,8.5.9h0l38.5-16.9s0,.1.2.2c9.2,8.1,22.9,13.2,38.3,13.2s20.6-2.5,28.7-6.7l15.5,14.9,48-50v-8.1h0v-.2ZM122.8,58.1c8,0,18.6,2,25.3,4.5l-.3.3-7.5,7.8h0c-4.7-1.6-10-2.4-15.5-2.4-9.7,0-18.5,2.7-25,7.1h0l-7.9-7.5-.7-.7c8.6-5.2,19.7-9.1,31.7-9.1h-.1ZM133.3,78l-14.7,15.3-12.9-12.2c5.5-2.4,12-3.8,19-3.8s5.8.3,8.6.7ZM48.1,142.9l17.6-97.9,25.1,23.8,7.9,7.5,6,5.7,14.3,13.6v6.2l6.1,5.8-18.9,8.6c-4.3-1.8-8-4.2-10.9-7.1l-.2-.2,14.5-6.8-34.2-31.8-.7-.7-.8,4.4-8.1,42.1-1.2,6.5,2.1-.9h0l11-4.8c1.7,3.6,4.2,7,7.2,10l-36.8,16.1h0ZM128.1,110.5l8.2,7.9c-3.8.9-7.8,1.4-11.8,1.4s-9.9-.7-14.4-2.1c-.6-.2-1.2-.4-1.8-.6l18.1-8.2,1.7,1.6h0ZM92,105.1c0,0-.2-.3-.3-.4-1.2-1.9-2.1-3.9-2.6-5.9,0-.2,0-.4,0-.6.6-2,1.5-4,2.7-5.9l9.5,9.4-9.3,3.4h.1ZM73.7,100.5v.8c0,2.4,1.5,8.1,2.1,10.4h0l-7.8,3.3,7.5-38.9,3.1,3c-3.4,5.2-5.2,10.8-5.2,16.7s0,3,.4,4.7h0ZM152.4,125.8c-1.8.9-3.8,1.8-5.8,2.5-6.9,2.5-14.3,3.8-22.1,3.8s-21.5-2.6-30.2-7.6c-4.8-2.7-8.9-6.1-12-9.9-1.2-1.5-2.3-3-3.2-4.5-1.9-3.2-3.1-6.5-3.6-9.9-.3-1.5-.4-3-.4-4.4,0-5.3,1.5-10.4,4.5-15.1l8,8.1c-.5,1.9-.8,3.8-.8,5.6s.2,3.2.6,4.7c.5,2.2,1.5,4.4,2.8,6.5,1,1.6,2.3,3.2,3.7,4.6,4,4,9.4,7.1,15.6,9,4.7,1.5,9.8,2.2,15,2.2s8.4-.5,12.3-1.5c2.3-.6,4.5-1.3,6.5-2.1,4.7-2,8.9-4.7,12-7.9,3.2-3.3,5.3-6.9,6.2-10.9.4-1.6.6-3.2.6-4.7,0-4.5-1.7-9.5-4.4-13.4l6.8-7.1c5.8,6.1,9.3,14.2,9.3,21.9s-.1,2.9-.4,4.4c-1.1,6.4-4.5,12.6-9.9,17.7-3.2,3-6.9,5.7-11.2,7.8v.2ZM154.4,108.4l-11.9-11.6,10.1-10.5c3.6,3,6.2,6.6,7.6,10.5,0,.6-.2,1.3-.4,1.9-.8,3.5-2.7,6.7-5.5,9.7h0ZM175.3,100.1c.2-1.5.3-2.9.3-4.3,0-8.2-3.7-16.8-9.9-23.2l1.6-1.7,25.2,24.2-20.9,21.7c2.2-5.2,3.6-11.5,3.6-16.1s0-.4,0-.7h0ZM169,141.6l-10.2-9.8c4-2.8,7.4-6,10.1-9.6,0,0,0,0,.1-.2l24.9-25.9.7-.8,3.3-3.4-30.4-29.2-6.8,7.1-7.5,7.9-5.1,5.4-9.7,10.1h0l-.8.9,2.8,2.7,13.1,12.8c-2.9,2.7-6.5,5-10.6,6.8h0l-8.7-8.3-8.5-8.2-5.8-5.5,13.7-14.3,6.9-7.2,7.5-7.8,18.7-19.5,49.3,47.2-46.9,48.8h-.1Z"/>
    <g>
      <path d="M228.7,68.1h39.7l-3.7,15.3h-19l-1.9,8h19.8l-3.5,14.2h-19.6l-4.7,20.1h-20.5l13.4-57.6h0Z"/>
      <path d="M273.8,68.1h20.5l-13.4,57.6h-20.5l13.4-57.6Z"/>
      <path d="M299.6,68.4l1.3-.2c6.6-.8,14.8-1.3,19.3-1.3,7.5,0,13.4.9,17.8,2.7,5.6,2.3,9,7.4,9,13.6s-1.8,10.3-5.2,14.2c-2.9,3.4-5.5,5-11,6.6l-1.3.4c.6.4.8.6,1,.9,1.6,1.8,6.4,11.1,10.4,20.4h-22.6c-2.9-8.2-3.8-10.4-7.6-19.7l-4.5,19.7h-19.9l13.3-57.2h0ZM314.8,95.5c6.6,0,11.2-3.9,11.2-9.4s-2.2-4.4-6.4-4.4-1.9,0-3.2.3l-3.1,13.3c.7,0,.8.2,1.5.2Z"/>
      <path d="M395.7,68.1h49.8l-3.5,16.7h-14.8l-9.8,40.9h-20.5l9.8-40.9h-16s5-16.7,5-16.7Z"/>
      <path d="M427,115.4c2.8,0,5,2.2,5,5s-2.2,5-5,5-5-2.2-5-5,2.2-5,5-5ZM427,124.8c2.4,0,4.4-2,4.4-4.4s-2-4.4-4.4-4.4-4.4,2-4.4,4.4,1.9,4.4,4.4,4.4ZM425.1,117.8h1.7c1.6,0,2.5.6,2.5,1.9s-.3,1.2-1,1.4h0c.2.3.8,1.1,1.2,1.9h-1.9c-.4-.7-.5-.9-1-1.7v1.7h-1.6v-5.1h.1ZM426.9,120.2c.4,0,.7-.2.7-.6s-.2-.6-.7-.6-.1,0-.2,0v1.2h.2Z"/>
      <path d="M343,124.2c5.8,1.7,12.1,2.7,18,2.7s14.1-1.8,19.4-5.6c5.8-4.1,9.6-10.5,9.6-16.3s-1.7-7.4-4.7-9.9c-2.4-1.9-4.8-3.4-9.8-5.7l-4-1.9c-1.3-.7-2-1.4-2-2.2,0-2.1,2.6-3.6,6.2-3.6s5.9.8,12,2.8l4.2-15.6c-4.6-1.2-9-1.9-13.4-1.9-16.7,0-29.6,9.2-29.6,21s4.1,10.6,14.5,15.5c4.9,2.2,5.7,2.8,5.7,4.4,0,2.3-2.5,3.8-6.7,3.8s-8.4-1.1-14.8-3.5h0l-4.5,16.1h-.1Z"/>
    </g>
  </g>
</svg>