<?xml version="1.0" encoding="UTF-8"?>
<svg id="Layer_1" xmlns="http://www.w3.org/2000/svg" version="1.1" viewBox="0 0 457.6 207.3">
  <!-- Generator: Adobe Illustrator 30.2.1, SVG Export Plug-In . SVG Version: 2.1.1 Build 1)  -->
  <g>
    <polygon points="91.1 100.1 69.8 100.1 49.6 73.1 45.5 78 45.5 100.1 28.1 100.1 28.1 32.6 45.5 32.6 45.5 63.1 69.6 32.6 89.8 32.6 63.4 63.8 91.1 100.1 91.1 100.1"/>
    <path d="M112.6,100.1h-16.4v-50.9h16.4v50.9h0ZM113.1,41.9h-17.3v-12.5h17.3v12.5h0Z"/>
    <polygon points="206.8 49.2 191 100.1 173.7 100.1 163.2 65.7 153 100.1 135.5 100.1 119.9 49.2 137 49.2 145.7 84.3 156.6 49.2 171 49.2 181.4 84.3 190 49.2 206.8 49.2 206.8 49.2"/>
    <path d="M244.1,76.2c-4.5.4-10.4,1-13,1.9-3.3,1-5,2.9-5,6.1s.2,3.3,1.6,4.5c1.5,1.2,3,1.8,7.1,1.8s6.9-1.4,9.4-3.6v-10.6h-.1ZM244.1,94.7c-1.8,1.4-4.7,3.5-7,4.7-3.3,1.4-6.5,2.1-10.6,2.1s-9-1.5-12.3-4.5c-3.3-3.1-4.8-6.9-4.8-11.5,0-7.4,3.5-12,9.6-14.7,6-2.7,15.5-3.7,25.2-4.2v-.3c0-5.7-4.6-7.4-13.6-7.4s-5.7.5-8.7,1.4c-3.1.9-5.2,1.7-6.5,2.2h-1.5v-12.4c1.8-.5,4.6-.9,8.4-1.6,3.9-.7,7.8-.9,11.7-.9,18.6,0,26.3,5.5,26.3,17.8v34.7h-16.2v-5.4h0Z"/>
    <path d="M322.7,100.1h-16.5v-25.3c0-4.1-.4-8.7-1.4-10.7-1.2-2.2-3.3-3.2-7.5-3.2s-5.8.8-9.5,3v36.1h-16.4v-50.9h16.4v5.6c5.9-4.5,10.7-7,17.3-7,11.1,0,17.6,6.4,17.6,19.1v33.2h0Z"/>
    <path d="M350.1,100.1h-16.3v-50.9h16.3v50.9h0ZM350.6,41.9h-17.3v-12.5h17.3v12.5h0Z"/>
    <g>
      <path d="M400.7,96.7c-4.7,3.3-11.2,4.8-19.3,4.8s-16.7-2-21.3-4.1v-13.4h1.5c1.8,1.1,3.4,2.5,7.4,4.1,3.4,1.4,7.8,2.5,12.6,2.5s9.5-1.5,9.5-4.2-1.4-3.4-6.5-4.4c-2.5-.5-7.2-1-10.6-2-9.3-2.3-13.7-7.6-13.7-15.2s2.3-8.9,7-12.2c4.6-3.3,11-4.9,19-4.9s15.2,1.8,19.2,3.6v12.8h-1.4c-4.9-3.3-11.4-5.6-17.8-5.6s-9.3,1.5-9.3,4.2.9,3.4,7,4.6c3.3.7,7.4,1.3,11.1,2.1,8.5,2.2,12.6,7.2,12.6,14.3s-2.4,9.5-7.2,12.7"/>
      <path d="M412.6,52.2c.6,0,1.1,0,1.1-.8s-.5-.7-1-.7h-1v1.5h.9ZM411.7,54.8h-.7v-4.7h1.8c1.1,0,1.7.4,1.7,1.4s-.5,1.2-1.2,1.3l1.4,2.1h-.8l-1.3-2.1h-.8v2.1h-.1ZM412.6,55.9c1.9,0,3.3-1.5,3.3-3.4s-1.5-3.4-3.3-3.4-3.3,1.5-3.3,3.4,1.5,3.4,3.3,3.4M408.4,52.4c0-2.4,1.9-4.1,4.2-4.1s4.2,1.7,4.2,4.1-1.9,4.1-4.2,4.1-4.2-1.7-4.2-4.1"/>
    </g>
  </g>
  <g>
    <path d="M53.6,156.1c-2.5,2.3-5.8,3.5-9.8,3.5s-8.8-1.6-11.6-4.7c-2.8-3.2-4.2-7.5-4.2-13s1.6-10.5,4.8-13.8c2.8-2.8,6.3-4.2,10.6-4.2s9.9,1.9,12.6,5.6c1.5,2.1,2.2,4.2,2.4,6.4h-7.1c-.5-1.6-1.1-2.9-1.8-3.7-1.3-1.5-3.2-2.2-5.8-2.2s-4.6,1-6.1,3.1-2.2,5-2.2,8.9.8,6.7,2.4,8.6c1.6,1.9,3.6,2.9,6,2.9s4.4-.8,5.7-2.4c.7-.9,1.3-2.2,1.8-4h7.1c-.6,3.7-2.2,6.7-4.7,9.1h0Z"/>
    <path d="M63.4,124.5h6.6v34.1h-6.6v-34.1Z"/>
    <path d="M92.5,155s-.2.3-.5.7c-.2.4-.5.7-.9,1-1,.9-2,1.6-3,1.9-1,.3-2.1.5-3.4.5-3.7,0-6.2-1.3-7.5-4-.7-1.5-1.1-3.7-1.1-6.5v-15.2h6.7v15.2c0,1.4.2,2.5.5,3.2.6,1.3,1.8,1.9,3.5,1.9s3.8-.9,4.6-2.7c.4-1,.6-2.3.6-3.9v-13.7h6.7v25.2h-6.4v-3.6h.2Z"/>
    <path d="M119,159.3c-2.1,0-3.8-.4-5-1.2-.8-.5-1.6-1.4-2.4-2.6v3.2h-6.4v-34h6.6v12.1c.8-1.2,1.7-2.1,2.8-2.7,1.2-.8,2.7-1.2,4.5-1.2,3.3,0,5.9,1.2,7.8,3.6,1.9,2.4,2.8,5.5,2.8,9.2s-.9,7.2-2.8,9.7c-1.8,2.6-4.4,3.9-7.7,3.9h-.2ZM122.6,146.4c0-1.8-.2-3.3-.7-4.4-.9-2.2-2.5-3.3-4.9-3.3s-4,1.1-4.9,3.3c-.5,1.2-.7,2.7-.7,4.5s.5,3.9,1.4,5.4c1,1.4,2.4,2.1,4.4,2.1s3-.7,4-2.1c.9-1.4,1.4-3.2,1.4-5.4h0Z"/>
    <path d="M168.4,136.6c2.1,2.7,3.2,5.8,3.2,9.5s-1.1,6.9-3.2,9.5c-2.1,2.6-5.4,3.9-9.7,3.9s-7.6-1.3-9.7-3.9c-2.1-2.6-3.2-5.8-3.2-9.5s1.1-6.8,3.2-9.5c2.1-2.7,5.4-4,9.7-4s7.6,1.3,9.7,4ZM158.7,138.2c-1.9,0-3.4.7-4.4,2-1,1.4-1.6,3.3-1.6,5.8s.5,4.5,1.6,5.8c1,1.4,2.5,2.1,4.4,2.1s3.4-.7,4.4-2.1c1-1.4,1.5-3.3,1.5-5.8s-.5-4.5-1.5-5.8-2.5-2-4.4-2Z"/>
    <path d="M188.1,124.3v5.4c-.4,0-1,0-1.9-.1-.9,0-1.5.2-1.8.6-.3.4-.5.9-.5,1.4v2.1h4.3v4.6h-4.3v20.3h-6.6v-20.3h-3.7v-4.6h3.6v-1.6c0-2.7.5-4.6,1.4-5.6,1-1.5,3.3-2.3,6.9-2.3s.8,0,1.1,0,.8,0,1.4,0h.1Z"/>
    <path d="M238.9,124.5h7.2l-9.6,34.1h-6.8l-4.1-19.9-1.2-6.6-1.2,6.6-4.1,19.9h-6.6l-9.7-34.1h7.6l4.5,19.5,1,5.4,1-5.3,3.8-19.6h7.5l4,19.5,1,5.4,1-5.2,4.6-19.7h.1Z"/>
    <path d="M270.1,136.6c2.1,2.7,3.2,5.8,3.2,9.5s-1.1,6.9-3.2,9.5-5.4,3.9-9.7,3.9-7.6-1.3-9.7-3.9c-2.1-2.6-3.2-5.8-3.2-9.5s1.1-6.8,3.2-9.5c2.1-2.7,5.4-4,9.7-4s7.6,1.3,9.7,4ZM260.4,138.2c-1.9,0-3.4.7-4.4,2s-1.6,3.3-1.6,5.8.5,4.5,1.6,5.8c1,1.4,2.5,2.1,4.4,2.1s3.4-.7,4.4-2.1c1-1.4,1.5-3.3,1.5-5.8s-.5-4.5-1.5-5.8c-1-1.4-2.5-2-4.4-2Z"/>
    <path d="M299,136.6c2.1,2.7,3.2,5.8,3.2,9.5s-1.1,6.9-3.2,9.5-5.4,3.9-9.7,3.9-7.6-1.3-9.7-3.9c-2.1-2.6-3.2-5.8-3.2-9.5s1.1-6.8,3.2-9.5,5.4-4,9.7-4,7.6,1.3,9.7,4ZM289.3,138.2c-1.9,0-3.4.7-4.4,2s-1.6,3.3-1.6,5.8.5,4.5,1.6,5.8c1,1.4,2.5,2.1,4.4,2.1s3.4-.7,4.4-2.1c1-1.4,1.5-3.3,1.5-5.8s-.5-4.5-1.5-5.8c-1-1.4-2.5-2-4.4-2Z"/>
    <path d="M329.8,124.6v34h-6.4v-3.5c-.9,1.5-2,2.6-3.2,3.3s-2.7,1-4.5,1c-2.9,0-5.4-1.2-7.4-3.6s-3-5.4-3-9.2,1-7.7,3-10.1c2-2.5,4.6-3.7,7.9-3.7s2.9.3,4.1,1,2.1,1.6,2.9,2.8v-12h6.7-.1ZM312.1,146.2c0,2.3.5,4.2,1.4,5.6.9,1.4,2.3,2.1,4.2,2.1s3.3-.7,4.3-2.1c1-1.4,1.5-3.2,1.5-5.4s-.8-5.3-2.3-6.6c-1-.8-2.1-1.2-3.3-1.2-1.9,0-3.3.7-4.2,2.2-.9,1.5-1.4,3.3-1.4,5.4h-.2Z"/>
    <path d="M335.9,124.5h6.6v34.1h-6.6v-34.1Z"/>
    <path d="M349.9,136.1c1.7-2.2,4.7-3.3,9-3.3s5.2.5,7.4,1.6,3.2,3.2,3.2,6.2v14.5c0,.9.2,1.4.4,1.8.2.3.5.6,1,.8v1h-7.2c-.2-.5-.3-1-.4-1.4,0-.4-.1-1-.2-1.5-.9,1-2,1.8-3.1,2.5-1.4.8-3,1.2-4.8,1.2s-4.2-.7-5.7-2-2.2-3.1-2.2-5.5,1.2-5.3,3.6-6.7c1.3-.8,3.2-1.3,5.8-1.6l2.2-.3c1.2-.2,2.1-.3,2.6-.6.9-.4,1.4-1,1.4-1.9s-.4-1.7-1.1-2.1-1.8-.6-3.2-.6-2.7.4-3.3,1.2c-.5.6-.8,1.3-.9,2.3h-6.4c.1-2.2.8-4,1.8-5.4v-.2ZM354.8,153.8c.6.5,1.4.8,2.3.8,1.4,0,2.7-.4,3.9-1.2,1.2-.8,1.8-2.3,1.9-4.6v-2.4c-.4.3-.8.5-1.3.6-.4.2-1,.3-1.7.5l-1.5.3c-1.4.2-2.4.5-3,.9-1,.6-1.5,1.5-1.5,2.8s.3,1.9.9,2.4h0Z"/>
    <path d="M387.1,138.3c-2.2,0-3.8.9-4.6,2.8-.4,1-.6,2.3-.6,3.8v13.6h-6.6v-25.1h6.4v3.7c.8-1.3,1.6-2.2,2.4-2.8,1.4-1,3.1-1.5,5.2-1.5s4.7.7,6.4,2,2.5,3.6,2.5,6.8v17h-6.7v-15.3c0-1.3-.2-2.3-.5-3.1-.6-1.3-1.9-1.9-3.7-1.9h-.2Z"/>
    <path d="M427.1,124.6v34h-6.4v-3.5c-.9,1.5-2,2.6-3.2,3.3s-2.7,1-4.5,1c-2.9,0-5.4-1.2-7.4-3.6s-3-5.4-3-9.2,1-7.7,3-10.1c2-2.5,4.6-3.7,7.9-3.7s2.9.3,4.1,1,2.1,1.6,2.9,2.8v-12h6.7-.1ZM409.4,146.2c0,2.3.5,4.2,1.4,5.6.9,1.4,2.3,2.1,4.2,2.1s3.3-.7,4.3-2.1c1-1.4,1.5-3.2,1.5-5.4s-.8-5.3-2.3-6.6c-1-.8-2.1-1.2-3.3-1.2-1.9,0-3.3.7-4.2,2.2-.9,1.5-1.4,3.3-1.4,5.4h-.2Z"/>
  </g>
</svg>