<?xml version="1.0" encoding="UTF-8"?>
<svg id="Layer_1" xmlns="http://www.w3.org/2000/svg" version="1.1" viewBox="0 0 402.6 157.6">
  <!-- Generator: Adobe Illustrator 30.2.1, SVG Export Plug-In . SVG Version: 2.1.1 Build 1)  -->
  <g>
    <path d="M16.5,19h37.8v10.8h-12.1v30.4h-13.5v-30.4h-12.1v-10.8h0Z"/>
    <path d="M65.9,29.4c10.6,0,17.1,6.2,17.1,15.6s-7.4,16.1-17.1,16.1-17.1-5.3-17.1-15.5,6.9-16.2,17-16.2h0ZM60.8,45c0,5.7,2.1,8.1,5.2,8.1s5.2-2.5,5.2-8.1-1.9-7.7-5-7.6c-4.1,0-5.3,4.2-5.3,7.6h0Z"/>
    <path d="M84.8,30.2h10.9v4.5c1.5-2.3,5.2-5.3,9.5-5.3s8.4,2.3,9.8,5.5c2.6-3.6,6-5.5,10.4-5.5,8.8,0,11.5,4.9,11.5,13.1v17.8h-11.9v-15.3c0-4.4-.9-6.2-4-6.2s-4.2,3-4.2,6.6v14.8h-11.9v-15.3c0-4.4-.9-6.2-4-6.2s-4.2,3-4.2,6.6v14.8h-11.9v-30h0Z"/>
    <path d="M183.5,56.8c-2.7,2.3-8.2,4.6-13.6,4.6s-14.5-3.5-14.5-11.5,3.4-10.2,8.6-12.8c-2.1-2.2-3.6-4.5-3.6-7.7,0-7.7,7.5-10.3,14-10.3s13.7,4.2,13.7,10.9-2.5,8.1-6.7,10.4l3.6,3.7c1.1-1,2-2.1,2.7-3.4h10.9c-1.9,3.6-4.1,7-6.9,10l9.4,9.7h-14.3l-3.3-3.5h0ZM171.3,43.9c-2.2,1.1-4.5,2.6-4.5,4.9s1.7,3.8,4,3.8,3.4-.8,4.6-1.5c1.7-1,1.9-.8,1.2-1.6,0,0-5.3-5.6-5.3-5.6ZM170.8,29.3c0,2.1,1.5,3.5,3.5,4.8,2.7-1.3,5.1-2.7,4.1-6.1-.6-1.3-2.2-1.8-3.6-1.8-2,0-4,.8-4,3.1Z"/>
    <path d="M220.5,60.3V19h16.3l7.3,25.7,7.3-25.7h16.3v41.2h-12.1v-12.6l.2-6.4.7-7.4h-.1l-7.5,26.5h-9.4l-7.5-26.5h-.1l.6,6.1.3,6.4v14h-12.3Z"/>
    <path d="M281.9,47.9c0,3.6,2.7,5.9,5.9,5.9s3.6-.9,4.5-2.6h11.4c-2.1,7.4-9.6,9.9-16.6,9.9s-17.1-5.5-17.1-15.6,7.4-16.1,17-16.1,17.8,7.7,17.6,18.6h-22.7,0ZM292.7,41.9c0-2.7-2.5-5.2-5.3-5.2s-5.6,2-5.6,5.2h10.9Z"/>
    <path d="M319,61.8c0,.3.2.9.7,1.3.5.5,1.4.7,2.6.7,3.4,0,4.8-1.5,4.8-5.8v-2.5c-1.7,1.7-4.3,3.3-8.6,3.3-8.3,0-13.1-6.5-13.1-14.2s3.6-15.2,13.4-15.2,7,1.9,9.1,4.8v-3.9h10.5v24.2c0,9-1,16-15.8,16s-15.1-4.2-15.6-8.6h12ZM317.4,44.7c0,3,1.5,5.8,4.7,5.8,3.7.2,5-3,5-6.2s-1.3-6.5-5-6.5-4.7,2.9-4.7,6.8h0Z"/>
  </g>
  <g>
    <path d="M56.4,82.1c-.4-2.3-1.6-3.7-3.2-4.6-1.6-.8-3.6-1.2-5.7-1.2-4.9,0-7,1.4-7,3.8,0,10.1,38.8,3.8,38.8,28.4s-13,23.2-31.6,23.2-29.4-10.4-29.9-22.6h21.2c.5,2.4,1.8,4.2,3.7,5.3,1.8,1.1,4.1,1.7,6.3,1.7,5.5,0,9.2-1.8,9.2-5,0-10.2-38.8-3.2-38.8-29s12.4-21.6,29.2-21.6,27.3,9.6,28.9,21.4h-21v.2Z"/>
    <path d="M114.6,130c-25.6,1.4-28.7-.4-28.7-17.3v-20.5h-6.9v-11.2h7.2v-15.3h19.2v15.3h9.4v11.2h-9.4v17.8c0,4.5.7,6.1,6.1,6.1h3.1v14h0Z"/>
    <path d="M153.9,130l-.9-5.2c-5.5,5.2-11.2,6.7-18.5,6.7s-17.5-4.6-17.5-14.8c0-22.3,35-12.2,35-21.4s-4.3-4-6.4-4-6.4.6-6.8,4.8h-18.7c0-10.4,7.4-16.5,26.8-16.5s24.6,8.6,24.6,20.3v23c0,2.8,0,4.2,2.6,6.3v.9h-20.2ZM151.9,108.3c-6.4,3.1-14.8,1.6-14.8,8s2.3,4.1,6.2,4.1c6.8,0,9.1-5.3,8.6-12.1Z"/>
    <path d="M178.2,130V62.6h19.5v67.5h-19.5Z"/>
    <path d="M204.7,130V62.6h19.5v67.5h-19.5Z"/>
    <path d="M264.7,130l-.9-5.2c-5.5,5.2-11.2,6.7-18.5,6.7s-17.5-4.6-17.5-14.8c0-22.3,35-12.2,35-21.4s-4.3-4-6.4-4-6.4.6-6.8,4.8h-18.7c0-10.4,7.4-16.5,26.8-16.5s24.6,8.6,24.6,20.3v23c0,2.8,0,4.2,2.6,6.3v.9h-20.2ZM262.7,108.3c-6.4,3.1-14.8,1.6-14.8,8s2.3,4.1,6.2,4.1c6.8,0,9.1-5.3,8.6-12.1Z"/>
    <path d="M288.1,80.9h17.7v9.9h.2c2.7-7.7,7.5-11.3,15.1-11.3s1.7.2,2.5.3v19.5c-1.3-.2-2.7-.6-4-.6-8,0-12,3.7-12,14.3v17h-19.5v-49.1h0Z"/>
    <path d="M359,130v-6.6c-4.6,6-8.8,8-15.1,8-14.8,0-22.3-11.2-22.3-25s9.1-26.9,20.8-26.9,10.5,1.5,14.6,6.4v-23.3h19.5v67.5h-17.5ZM357.7,106c0-5.4-1.9-11.3-8.3-11.3s-8.2,6.2-8.2,11.6,1.3,11.2,7.7,11.2,8.9-5.7,8.9-11.4h-.1Z"/>
  </g>
</svg>