<?xml version="1.0" encoding="UTF-8"?>
<svg id="Layer_1" xmlns="http://www.w3.org/2000/svg" version="1.1" viewBox="0 0 432 432">
  <!-- Generator: Adobe Illustrator 30.2.1, SVG Export Plug-In . SVG Version: 2.1.1 Build 1)  -->
  <path d="M386.5,280.9c4.3-11.2,7.5-23,9.5-35.2l-27.2-15.5v-28.5l27.2-15.5c-1.9-11.7-4.9-23-9-33.9h-31.4c0,.1-14.2-24.6-14.2-24.6l15.9-27.1c-7.5-9.2-15.9-17.7-25.1-25.2l-27.2,15.8-24.7-14.3.3-31.5c-11.2-4.2-22.8-7.4-34.9-9.4l-15.5,27.2h-28.5l-15.5-27.1c-11.8,1.9-23.2,5-34.2,9.1v31.6c.1,0-24.6,14.2-24.6,14.2l-27.1-15.9c-9.2,7.5-17.6,16-25.2,25.1l15.8,27.2-14.3,24.7-31.4-.3c-4.2,11.1-7.3,22.6-9.3,34.6l27.2,15.5v28.5l-27.2,15.5c2,11.9,5.1,23.4,9.2,34.4h31.2c0-.1,14.2,24.6,14.2,24.6l-15.7,26.8c7.6,9.2,16,17.7,25.3,25.3l26.8-15.6,24.7,14.3-.3,31c11.1,4.2,22.8,7.4,34.9,9.4l15.5-27.1h28.5l15.5,27.2c11.8-1.9,23.2-5,34.2-9.1v-31c-.1,0,24.6-14.2,24.6-14.2l26.7,15.7c9.3-7.6,17.8-16,25.4-25.2l-15.6-26.9,14.3-24.7,31.2.3v-.2ZM216,342.1c-69.7,0-126.1-56.5-126.1-126.1s56.5-126.1,126.1-126.1,126.1,56.5,126.1,126.1-56.5,126.1-126.1,126.1Z"/>
  <g>
    <path d="M316.4,194.4h-45.5v49.7h11.2v-19.3h34.3c4.6,0,8.4-3.8,8.4-8.4v-13.6c0-4.6-3.8-8.4-8.4-8.4ZM314.4,213.8c0,1.4-1.1,2.5-2.5,2.5h-29.7v-14h29.7c1.4,0,2.5,1.1,2.5,2.5v8.9h0Z"/>
    <path d="M244,225.6v9.8h-32.3v-32.2h32.3v9.8l11.1-1.9v-8.2c0-4.6-3.8-8.4-8.4-8.4h-37.9c-4.6,0-8.4,3.8-8.4,8.4v32.8c0,4.6,3.8,8.4,8.4,8.4h37.9c4.6,0,8.4-3.8,8.4-8.4v-8.2l-11.1-1.9h0Z"/>
    <path d="M122.1,194.5l13.3,32.5,11.8-32.5h9.3l13.7,32.5,11.4-32.5h11.6l-18.2,49.4h-9.5l-13.6-32.5-11.7,32.5h-9.5l-20.1-49.4h11.6,0Z"/>
  </g>
</svg>