<?xml version="1.0" encoding="UTF-8"?>
<svg id="Layer_1" xmlns="http://www.w3.org/2000/svg" version="1.1" viewBox="0 0 360 216">
  <!-- Generator: Adobe Illustrator 30.2.1, SVG Export Plug-In . SVG Version: 2.1.1 Build 1)  -->
  <g>
    <path d="M35.4,31.5l-4-13.5h0l-4,13.5h-2.4l-4.5-16h2.4l3.4,13.3h0l3.9-13.3h2.5l3.8,13.3h0l3.5-13.3h2.3l-4.6,16h-2.4Z"/>
    <path d="M69.2,20.3c.3-1,.9-1.9,1.6-2.7.7-.8,1.6-1.4,2.6-1.9,1-.5,2.2-.7,3.6-.7s2.6.2,3.6.7c1,.5,1.9,1.1,2.6,1.9.7.8,1.2,1.7,1.6,2.7s.5,2.1.5,3.2-.2,2.1-.5,3.2c-.3,1-.9,1.9-1.6,2.7-.7.8-1.6,1.4-2.6,1.9-1,.5-2.2.7-3.6.7s-2.6-.2-3.6-.7c-1-.5-1.9-1.1-2.6-1.9-.7-.8-1.2-1.7-1.6-2.7-.3-1-.5-2.1-.5-3.2s.2-2.1.5-3.2ZM71.3,25.8c.2.8.6,1.5,1.1,2.1s1.1,1.1,1.9,1.5c.8.4,1.7.6,2.7.6s2-.2,2.7-.6c.8-.4,1.4-.9,1.9-1.5s.8-1.3,1.1-2.1c.2-.8.3-1.6.3-2.4s-.1-1.6-.3-2.4c-.2-.8-.6-1.5-1.1-2.1-.5-.6-1.1-1.1-1.9-1.5-.8-.4-1.7-.6-2.7-.6s-2,.2-2.7.6c-.8.4-1.4.9-1.9,1.5-.5.6-.8,1.3-1.1,2.1s-.3,1.6-.3,2.4.1,1.6.3,2.4Z"/>
    <path d="M111.3,20.3c.3-1,.9-1.9,1.6-2.7.7-.8,1.6-1.4,2.6-1.9,1-.5,2.2-.7,3.6-.7s2.6.2,3.6.7c1,.5,1.9,1.1,2.6,1.9.7.8,1.2,1.7,1.6,2.7s.5,2.1.5,3.2-.2,2.1-.5,3.2c-.3,1-.9,1.9-1.6,2.7-.7.8-1.6,1.4-2.6,1.9-1,.5-2.2.7-3.6.7s-2.6-.2-3.6-.7c-1-.5-1.9-1.1-2.6-1.9-.7-.8-1.2-1.7-1.6-2.7-.3-1-.5-2.1-.5-3.2s.2-2.1.5-3.2ZM113.4,25.8c.2.8.6,1.5,1.1,2.1s1.1,1.1,1.9,1.5c.8.4,1.7.6,2.7.6s2-.2,2.7-.6c.8-.4,1.4-.9,1.9-1.5s.8-1.3,1.1-2.1c.2-.8.3-1.6.3-2.4s-.1-1.6-.3-2.4c-.2-.8-.6-1.5-1.1-2.1-.5-.6-1.1-1.1-1.9-1.5-.8-.4-1.7-.6-2.7-.6s-2,.2-2.7.6c-.8.4-1.4.9-1.9,1.5-.5.6-.8,1.3-1.1,2.1s-.3,1.6-.3,2.4.1,1.6.3,2.4Z"/>
    <path d="M160,15.4c2.7,0,4.7.6,6.2,1.9s2.2,3.2,2.2,5.8-.2,2.5-.5,3.6c-.3,1-.8,1.9-1.5,2.6-.7.7-1.5,1.3-2.6,1.6-1.1.4-2.3.6-3.7.6h-6V15.4h6ZM160.2,29.7c.3,0,.6,0,1,0,.4,0,.8-.1,1.2-.3.4-.1.9-.3,1.3-.6.4-.3.8-.6,1.2-1.1.3-.5.6-1,.8-1.7.2-.7.3-1.5.3-2.5s-.1-1.8-.3-2.6c-.2-.8-.5-1.4-1-1.9-.5-.5-1.1-.9-1.8-1.2-.7-.3-1.6-.4-2.7-.4h-3.9v12.4h3.8Z"/>
    <path d="M197.6,15.4v14.2h9.2v1.8h-11.5V15.4h2.3Z"/>
    <path d="M240.2,15.4l6.8,16h-2.6l-1.9-4.8h-7.4l-1.9,4.8h-2.4l6.8-16h2.6ZM241.8,24.8l-2.9-7.5h0l-2.9,7.5h5.9Z"/>
    <path d="M275.2,15.4l9.2,13h0v-13h2.2v16h-2.5l-9.1-12.9h0v12.9h-2.2V15.4h2.5Z"/>
    <path d="M320.4,15.4c2.7,0,4.7.6,6.2,1.9s2.2,3.2,2.2,5.8-.2,2.5-.5,3.6c-.3,1-.8,1.9-1.5,2.6-.7.7-1.6,1.3-2.6,1.6-1.1.4-2.3.6-3.8.6h-6V15.4h6ZM320.6,29.7c.3,0,.6,0,1,0,.4,0,.8-.1,1.2-.3.4-.1.9-.3,1.3-.6.4-.3.8-.6,1.2-1.1.3-.5.6-1,.8-1.7.2-.7.3-1.5.3-2.5s-.1-1.8-.3-2.6c-.2-.8-.5-1.4-1-1.9-.5-.5-1.1-.9-1.8-1.2-.7-.3-1.6-.4-2.7-.4h-3.9v12.4h3.8Z"/>
  </g>
  <g>
    <path d="M79.3,180.8h-6v11h-5.7v-28h13.7c2,0,3.5.3,4.5.7s2,1.1,2.7,2c.6.7,1.1,1.5,1.4,2.4.4.9.5,1.8.5,2.9s-.3,2.6-1,3.9c-.7,1.3-1.8,2.2-3.3,2.7,1.3.5,2.2,1.3,2.7,2.2.5,1,.8,2.4.8,4.4v1.9c0,1.3,0,2.1.2,2.6.2.7.5,1.3,1.1,1.6v.7h-6.4c-.2-.6-.3-1.1-.4-1.5-.2-.8-.2-1.6-.2-2.4v-2.6c0-1.8-.4-3-1-3.6-.6-.6-1.8-.9-3.5-.9ZM82.8,175.7c1.2-.5,1.7-1.6,1.7-3.1s-.6-2.8-1.7-3.4c-.6-.3-1.6-.5-2.8-.5h-6.8v7.5h6.6c1.3,0,2.3-.2,3-.5Z"/>
    <path d="M108.1,192.6c-4,0-7.1-1.1-9.2-3.3-2.8-2.7-4.2-6.5-4.2-11.5s1.4-9,4.2-11.5c2.1-2.2,5.2-3.3,9.2-3.3s7.1,1.1,9.2,3.3c2.8,2.6,4.2,6.4,4.2,11.5s-1.4,8.9-4.2,11.5c-2.1,2.2-5.2,3.3-9.2,3.3ZM113.7,185.1c1.4-1.7,2-4.1,2-7.3s-.7-5.6-2-7.3c-1.4-1.7-3.2-2.6-5.5-2.6s-4.2.9-5.5,2.6-2.1,4.1-2.1,7.3.7,5.6,2.1,7.3,3.2,2.6,5.5,2.6,4.2-.9,5.5-2.6Z"/>
    <path d="M147,163.8v5h-8.4v23h-5.9v-23h-8.4v-5h22.7Z"/>
    <path d="M164.7,186.1h-10.3l-1.9,5.7h-6.1l10-28h6.6l9.9,28h-6.3l-1.8-5.7ZM163.1,181.2l-3.5-11-3.6,11h7.1Z"/>
    <path d="M188.1,180.8h-6v11h-5.7v-28h13.7c2,0,3.5.3,4.5.7s2,1.1,2.7,2c.6.7,1.1,1.5,1.4,2.4.4.9.5,1.8.5,2.9s-.3,2.6-1,3.9c-.7,1.3-1.8,2.2-3.3,2.7,1.3.5,2.2,1.3,2.7,2.2.5,1,.8,2.4.8,4.4v1.9c0,1.3,0,2.1.2,2.6.2.7.5,1.3,1.1,1.6v.7h-6.4c-.2-.6-.3-1.1-.4-1.5-.2-.8-.2-1.6-.2-2.4v-2.6c0-1.8-.4-3-1-3.6-.6-.6-1.8-.9-3.5-.9ZM191.6,175.7c1.2-.5,1.7-1.6,1.7-3.1s-.6-2.8-1.7-3.4c-.6-.3-1.6-.5-2.8-.5h-6.8v7.5h6.6c1.3,0,2.3-.2,3-.5Z"/>
    <path d="M223.8,163.8l-9.4,17.5v10.5h-5.8v-10.5l-9.7-17.5h6.9l5.8,12.2,5.6-12.2h6.6Z"/>
    <path d="M255.1,189.7c-2.1,1.9-4.8,2.9-8,2.9s-7.2-1.3-9.5-3.9c-2.3-2.6-3.5-6.1-3.5-10.7s1.3-8.6,3.9-11.3c2.3-2.3,5.2-3.5,8.7-3.5s8.1,1.5,10.3,4.6c1.2,1.7,1.8,3.5,1.9,5.2h-5.8c-.4-1.3-.9-2.4-1.5-3-1.1-1.2-2.6-1.8-4.7-1.8s-3.8.9-5,2.6-1.8,4.1-1.8,7.3.6,5.5,1.9,7c1.3,1.6,2.9,2.3,4.9,2.3s3.6-.7,4.7-2c.6-.7,1.1-1.8,1.5-3.2h5.8c-.5,3-1.8,5.5-3.9,7.4Z"/>
    <path d="M263,163.8h5.8v22.9h13.9v5h-19.7v-28Z"/>
    <path d="M302.9,181v-17.2h5.9v17.2c0,3-.5,5.3-1.4,6.9-1.7,3-5,4.6-9.8,4.6s-8.1-1.5-9.9-4.6c-.9-1.7-1.4-4-1.4-6.9v-17.2h5.9v17.2c0,1.9.2,3.3.7,4.2.7,1.6,2.3,2.4,4.6,2.4s3.9-.8,4.6-2.4c.5-.9.7-2.3.7-4.2Z"/>
    <path d="M326.8,191.8h-12.7v-28h13.6c3.4,0,5.9,1,7.3,3,.9,1.2,1.3,2.6,1.3,4.3s-.4,3.1-1.3,4.1c-.5.6-1.2,1.1-2.1,1.6,1.4.5,2.5,1.3,3.2,2.5.7,1.1,1.1,2.5,1.1,4.1s-.4,3.1-1.3,4.5c-.5.9-1.2,1.6-2,2.2-.9.7-2,1.2-3.2,1.4-1.2.3-2.5.4-4,.4ZM329.6,174.2c.8-.5,1.1-1.3,1.1-2.4s-.5-2.2-1.5-2.6c-.9-.3-2-.4-3.3-.4h-6.1v6.2h6.9c1.2,0,2.2-.2,3-.7ZM326.7,179.5h-7v7.5h6.9c1.2,0,2.2-.2,2.9-.5,1.2-.6,1.9-1.8,1.9-3.5s-.6-2.5-1.8-3c-.7-.3-1.6-.5-2.8-.5Z"/>
  </g>
  <path d="M63.3,85.1h-19.3v-11.3c0-3.6-.2-5.9-.7-6.9-.5-1-1.3-1.5-2.5-1.5s-2.2.7-2.8,2c-.6,1.3-1,3.4-1,6.1s.4,6.1,1.1,7.9c.7,1.8,2.6,3.9,5.9,6.4,9.3,7.2,14.5,13.1,16.9,17.7s3.6,12.1,3.6,22.4-.7,13-2,16.5c-1.3,3.5-3.9,6.5-7.7,8.9-3.8,2.4-7.7,3.6-12.7,3.6s-10.3-1.4-14.2-4.1c-3.9-2.8-6.5-6.3-7.7-10.6s-1.8-10.3-1.8-18.2v-6.9h19.3v12.8c0,3.9.3,6.5.8,7.6.5,1.1,1.5,1.7,2.9,1.7s2.4-.6,2.8-2.1.7-3.6.7-6.4c0-6.2-.6-10.2-1.9-12.1-1.3-1.9-4-5.1-9.1-9.5-5.2-4.5-8.6-7.8-10.3-9.8-1.7-2-3.1-4.8-4.2-8.4-1.1-3.6-1.7-8.2-1.7-13.7,0-8,.8-13.9,2.3-17.6,1.6-3.7,4.1-6.6,7.6-8.7,3.5-2.1,7.7-3.1,12.6-3.1s10,1.1,13.8,3.4,6.3,5.2,7.6,8.7c1.2,3.5,1.9,9.4,1.9,17.7v7.7Z"/>
  <path d="M286,85.1h-19.3v-11.3c0-3.6-.2-5.9-.7-6.9-.5-1-1.3-1.5-2.5-1.5s-2.2.7-2.8,2c-.6,1.3-1,3.4-1,6.1s.4,6.1,1.1,7.9c.7,1.8,2.6,3.9,5.9,6.4,9.3,7.2,15.1,13.1,17.5,17.7,2.4,4.6,3.6,12.1,3.6,22.4s-.7,13-2,16.5c-1.3,3.5-3.9,6.5-7.7,8.9-3.8,2.4-8.3,3.6-13.3,3.6s-10.3-1.4-14.3-4.1c-3.9-2.8-6.5-6.3-7.7-10.6-1.2-4.3-1.8-10.3-1.8-18.2v-6.9h19.3v12.8c0,3.9.3,6.5.8,7.6.5,1.1,1.5,1.7,2.9,1.7s2.4-.7,3.1-2.1c.7-1.4,1-3.5,1-6.4,0-6.2-.6-10.2-1.9-12.1-1.3-1.9-4.6-5.1-9.7-9.5-5.2-4.5-8.6-7.8-10.3-9.8-1.7-2-3.1-4.8-4.2-8.4-1.1-3.6-1.7-8.2-1.7-13.7,0-8,.8-13.9,2.3-17.6s4.1-6.6,7.6-8.7c3.5-2.1,7.7-3.1,12.7-3.1s10,1.1,13.8,3.4c3.8,2.3,6.3,5.2,7.6,8.7,1.2,3.5,1.9,9.4,1.9,17.7v7.7Z"/>
  <path d="M115,49.8v70.1c0,8-.2,13.5-.6,16.8-.4,3.2-1.6,6.5-3.5,9.9-2,3.4-4.5,6-7.7,7.7-3.2,1.8-7,2.6-11.3,2.6s-9.1-1-12.8-3.1c-3.7-2.1-6.4-4.8-8.3-8.1s-2.9-6.8-3.2-10.5c-.3-3.7-.5-11.5-.5-23.3v-62.1h21v78.7c0,4.6.2,5.7.6,7,.4,1.3,1.2,1.9,2.3,1.9s2.2-.7,2.6-2.1c.4-1.4.6-3,.6-8.2V49.8h21Z"/>
  <path d="M237.6,49.8v104.9h-19.6V49.8h19.6Z"/>
  <path d="M164,49.8v104.9h-18.5l-11-47.7v47.7h-17.6V49.8h17.6l11.8,47.2v-47.2h17.6Z"/>
  <path d="M167.9,49.8h15c10,0,16.8.5,20.4,1.5,3.6,1,6.4,3.5,8.7,7.6,2.2,4.1,1.6,11.4,1.6,19.7s-.2,19.4-1.8,22.2c-1.6,2.8-3.6,5.7-8.3,6.2l15.2,47.7h-19.7l-11.8-40.3v40.3h-19.5V49.8ZM187.4,67.8v25.1c2.4,0,5.5,0,6.8-1.3s1.4-3.6,1.4-8.2v-7.5c0-3.3-.5-5.5-1.4-6.5-.9-1-4.4-1.6-6.8-1.6Z"/>
  <path d="M290.4,49.8h42.2v19.2h-22.7v23.4h20.3v20h-20.3v23.1h22.7v19.2h-42.2V49.8Z"/>
  <g>
    <path d="M58.7,177.2h0c0,0,0,0,0,0-.8-.5-1.8-.7-2.8-.8,0-.1-.1-1.1-.2-1.2.9-.3,1.8-.8,2.5-1.5h0s0,0,0,0c0-.4-.2-.8-.3-1.1h0s0,0,0,0c-.9-.2-1.9-.2-2.9,0,0-.1-.4-1-.5-1.1.8-.5,1.5-1.2,2-2h0s0,0,0,0c-.2-.4-.4-.7-.6-1h0s0,0,0,0c-1,0-1.9.3-2.8.7,0-.1-.7-.9-.7-1,.7-.7,1.2-1.6,1.4-2.5h0s0,0,0,0c-.2-.3-.5-.6-.8-.8h0s0,0,0,0c-.9.3-1.8.8-2.5,1.4-.1,0-.9-.7-1-.8.5-.8.7-1.8.8-2.7h0c0-.1,0-.2,0-.2-.3-.2-.7-.4-1-.6h0s0,0,0,0c-.8.5-1.5,1.2-2,2-.1,0-1-.4-1.2-.5.1-.5.2-1,.2-1.5,0-.5,0-1-.2-1.4h0s0,0,0,0c-.4-.1-.7-.3-1.1-.3h0s0,0,0,0c-.7.7-1.2,1.6-1.4,2.5-.1,0-1.1-.1-1.2-.2,0-1-.3-1.9-.7-2.8h0s0,0,0,0c-.4,0-.8,0-1.2,0h0c-.5.9-.7,1.8-.7,2.8-.1,0-1.1.1-1.2.2-.3-.9-.8-1.8-1.4-2.5h0s0,0,0,0c-.4,0-.8.2-1.1.3h0s0,0,0,0c-.1.5-.2,1-.2,1.4,0,.5,0,1,.2,1.4-.1,0-1,.4-1.2.5-.5-.8-1.2-1.5-2-2h0s0,0,0,0c-.4.2-.7.4-1,.6h0v.2c0,1,.3,1.9.7,2.7-.1,0-.8.6-.9.7-.7-.7-1.6-1.2-2.5-1.4h0s0,0,0,0c-.3.2-.6.5-.8.8h0s0,0,0,0c.3.9.8,1.8,1.4,2.5,0,.1-.7.9-.8,1-.8-.5-1.8-.7-2.8-.8h0c-.2.4-.4.7-.6,1.1h0s0,0,0,0c.5.8,1.2,1.5,2,2,0,.1-.4,1-.4,1.1-.9-.2-1.9-.2-2.9,0h0s0,0,0,0c-.1.4-.3.8-.3,1.1h0s0,0,0,0c.7.7,1.6,1.2,2.5,1.4,0,.1-.1,1.1-.2,1.2-1,0-1.9.3-2.8.7h0c0,.5,0,.9,0,1.3h0s0,0,0,0c.8.5,1.8.7,2.8.7,0,.1.2,1.1.2,1.2-.9.3-1.8.8-2.5,1.5h0c0,.5.2.9.3,1.2h0s0,0,0,0c.9.2,1.9.2,2.9,0,0,.1.4,1,.5,1.1-.8.5-1.5,1.2-2,2h0s0,0,0,0c.2.4.4.7.6,1h0s0,0,0,0c1,0,1.9-.3,2.8-.7,0,.1.7.9.7,1-.7.7-1.2,1.6-1.4,2.5h0s0,0,0,0c.3.3.5.6.8.8h0s0,0,0,0c.9-.3,1.8-.8,2.5-1.4.1,0,.9.7,1,.8-.5.8-.7,1.8-.7,2.7h0c0,0,0,.1,0,.1.3.2.7.4,1,.6h0s0,0,0,0c.8-.5,1.5-1.2,2-2l1.1.4c-.1.5-.2,1-.2,1.4,0,.5,0,1,.2,1.4h0s0,0,0,0c.4.1.8.3,1.1.3h0c.7-.7,1.2-1.6,1.4-2.5.1,0,1.1.2,1.2.2,0,1,.3,1.9.8,2.8h0s0,0,0,0c.4,0,.8,0,1.2,0h0c.5-.9.7-1.9.8-2.8.1,0,1-.1,1.2-.2.3.9.8,1.8,1.4,2.5h0s0,0,0,0c.4,0,.8-.2,1.1-.3h0s0,0,0,0c.1-.5.2-1,.2-1.4,0-.5,0-1-.2-1.5.1,0,1-.4,1.1-.5.5.8,1.2,1.5,2,2h0s0,0,0,0c.4-.2.7-.4,1-.6h0v-.2c0-.9-.3-1.9-.7-2.7.1,0,.8-.6.9-.7.7.7,1.6,1.2,2.5,1.4h0s0,0,0,0c.3-.3.6-.5.8-.8h0s0,0,0,0c-.3-.9-.8-1.8-1.4-2.5,0-.1.7-.9.7-1,.9.5,1.8.7,2.8.7h0c.2-.4.4-.7.6-1.1h0s0,0,0,0c-.5-.8-1.2-1.5-2-2,0-.1.4-1,.4-1.1.9.3,1.9.3,2.9,0h0s0,0,0,0c.1-.4.2-.8.3-1.1h0s0,0,0,0c-.7-.7-1.5-1.2-2.5-1.4,0-.1.1-1,.2-1.2,1,0,1.9-.3,2.8-.8h0c0-.3,0-.5,0-.7,0-.2,0-.4,0-.6h0ZM40.4,191.4c-7.6,0-13.7-6.1-13.7-13.7,0-7.6,6.1-13.7,13.7-13.7,7.6,0,13.7,6.1,13.7,13.7h0c0,7.6-6.1,13.7-13.7,13.7Z"/>
    <path d="M40.4,165.6c-6.7,0-12,5.4-12,12,0,6.7,5.4,12,12,12,6.7,0,12-5.4,12-12h0c0-6.7-5.4-12-12-12h0ZM41.9,167.6c.1,0,.3,0,.4,0,2.4.6,4.2,1.6,5.9,3.4.1,0,.2.2.2.4h0c0,.2-.2.3-.4.4l-5.1,2.5c-.2,0-.4.1-.5,0-.2-.1-.3-.3-.3-.5l-.4-5.6c0-.3,0-.4.1-.5ZM32.5,171c1.7-1.8,3.5-2.8,5.9-3.4.1,0,.3,0,.4,0,.1,0,.1.2.1.5l-.4,5.6c0,.2,0,.4-.3.5-.2,0-.4,0-.5,0l-5.1-2.5c-.2,0-.4-.2-.4-.3,0-.2,0-.3.2-.4h0ZM31.3,181.4c-.2.2-.4.2-.5.2s-.2-.2-.2-.3c-.7-2.4-.7-4.4,0-6.8,0-.2.1-.3.3-.4.2,0,.3,0,.5.2l4.7,3.2c.2,0,.3.3.3.5,0,.2-.1.4-.3.5l-4.7,3.2ZM39,188c-.1,0-.3,0-.4,0-2.4-.6-4.2-1.6-5.9-3.4-.1,0-.2-.2-.2-.3,0,0,0,0,0,0,0-.2.2-.3.4-.3l5.1-2.5c.2-.2.6,0,.7.2,0,0,0,.2,0,.3l.4,5.6c0,.3,0,.4-.1.5h0ZM40.4,181c-1.8,0-3.3-1.5-3.3-3.3,0-1.1.6-2.1,1.5-2.7.3-.2.7-.1.9.2.2.3.1.7-.2.9-.9.6-1.2,1.8-.6,2.7.6.9,1.8,1.2,2.7.6.9-.6,1.2-1.8.6-2.7-.1-.2-.3-.4-.6-.6-.3-.2-.4-.6-.2-.9.2-.3.6-.4.9-.2h0c1.5,1,1.9,3,.9,4.6-.6.9-1.6,1.5-2.7,1.5h0ZM48.3,184.5c-1.7,1.8-3.5,2.8-5.9,3.4-.1,0-.3,0-.4,0-.1-.1-.1-.3,0-.5l.4-5.6c0-.2.1-.4.3-.5.2,0,.4,0,.5,0l5.1,2.5c.2.1.4.2.4.4s0,.3-.2.4h0ZM50,174c.1,0,.2.2.2.3.7,2.4.7,4.4,0,6.9,0,.2-.1.3-.3.4-.2,0-.3,0-.5-.2l-4.7-3.2c-.2,0-.3-.3-.3-.5,0-.2.1-.4.3-.5l4.7-3.2c.2-.2.4-.2.5-.2h0Z"/>
  </g>
</svg>