<?xml version="1.0" encoding="UTF-8"?>
<svg id="Layer_1" xmlns="http://www.w3.org/2000/svg" version="1.1" viewBox="0 0 140.3 140.3">
  <!-- Generator: Adobe Illustrator 30.2.1, SVG Export Plug-In . SVG Version: 2.1.1 Build 1)  -->
  <defs>
    <style>
      .st0 {
        fill: none;
      }
    </style>
  </defs>
  <path class="st0" d="M7.5,70.1c0,34.6,28.1,62.7,62.7,62.7s62.7-28.1,62.7-62.7S104.7,7.5,70.1,7.5,7.5,35.5,7.5,70.1Z"/>
  <g>
    <path d="M67.5,55.8c-4-.6-7.7-2.8-10.2-5.9.3-.5.4-1,.4-1.6,0-1.7-1.4-3-3-3h0c-.7-1.9-1-3.8-1-5.8,0-9.1,7.4-16.5,16.5-16.5s16.5,7.4,16.5,16.5-.4,3.9-1,5.8h0c-1.7,0-3,1.3-3,3s.2,1.1.4,1.6c-2.6,3.2-6.2,5.3-10.2,6-.5-.9-1.5-1.6-2.6-1.6s-2.1.6-2.6,1.6M74.2,49.5c1.7,1.2,3.4-.8,4.1-2.2.7-1.3,1.6-4,0-5.8-.9-1-1.9-1.5-3.1-2.1s-1.5-2.1-5.1-1.4c-3.6.7-3.1,2.5-3.9,3.7-.8,1.1-3.5,3.7-1.2,6.1,2.1,2.3,3.6-.3,5.7,0,1,.2,1.7.4,3.4,1.6M75.7,32.7c-.7,0-1.6.7-1.7,1.5-.2,1.4.4,2.6.9,3.4.5.8,2.6,1.4,3.5.7,1.3-1-.6-5.9-2.6-5.6M70.2,36c.5.8,1.8,1,2.3.8s.8-1.3.3-2.9c-.5-1.6-2.3-2.9-3.1-2.6-1.6.6,0,3.9.5,4.7M65.6,35.1c.5,1.2,2,2.9,2.9,2.3.9-.7.3-2.2-.3-3.7-.6-1.5-1.9-2.3-2.6-1.7-.9.7-.4,2,0,3.2M65.2,36.6c-.3-.6-1.4-1.7-2.3-1.1-.9.6-.6,2.6,0,3.6s1.6,1.4,2.5.9c1.2-.7,0-2.7-.3-3.4M60.6,43.3c0,.2,1.2,1.6,2.3,1.1,1.1-.6,1-1.7.8-2.6-.2-.9-1.7-1.7-2.5-1.5-1.7.4-.8,2.8-.7,3M74.7,30.4c-.2-.4-.7-.7-1-.6-.2.2,0,.8.3,1.2.2.4.5,1,.8.8.4-.2,0-1.1,0-1.5M69.4,28.7c-.2-.4-.8-1.1-1-.9s.2,1.2.3,1.5c.2.4.5,1,.8.8.4-.2,0-1.1,0-1.5M62.7,34.7c.4,0,.2-.8,0-1.2,0-.4-.5-1.4-.7-1.4-.3,0-.4,1-.2,1.4,0,.4.5,1.3.9,1.2M65.5,30.9c.4-.1.2-.8,0-1.2,0-.4-.5-1.4-.7-1.4-.3,0-.4,1-.2,1.4,0,.4.5,1.3.9,1.2M60.6,39.4c.3,0,0-.6,0-.9,0-.3-.4-1.1-.6-1.1s-.3.8-.2,1.1c0,.3.4,1,.7.9"/>
    <path d="M70.1,7.5C35.5,7.5,7.5,35.5,7.5,70.1s28.1,62.7,62.7,62.7,62.7-28.1,62.7-62.7S104.7,7.5,70.1,7.5M104.6,24.1c.5.5,1.1,1,1.7,1.4.4.3.8.7,1.3.9,0,0-.2.2-.3.3,0,.1,0,.2-.2.3-.3-.3-.5-.6-1.2-1.1-.3-.2-.4-.4-.8-.6-.3.3-.4.4-.8.9s-.5.6-.8,1.1c.6.5,1.3,1,2,1.5,0,0-.2.1-.3.3,0,0,0,.2-.2.3-.4-.4-.9-.8-1.2-1.1s-.5-.4-.7-.5c-.3.3-.6.7-.9,1.1s-.8,1.1-1,1.3c.5.4,1.2.9,2.2,1.6,0,0-.2.1-.3.3,0,0,0,.2-.2.3-.3-.3-.7-.7-1.1-1-.6-.5-1.3-1-1.9-1.5.5-.6,1-1.1,2.4-2.9.7-.8,1.5-1.9,2.1-2.8M96.4,18.9c0,.1.2.2.5.3.2.1.4.2.5.2-.2.3-1,1.6-1.6,2.6.6.4,1.2.7,1.8,1.1.7.4,1.1.6,1.7.9.7-1.2.8-1.4,1.5-2.7,0,.1.2.2.5.3.2.1.4.2.5.2-1,1.5-1.8,2.9-2.6,4.3-.4.7-.6,1-1.1,1.9-.2-.1-.3-.2-.4-.3,0,0-.3-.2-.5-.2.3-.5.9-1.4,1.1-1.7l.8-1.4c-.6-.4-.8-.5-1.7-1-.9-.5-1-.6-1.7-1l-.8,1.3c-.5.8-.6,1-1,1.7,0-.1-.3-.2-.5-.3-.2-.1-.4-.2-.5-.2,1-1.6,1.3-2,2-3.2.4-.7.5-.9,1.6-3M88.9,19.4c.4-1,.9-2.3,1.2-3.3.7.3,1.3.6,2,.9.5.2,1,.4,1.5.5,0,0,0,.2-.2.3v.3c-.3-.2-.6-.4-1.5-.7-.3-.1-.5-.2-.9-.4-.2.4-.2.5-.5,1.1s-.3.7-.5,1.3c.8.3,1.5.6,2.3.9,0,0,0,.2-.2.3v.3c-.5-.3-1-.5-1.5-.7-.3-.1-.5-.2-.8-.3-.2.4-.4.8-.5,1.3-.2.5-.5,1.2-.6,1.5.6.3,1.4.6,2.6.9,0,0,0,.2-.2.3s0,.2,0,.3c-.4-.2-.9-.4-1.3-.6-.7-.3-1.5-.6-2.3-.9.4-.7.7-1.3,1.5-3.4M80.4,16.6c.4-1.5.5-1.9.7-3,.6.2,1.1.3,1.7.4,1.8.5,2.8.7,3.5,1.7.7.9.7,2,.5,2.8-.6,2.6-2.8,3.2-4.8,2.7,0,0-1.3-.4-1.6-.4s-.5-.1-1.1-.2c.3-1,.6-1.7,1.1-4M86.8,87.8c1.8-14.6,1.5-25.8.5-33.9.7.2,1.4.7,2.1,1.4,2.1,2.2,3.4,6.5,3.6,11.2-1.3-2.2-2.6-3.2-2.7-3.3l-1.7-1.2,1,1.8s3.2,5.7,3.5,8.4c.2,1.2.2,2.5.2,3.9,0,2.3-.2,4.9-.5,7.5,0,.2-.9,2.3-3.3,3.7-.9.5-1.9.7-2.9.6v.9c-.6,4.1-1.4,8.5-2.3,13.1.8-4.6,1.4-9,1.8-13.1v-.9c-.4,0-.8,0-1.2-.2-.9,0-1.8-.3-2.5,0-.9.2-1.5.8-1.9,1.3.3-1.6,2-6.2,3.1-9.2l.4-1.1-1,.6s-1.2.7-2.4,3.4c0-.9,0-2,.2-3.3l.2-2c.3-3.7,2.3-9,2.3-9l.3-.7h-.7c0,0-1.5.4-2.5,2.3v-2.1c0-6.1,1.6-10.6,3.5-12.7.6-.7,1.3-1.1,2-1.3,1.2,8.1,1.8,19.4.5,34h.4ZM85.6,49.6c-.7,0-1.3-.6-1.3-1.3s.6-1.3,1.3-1.3,1.3.6,1.3,1.3-.6,1.3-1.3,1.3M86.1,46.1h-.5c-1.2,0-2.2,1-2.2,2.2s.2,1.2.6,1.6c-2.8,3.7-6.9,6.2-11.7,6.8-.3-.9-1.1-1.6-2.1-1.6s-1.9.7-2.1,1.6c-4.8-.6-9-3.1-11.7-6.8.4-.4.6-.9.6-1.6,0-1.2-1-2.2-2.2-2.2s-.4,0-.5,0c-.9-2-1.3-4.3-1.3-6.6,0-9.5,7.8-17.3,17.3-17.3s17.3,7.8,17.3,17.3-.5,4.6-1.3,6.6M71.5,57.2c0,.7-.6,1.3-1.3,1.3s-1.3-.6-1.3-1.3.6-1.3,1.3-1.3,1.3.6,1.3,1.3M56.9,68.2s2,5.3,2.3,9l.2,2c0,1.3.2,2.4.2,3.3-1.2-2.7-2.4-3.4-2.4-3.4l-1-.6.4,1.1c1.1,3,2.8,7.6,3.1,9.2-.4-.6-1.1-1.1-1.9-1.3-.7-.2-1.6,0-2.5,0s-.8,0-1.3.2v.9c.5,4.1,1.1,8.5,1.8,13.1-.9-4.6-1.6-9-2.2-13.1v-.9c-1.1,0-2,0-3-.6-2.4-1.4-3.2-3.4-3.3-3.7-.3-2.6-.5-5.2-.5-7.5s0-2.7.2-3.9c.3-2.7,3.5-8.4,3.5-8.4l1-1.8-1.6,1.2s-1.3,1-2.7,3.3c.2-4.6,1.5-9,3.6-11.2.7-.7,1.4-1.2,2.1-1.4-1,8.1-1.4,19.3.5,33.9h.4c-1.4-14.6-.7-25.9.5-34,.7,0,1.3.6,2,1.3,1.9,2.1,3.5,6.6,3.5,12.7s0,1.4,0,2.1c-1-2-2.4-2.2-2.5-2.2h-.7c0,0,.3.6.3.6h0ZM53.4,48.3c0-.7.6-1.3,1.3-1.3s1.3.6,1.3,1.3-.6,1.3-1.3,1.3-1.3-.6-1.3-1.3M69.7,12.6h.5c.8,2.2,3.2,7.2,3.3,7.3h-1.3c-.4-1.2-.8-2.1-1.1-2.7h-2.6c-.2.5-.6,1.5-.9,2.8h-.9c.9-2,2.4-5.5,3.1-7.4M58.5,13.8c.3,0,.4,0,.6-.2,0,.3.2,1.9.4,3,.7,0,1.4-.2,2.1-.3.8-.1,1.3-.2,1.9-.3-.2-1.4-.2-1.6-.5-3h.6c.3,0,.4,0,.6-.2.2,1.7.4,3.4.7,5,0,.8.2,1.2.4,2.2h-.5c-.2,0-.3,0-.6.2,0-.6-.2-1.7-.2-2l-.2-1.5c-.7,0-1,.1-2,.3-1,.2-1.2.2-2,.3l.2,1.5c.2.9.2,1.2.3,2h-.6c-.2,0-.4,0-.6.2-.2-1.9-.3-2.4-.5-3.8,0-.8-.2-1-.6-3.4h.6M52.4,15.3c1.2-.4,2.1-.3,2.6-.3v1.1h0c-.5-.4-1.5-.7-2.5-.3-1.6.5-2.2,2-1.6,3.9.7,2.1,2.3,2.6,3.7,2.2.4-.2,1.4-.6,1.9-1.8h0c0,.3,0,.5.2.8-.6.7-1.4,1.2-2.2,1.5-2.3.8-4.1-.3-4.8-2.3-.6-1.9,0-3.9,2.6-4.8M42.8,19.5c1.9-1,4.1-.7,5.2,1.3,1,1.9.5,4.1-1.7,5.3-2,1.1-4.1.6-5.2-1.4-1.1-2-.5-4,1.8-5.2M33.8,25.6c.3-.2.5-.4.5-.5,1,.6,2,1,2.8,1.4s.8.4.9.3v-.8c0-1.1-.3-2.1-.6-3.2.2,0,.3-.1.4-.2.2-.1.2-.2.3-.3,0,.7.3,3.5.4,4.5v.5c0,.1.2.3.3.5.2.3,1,1.3,1.5,1.9-.2,0-.3.2-.5.3-.3.2-.4.3-.5.4-.5-.7-.7-1.1-1.7-2.4-3.2-1.3-3.5-1.4-4.7-1.9.3-.1.5-.3.6-.4M57.3,26.6c-3.3,3.3-5.3,7.8-5.3,12.8s.5,4.9,1.4,7c-.5.4-.9,1-.9,1.8s.4,1.5,1.1,1.9c-.2.9-.3,1.8-.4,2.8-1,.2-2,.8-2.9,1.7-2.5,2.7-4,8-3.9,13.5v1.8l.8-1.6c.2-.5.5-1,.8-1.4-.8,1.7-1.6,3.7-1.8,5.1-.2,1.2-.2,2.5-.2,4,0,8.3,2.3,19.7,3.1,22.5l.5,1.9.3-2c.2-1,.3-1.8.5-2.4,0,1.2-.2,2.6-.2,3.7v1.4c0,1.7,2.4,8,4.6,9.4.6.4,1.2.5,1.7.3,1.4-.5,2.1-2.5,2.6-4,.6-1.6,1.2-4.3,1.2-7.1s0-.3,0-.5c0-2.3-1.5-5.3-2.4-7.1.6.5,1.4,1.3,1.8,2.3l.6,1.4.2-1.5h0v-.2h0v-.3c0,0,0,0,0,0h0v-.5h0v-2.2h0v-1.8c0-1-1.4-4.8-2.4-7.4.4.7.9,1.7,1.3,3.1l.6,2,.2-2v-1.2c0-1.2,0-2.6-.3-4.5l-.2-2c-.2-2.9-1.4-6.5-2-8.2.5.4,1.2,1.3,1.6,3l.6,2.5.3-2.5c1-8.9-1.3-15-3.5-17.4-.8-.9-1.6-1.4-2.5-1.5,0-.9.3-1.7.4-2.5.2,0,.4,0,.6-.2,2.9,3.9,7.3,6.6,12.4,7.2,0,.9.7,1.6,1.5,1.8v2.1c-1,.2-2,.7-2.8,1.7-2.5,2.6-4,8-3.9,13.5v1.8l.8-1.6c.3-.5.5-1,.8-1.4-.8,1.7-1.6,3.7-1.8,5.1s-.3,3.1-.3,4.8c0,8.2,1.7,18.8,2.5,21.7l.5,2,.3-2c.2-1,.3-1.8.5-2.4,0,1.2-.2,2.6-.2,3.7v1.4c0,1,.9,3.5,2,5.8-24.1-1.1-43.3-20.9-43.3-45.3s13.7-38,32.5-43.5M29.1,110.5c0,0-.2-.3-.2-.4,0,0-.2-.2-.3-.3.9-1.4,2.7-4.7,3-5.2-.7.3-4.1,1.7-4.9,2.1-.2,0-.3.2-.6.3,0-.2-.2-.3-.3-.4,0,0-.2-.2-.3-.3,1-1.5,2.9-4.6,3.8-6.5,0,0,.2.3.3.4.2.2.5.5.5.5-1,1.4-2.5,4-3.3,5.3l2.1-.9c1-.4,2.8-1.2,3.6-1.7,0,0,0,.2.2.4,0,.2.2.2.3.3-.2.3-.4.6-.8,1.2-.6,1-2.1,3.7-2.4,4.2l2.1-.9c1.2-.5,2.1-.9,3.5-1.7,0,.2.2.3.3.4.2.2.3.3.4.3-1.1.4-2.8,1-5.3,2.1-1,.4-1.3.6-1.8.8M34,114.8c0-.2-.3-.3-.5-.5-.2,0-.3-.2-.5-.3.8-.8,1.1-1.2,2.5-2.8q1-1.2,2.2-2.7c0,0,.2.2.4.4.2.2.3.3.5.3-.8.9-1.6,1.9-2.4,2.8-1.2,1.4-1.7,2.1-2.2,2.7M43.3,117.9c-.4.7-1.1,1.7-1.5,2.4,0,0,0,0-.2,0h-.2c0-.5-.4-2.8-.7-3.8,0-.2,0-.5-.2-.7l-.6-2.9-.4.6c-1.3,2.1-1.6,2.7-2.4,4.1,0,0-.2-.2-.3-.3-.2,0-.3,0-.4-.2.3-.4,1.4-1.9,1.9-2.8.2-.4,1.2-1.9,1.4-2.2l.7-1.1h0c0,0,0,0,.2.2v.5c0,.4.2.8.4,1.7.6,3,.6,3.3,1,5.2l.2-.3c1.4-2.2,1.9-3,2.6-4.4,0,0,.2.2.3.3,0,0,.3,0,.4.2-1,1.2-1.8,2.5-2.6,3.7M52.1,117.5c0,0,0,.2,0,.4-.3-.2-.8-.5-2-1-.3.7-.6,1.3-.9,2-.5,1.2-1.2,2.6-1.8,4.1-.3-.2-.5-.3-.6-.3-.2,0-.4,0-.5-.2.5-1,1.2-2.4,1.8-3.7.4-.9.7-1.7,1-2.3-1-.4-1.7-.7-2.2-.8,0,0,0-.2.2-.3q0-.2,0-.4c.6.3,1.8.9,2.5,1.2.9.4,1.9.9,2.6,1.1,0,0,0,.2-.2.3M58.7,122.9c-.3,1-.6,2.1-1.5,2.6-.5.3-1.3.5-2.4.2-.8-.2-1.8-.7-2.2-1.7-.2-.6,0-1.2,0-2,.7-2.7.8-2.9,1.1-4.2.2,0,.4.2.6.2s.4,0,.6,0c-.5,1.3-1,3.2-1,3.4-.3,1.3-.5,2-.2,2.6.2.5.8.9,1.4,1.1.3,0,1.7.4,2.4-.9.3-.6.7-1.8.7-2,0-.4.6-2.4.7-3.1,0,0,.2,0,.5.2h.5c-.4.9-.7,2-1.1,3.5M67.6,124.8c0,.8-.2,2.1-.2,2.8h-.4c-.3-.4-1.7-2.3-2.3-3.1-.2-.2-.3-.4-.5-.6l-1.8-2.3v.7c-.3,2.5-.3,3.1-.4,4.7,0,0-.2,0-.4,0h-.4c0-.5.4-2.3.5-3.4,0-.4.2-2.2.2-2.6v-1.2h.5l.3.4c.2.4.5.7,1,1.4,1.9,2.4,2.1,2.7,3.2,4.1v-.4c.3-2.7.4-3.6.4-5.1,0,0,.2,0,.4,0h.5c-.3,1.5-.5,3-.6,4.5M70.4,98.3c0,3.7,0,7.7-.2,11.9,0-4.2-.2-8.1-.2-11.8v-.9c-.9,0-1.8,0-2.4-.3-2.3-1.4-3.7-3.5-3.9-3.9-.3-2.7-.4-5.4-.4-8s0-3.3.3-4.7c.3-2.7,3.5-8.4,3.5-8.4l1-1.8-1.6,1.2s-1.3,1-2.7,3.3c.2-4.6,1.5-9,3.6-11.2.7-.7,1.4-1.2,2.2-1.4,0,8.4.2,20,.4,35.2h.4c.2-15.3.3-26.9.4-35.2.8.2,1.5.7,2.3,1.5,1.9,2.1,3.9,6.6,3.9,12.9s0,1.1,0,1.6c-1-2-2.4-2.2-2.5-2.2h-.7c0,0,.3.6.3.6,0,0,2,5.3,2.3,9l.2,2c0,1.3.2,2.4.2,3.3-1.2-2.7-2.4-3.4-2.4-3.4l-.9-.5.3,1c.4,1.4,1.2,4.3,1.8,6.6-.3.3-1,.9-2,1.6-.9.6-2,1-3.1,1.2v.9h-.1ZM72.1,119.5h.5c1.5-.5,2.6-2.5,3.1-4v-.2h0c.5-1.6,1.1-4.1,1.1-6.8s0-.3,0-.5c0-2.3-1.5-5.3-2.4-7.1.6.5,1.4,1.3,1.8,2.3l.6,1.4.2-1.5v-.6c0-.7,0-1.9,0-3.3v-1.2c0-1-1.3-5.5-2.1-8,.5.8,1.1,1.9,1.7,3.7l.6,2,.2-2v-1.2c0-1.2,0-2.6-.3-4.5l-.2-2c-.2-2.9-1.4-6.5-2-8.2.5.4,1.2,1.3,1.6,3l.6,2.5.3-2.5c1-8.5-1.5-14.5-3.9-17.2-.9-1-1.9-1.6-2.9-1.8v-2.1c.8-.3,1.4-1,1.5-1.8,5.1-.6,9.5-3.3,12.4-7.2.2,0,.4,0,.6.2,0,.8.3,1.6.4,2.5-.9.2-1.7.7-2.5,1.5-2.3,2.5-4.5,8.5-3.5,17.4l.3,2.5.6-2.5c.4-1.7,1.1-2.6,1.6-3-.6,1.7-1.7,5.4-2,8.2l-.2,2c-.2,1.9-.3,3.3-.3,4.5v1.2l.2,2,.6-2c.4-1.4.9-2.3,1.3-3.1-.9,2.6-2.2,6.4-2.3,7.4v1.8h0v2h0v.4h0v.2h0v.3h0v.2l.2,1.5.6-1.4c.5-1.1,1.2-1.8,1.8-2.3-.9,1.8-2.3,4.8-2.4,7.1,0,3,.5,5.9,1.1,7.6.5,1.5,1.3,3.5,2.6,4,.6.2,1.2,0,1.8-.3,2.2-1.4,4.6-7.7,4.6-9.4v-1.3c0-1.1,0-2.5-.2-3.7.2.6.3,1.4.5,2.4l.3,2,.5-1.9c.8-2.8,3.1-14.2,3.1-22.5s0-2.8-.2-4c0-1.4-.9-3.4-1.8-5.1.3.4.5.9.8,1.4l.8,1.6v-1.8c.2-5.6-1.3-10.9-3.8-13.5-.9-.9-1.8-1.5-2.8-1.7,0-1-.3-1.9-.4-2.8.6-.4,1.1-1.1,1.1-1.9s-.3-1.4-.9-1.8c.9-2.2,1.4-4.5,1.4-7,0-5-2-9.5-5.3-12.8,18.8,5.5,32.5,22.9,32.5,43.5s-16.9,41.8-38.9,44.9c-.5,1.4-1.8,4.4-4.5,4.4h0M81.5,126.6h-.2c-.4-.3-2.2-1.8-3-2.4-.2,0-.4-.3-.6-.4l-2.3-1.8v.7c.5,2.5.6,3.1,1,4.7h-.4c-.2,0-.3,0-.4,0,0-.5-.2-2.3-.4-3.4,0-.4-.4-2.2-.4-2.6l-.2-1.2h.4l.4.4c.3.3.6.5,1.3,1.1,2.4,1.9,2.7,2.1,4.2,3.2v-.4c-.4-2.6-.6-3.5-.9-5h.4c.2,0,.3,0,.4,0,0,1.5.3,3,.5,4.5,0,.8.3,2,.5,2.8h-.2M90.1,124c-.3,0-.4.2-.6.3-.7-1.1-1.4-1.8-1.8-2.3l-2.5.8c0,.5-.2,1.5,0,2.9h-.4c-.2,0-.3,0-.4.2.3-2.2.7-5.9.9-7.9h.5c1.4,1.8,5.2,6,5.2,6-.2,0-.4,0-.6,0M94.2,122.2c-.2,0-.4.2-.5.3-.4-1.1-1-2.5-1.6-3.8-.4-.9-.8-1.7-1.1-2.3-1,.5-1.7.8-2,1.1,0,0,0-.2,0-.3,0-.2,0-.2-.2-.3.6-.2,1.8-.8,2.6-1.1.9-.4,1.9-.9,2.5-1.2,0,0,0,.2,0,.3,0,0,0,.2.2.3-.3,0-.9.3-2.1.8.3.7.6,1.3.9,2,.5,1.1,1.2,2.7,2,4-.3,0-.6.2-.6.2M99.7,119.3c-.2,0-.3.2-.4.3-.5-1-.8-1.5-1.8-3.2-.8-1.3-.8-1.4-1.9-3,.2,0,.3,0,.5-.2s.4-.2.5-.4c.6,1.1,1.2,2.2,1.9,3.2,1,1.6,1.4,2.3,1.9,3-.2,0-.4.2-.6.3M106.2,115.1c-1.8,1.4-3.9,1.4-5.4-.4-1.4-1.7-1.2-3.9.8-5.5,1.7-1.4,3.9-1.5,5.3.4,1.4,1.7,1.2,4-.7,5.5M115.2,105.9c-.5,0-2.9,0-3.8,0h-3.6c0,0,.5.6.5.6,1.9,1.6,2.4,2,3.7,3,0,0-.2,0-.3.3,0,0-.2.2-.2.3-.4-.4-1.7-1.6-2.5-2.3-.3-.3-1.7-1.4-2-1.7l-.9-.8h0c0,0,0-.2,0-.3h2.2c3,0,3.4,0,5.3-.2l-.3-.3c-2-1.8-2.7-2.4-3.9-3.2,0,0,.2,0,.3-.3s.2-.3.2-.4c1,1.1,2.2,2.1,3.3,3.1.6.5,1.6,1.4,2.1,1.8,0,0,0,0,0,0h0M83.8,20.7c1.1-.4,1.6-1.5,1.8-2.3.2-.8.3-1.8-.4-2.7-.6-.7-1.4-.9-2.2-1.1-.5-.1-.6-.1-.9-.2-.3.9-.5,2-.8,2.9-.5,1.9-.5,2.1-.7,3.1.3.1.6.2,1.1.3.4.1,1.4.4,2.2,0M85.2,122.2l2.1-.7-1.9-2.1-.3,2.8h.1ZM104.4,109.1c-1-.4-2,0-2.6.5-1.1.9-1.6,2.5,0,4.3,1.3,1.6,3,1.8,4.2.8,1.3-1,1.4-2.7,0-4.4-.3-.4-.9-1-1.6-1.3M69.7,14l-1.1,2.6h2.2l-1.2-2.6h0ZM46,25.7c1.5-.8,1.9-2.4.9-4.3-.3-.5-.7-1.2-1.4-1.5-.9-.6-2-.3-2.6,0-1.2.7-2,2.2-.9,4.2,1,1.8,2.6,2.3,4,1.6"/>
  </g>
</svg>